<svg width="20" height="20" viewBox="0 0 20 20" fill="none" xmlns="http://www.w3.org/2000/svg">
<g clip-path="url(#clip0_604_13723)">
<path d="M12.5121 5.13756C12.4678 5.10803 11.4108 4.41418 9.99966 4.41418C8.58853 4.41418 7.53153 5.10803 7.48724 5.13756C7.16217 5.35427 7.13663 5.82387 7.43677 6.07487C7.90742 6.46845 9.1641 7.71638 9.41378 8.81506V11.8749C9.41378 12.1985 9.67611 12.4608 9.9997 12.4608C10.3233 12.4608 10.5856 12.1985 10.5856 11.8749V8.81506C10.8353 7.71642 12.092 6.46845 12.5622 6.07519C12.8626 5.8248 12.8379 5.35478 12.5121 5.13756ZM9.99962 7.25737C9.6435 6.67513 9.19835 6.16112 8.83805 5.78918C9.62229 5.51888 10.3764 5.51868 11.1613 5.78914C10.8009 6.16108 10.3558 6.67505 9.99962 7.25737Z" fill="#4D69FF"/>
<path d="M19.9991 7.17172C19.9662 5.95598 19.0737 5.03921 17.9231 5.03921H15.5402C15.2236 3.04431 13.2441 1.91431 9.99966 1.91431C6.75523 1.91431 4.77576 3.04431 4.45913 5.03921H2.07686C0.926314 5.03921 0.0338037 5.95598 0.00083598 7.17172C-0.0194368 7.92076 0.330083 8.79249 0.932018 9.53458C0.435315 10.4374 0.644917 11.686 1.51094 12.5521C2.50248 13.5436 4.0643 13.708 4.98017 12.7921C5.91987 11.8525 5.71398 10.2968 4.7401 9.3229C3.89146 8.47422 2.67556 8.25637 1.77746 8.71542C1.38985 8.21208 1.16006 7.65151 1.17221 7.20348C1.18779 6.62842 1.56825 6.21105 2.07683 6.21105H4.47788C4.86908 7.97537 6.91378 8.90229 6.91378 10.625V12.4999C6.91378 13.9433 8.16374 14.4493 8.16374 14.9998V17.4998C8.16374 17.8233 8.42608 18.0857 8.74966 18.0857H11.2496C11.5732 18.0857 11.8355 17.8233 11.8355 17.4998V14.9998C11.8355 14.3767 13.0855 13.6709 13.0855 12.4999V10.625C13.0855 8.9019 15.1299 7.97626 15.5214 6.21105H17.9231C18.4317 6.21105 18.8121 6.62842 18.8277 7.20344C18.8398 7.65147 18.6101 8.21204 18.2224 8.71542C17.3244 8.25641 16.1085 8.47418 15.2598 9.3229C14.7784 9.80437 14.4814 10.4192 14.4237 11.0542C14.3023 12.39 15.26 13.3954 16.5343 13.3954C17.2149 13.3954 17.9313 13.1097 18.489 12.5521C19.355 11.686 19.5646 10.4374 19.0679 9.53458C19.6699 8.79249 20.0195 7.92076 19.9991 7.17172ZM4.40925 11.1602C4.51198 12.2903 3.20741 12.5912 2.33959 11.7234C1.77387 11.1576 1.66617 10.3448 2.09956 9.9114C2.81083 9.20037 4.30347 9.99679 4.40925 11.1602ZM11.9137 10.625V12.4999C11.9137 13.1231 10.6637 13.8288 10.6637 14.9998V16.9138H9.33562V14.9998C9.33562 13.7825 8.08566 13.4416 8.08566 12.4999V10.625C8.08566 8.19927 5.58574 7.17172 5.58574 5.62513C5.58574 3.57504 7.94191 3.08615 9.99966 3.08615C12.058 3.08615 14.4136 3.57531 14.4136 5.62513C14.4136 7.17098 11.9137 8.1995 11.9137 10.625ZM17.6604 11.7234C16.7965 12.5873 15.4875 12.2968 15.5908 11.1602C15.6979 9.9821 17.1991 9.21009 17.9005 9.9114C18.3338 10.3448 18.2261 11.1577 17.6604 11.7234Z" fill="#4D69FF"/>
</g>
<defs>
<clipPath id="clip0_604_13723">
<rect width="20" height="20" fill="white"/>
</clipPath>
</defs>
</svg>
