<svg width="20" height="20" viewBox="0 0 20 20" fill="none" xmlns="http://www.w3.org/2000/svg">
<path d="M18.5886 13.0682L13.8536 9.12216V0.78125C13.8536 0.349731 13.5039 0 13.0724 0H6.92657C6.49506 0 6.14532 0.349731 6.14532 0.78125V9.12216L1.41037 13.0682C0.514069 13.8153 0 14.913 0 16.0797C0 18.2414 1.75858 20 3.92029 20H16.0788C18.2404 20 19.9991 18.2414 19.9991 16.0797C19.9989 14.9129 19.4849 13.8153 18.5886 13.0682ZM16.0788 18.4375H10.775V17.3373C13.5948 17.0836 15.2747 15.3601 14.4872 12.6302C14.4128 12.3721 14.2111 12.1704 13.9531 12.0959C12.3553 11.6351 10.8809 11.978 9.99207 13.3888C9.10141 11.9836 7.63031 11.6501 6.04553 12.1071C5.78751 12.1815 5.58578 12.3833 5.51132 12.6413C4.72366 15.3722 6.41098 17.0844 9.21249 17.3372V18.4375H3.92029C1.73264 18.4375 0.717621 15.6795 2.41089 14.2685L7.42676 10.0882C7.60498 9.93973 7.70782 9.71985 7.70782 9.48807V1.5625H12.2913V9.48807C12.2913 9.72 12.3941 9.93988 12.5723 10.0882L17.5883 14.2686C19.2818 15.6799 18.2655 18.4375 16.0788 18.4375ZM10.8253 15.7596C10.9438 14.828 11.2651 14.1037 11.7342 13.7508C12.1217 13.4593 12.6097 13.4227 13.0846 13.4985C13.1737 14.0565 13.0887 14.5111 12.8302 14.8535C12.4762 15.3227 11.7534 15.6432 10.8253 15.7596ZM9.16168 15.7594C8.23853 15.643 7.51968 15.3241 7.16736 14.8572C6.91055 14.5168 6.82571 14.0648 6.91391 13.5098C7.46719 13.4219 7.91763 13.5059 8.25699 13.7611C8.72345 14.1122 9.04358 14.8328 9.16168 15.7594Z" fill="#4D69FF"/>
</svg>
