<svg width="20" height="20" viewBox="0 0 20 20" fill="none" xmlns="http://www.w3.org/2000/svg">
<path d="M7.58333 10.6116L7.6894 10.7177L7.79547 10.6116L8.88519 9.52173C8.88525 9.52167 8.88531 9.52162 8.88537 9.52156C9.17023 9.23805 9.34701 8.86361 9.38454 8.46322L9.38463 8.46222C9.55583 6.49444 11.2083 4.98718 13.1835 4.99709H13.1843H15.5625C15.6985 4.99709 15.8088 5.10739 15.8088 5.24352V6.03624C15.8088 6.17236 15.6985 6.28267 15.5625 6.28267H14.3734L14.3732 6.28267C12.3214 6.28554 10.6587 7.94812 10.656 9.9999L10.6558 10.1501H10.806H11.5987H11.7484L11.7487 10.0004C11.7513 8.55176 12.9249 7.37806 14.3735 7.37538C14.3736 7.37538 14.3736 7.37538 14.3737 7.37538L15.5625 7.37538C16.3021 7.37538 16.9017 6.77594 16.9017 6.03624V5.24352C16.9017 4.50398 16.3021 3.90438 15.5625 3.90438H13.1846C10.6441 3.89228 8.51899 5.83062 8.29803 8.36138C8.28435 8.50616 8.22082 8.64156 8.11825 8.74465C8.11822 8.74469 8.11818 8.74472 8.11815 8.74476L7.02344 9.8396L6.91739 9.94567L7.02345 10.0517L7.58333 10.6116Z" fill="#4D69FF" stroke="#4D69FF" stroke-width="0.3"/>
<path d="M8.50669 9.2122L8.3978 9.10732C7.01336 7.77376 6.69323 5.68416 7.60209 4.00112L6.61701 3.01591L6.51096 2.90985L6.61702 2.80379L7.1769 2.24391L7.28296 2.13784L7.38903 2.24391L8.91509 3.76997L9.00351 3.85839L8.93245 3.96128L8.74427 4.23375L8.50669 9.2122ZM8.50669 9.2122L8.61071 9.10249M8.50669 9.2122L8.61071 9.10249M8.61071 9.10249L9.15564 8.52781L9.25782 8.42005M8.61071 9.10249L9.25782 8.42005M9.25782 8.42005L9.15109 8.31679M9.25782 8.42005L9.15109 8.31679M9.15109 8.31679C8.03601 7.23802 7.86397 5.51144 8.74418 4.23388L9.15109 8.31679Z" fill="#4D69FF" stroke="#4D69FF" stroke-width="0.3"/>
<path d="M9.91174 3.1397L9.97437 3.20233L10.0595 3.17774L10.2819 3.11344C10.5697 3.03253 10.869 3.00083 11.1673 3.01971L11.5879 3.04942L11.7484 3.06077V2.8998V0.486816V0.336816H11.5984H10.8057H10.6557V0.486816V1.93819C10.538 1.94931 10.4208 1.96609 10.3047 1.98851L8.97451 0.658155L8.86844 0.552078L8.76237 0.65815L8.20234 1.21817L8.09628 1.32424L8.20234 1.43031L9.91174 3.1397Z" fill="#4D69FF" stroke="#4D69FF" stroke-width="0.3"/>
<path d="M13.5288 4.68249L13.5924 4.81869L13.7285 4.75487L14.4469 4.41796L14.5831 4.35407L14.5188 4.21805C14.3209 3.7993 14.0544 3.41649 13.7304 3.0857V0.486816V0.336816H13.5804H12.7877H12.6377V0.486816V3.49437V3.56366L12.6905 3.60858L12.8224 3.72086C13.1189 3.99168 13.359 4.31855 13.5288 4.68249Z" fill="#4D69FF" stroke="#4D69FF" stroke-width="0.3"/>
<path d="M7.87202 4.361L7.82703 4.21756L7.68369 4.26285C4.96529 5.12187 3.12454 7.42272 3.12454 9.99988C3.12454 12.6643 4.15847 15.0745 5.52805 16.8186C6.21302 17.6909 6.98442 18.3998 7.75709 18.8917C8.52809 19.3825 9.30978 19.663 10.013 19.663C10.7162 19.663 11.4979 19.3825 12.2689 18.8917C13.0416 18.3998 13.813 17.6909 14.498 16.8186C15.8676 15.0745 16.9016 12.6643 16.9016 9.99988C16.9016 8.73074 16.4678 7.51877 15.645 6.48754L15.5513 6.37015L15.434 6.46396L14.8146 6.95938L14.6976 7.05302L14.7911 7.17014C15.4597 8.00707 15.8087 8.98512 15.8087 9.99988C15.8087 12.4803 14.8464 14.6283 13.6321 16.1564C13.025 16.9204 12.3571 17.5265 11.7194 17.9406C11.0787 18.3566 10.4813 18.5703 10.013 18.5703C9.54464 18.5703 8.94732 18.3566 8.30657 17.9406C7.66888 17.5265 7.00104 16.9204 6.39394 16.1564C5.17962 14.6283 4.21725 12.4803 4.21725 9.99988C4.21725 7.9211 5.72925 6.02919 8.01191 5.30706L8.15456 5.26193L8.10979 5.11916L7.87202 4.361Z" fill="#4D69FF" stroke="#4D69FF" stroke-width="0.3"/>
</svg>
