<svg width="20" height="20" viewBox="0 0 20 20" fill="none" xmlns="http://www.w3.org/2000/svg">
<path d="M15.8834 7.01521C15.8834 7.01898 15.8849 7.02055 15.8861 7.02137C16.752 7.61688 17.3234 8.61049 17.3234 9.73765C17.3234 11.5614 15.84 13.0448 14.0163 13.0448H13.8091C13.809 13.0448 13.8089 13.0448 13.8088 13.0448L15.8834 7.01521ZM15.8834 7.01521C15.8834 7.01145 15.8849 7.00987 15.8861 7.00905M15.8834 7.01521L15.8861 7.00905M15.8861 7.00905C16.7523 6.41282 17.3236 5.41671 17.3236 4.28676M15.8861 7.00905L17.3236 4.28676M17.3236 4.28676C17.3236 2.46561 15.8369 0.984595 14.0102 0.984595M17.3236 4.28676L14.0102 0.984595M14.0102 0.984595H6.05886M14.0102 0.984595H6.05886M6.05886 0.984595C5.9484 0.984595 5.85886 1.07414 5.85886 1.18459M6.05886 0.984595L5.85886 1.18459M5.85886 1.18459V1.94477M5.85886 1.18459V1.94477M5.85886 1.94477C5.85886 2.05522 5.94841 2.14477 6.05886 2.14477M5.85886 1.94477L6.05886 2.14477M6.05886 2.14477H14.01M6.05886 2.14477H14.01M14.01 2.14477C15.1978 2.14477 16.1632 3.10624 16.1632 4.28676M14.01 2.14477L16.1632 4.28676M16.1632 4.28676C16.1632 5.47047 15.2 6.43372 14.0163 6.43372M16.1632 4.28676L14.0163 6.43372M14.0163 6.43372L6.90893 6.43435M14.0163 6.43372L6.90893 6.43435M6.90893 6.43435C6.79847 6.43436 6.70893 6.52392 6.70895 6.63439M6.90893 6.43435L6.70895 6.63439M6.70895 6.63439L6.70908 7.39456M6.70895 6.63439L6.70908 7.39456M6.70908 7.39456C6.70909 7.50501 6.79864 7.59453 6.90909 7.59452M6.70908 7.39456L6.90909 7.59452M6.90909 7.59452L13.9921 7.59389M6.90909 7.59452L13.9921 7.59389M13.9921 7.59389C13.9982 7.59505 14.0045 7.59565 14.0109 7.59565L13.9921 7.59389ZM10.8854 13.0502H10.8854L14.0109 7.59565C15.1982 7.59613 16.1632 8.55742 16.1632 9.73765C16.1632 10.9214 15.2 11.8846 14.0163 11.8846L6.90908 11.8849C6.79863 11.8849 6.70909 11.9745 6.70909 12.0849V12.8451C6.70909 12.9556 6.79864 13.0451 6.9091 13.0451L10.8531 13.0449C10.8633 13.0484 10.8742 13.0502 10.8854 13.0502ZM14.0093 7.59389C14.0092 7.59389 14.0091 7.59389 14.0091 7.59389H14.0092H14.0093Z" fill="#4D69FF" stroke="#4D69FF" stroke-width="0.2"/>
<path d="M2.67721 6.97333C2.67721 8.11571 3.261 9.12112 4.14323 9.71509C3.26082 10.3091 2.67673 11.3148 2.67673 12.4573C2.67673 14.2812 4.1602 15.7648 5.9861 15.7648L5.98656 15.7648L5.9861 15.6648L5.98658 15.7648H5.98667L5.98701 15.7648L5.98838 15.7648L5.99377 15.7648L6.0149 15.7647L6.09584 15.7643L6.39095 15.763L7.34193 15.7591C8.0708 15.7563 8.90158 15.7534 9.31005 15.7534C9.55964 15.7534 9.75611 15.7696 9.90416 15.8008C10.0543 15.8325 10.1425 15.8771 10.1889 15.924L10.189 15.924C10.2326 15.968 10.2725 16.0453 10.3044 16.1663C10.3359 16.2858 10.3571 16.4378 10.3706 16.6211C10.3976 16.988 10.393 17.4634 10.3875 18.0227C10.3847 18.296 10.3819 18.5932 10.3819 18.9159V19.0159H10.4819H11.4421H11.5421V18.9159C11.5421 18.5977 11.545 18.3045 11.5477 18.0342L11.5477 18.0342L11.5478 18.0259C11.5551 17.2842 11.5609 16.6979 11.4977 16.2308C11.434 15.7588 11.2984 15.3954 11.0134 15.1076L11.0134 15.1076C10.5584 14.6483 9.87869 14.5933 9.30989 14.5933C8.90038 14.5933 8.06863 14.5961 7.33945 14.5989L6.38788 14.6028L6.09261 14.6041L6.01162 14.6045L5.99047 14.6046L5.98507 14.6046L5.98371 14.6046C5.98365 14.6046 5.98359 14.6046 5.98354 14.6046C4.79991 14.6045 3.83674 13.6412 3.83674 12.4573C3.83674 11.2735 4.8 10.3101 5.9837 10.3101H14.216H14.316V10.2101V9.24989V9.14989H14.216H6.08434V9.12061H5.98434C4.80048 9.12061 3.83722 8.15721 3.83722 6.97333C3.83722 5.78966 4.8004 4.8266 5.98373 4.82653C5.98377 4.82653 5.98382 4.82653 5.98386 4.82653L13.9911 4.83741L14.0911 4.83755L14.0912 4.73754L14.0925 3.77737L14.0926 3.67738L13.9926 3.67724L5.98464 3.66636H5.9845C4.16081 3.66636 2.67721 5.14977 2.67721 6.97333Z" fill="#4D69FF" stroke="#4D69FF" stroke-width="0.2"/>
</svg>
