<svg width="20" height="20" viewBox="0 0 20 20" fill="none" xmlns="http://www.w3.org/2000/svg">
<g clip-path="url(#clip0_604_13681)">
<path d="M2.17645 17.8206C0.239504 15.8837 -0.917779 12.6378 0.934888 10.7851C2.79419 8.92576 6.04457 10.1009 7.97036 12.0267C9.90699 13.9633 11.0647 17.2094 9.21192 19.0622C7.39097 20.8832 4.15 19.7942 2.17645 17.8206ZM1.76258 11.6128C0.400298 12.9751 1.62208 15.6109 3.00415 16.9929C4.38173 18.3705 7.01983 19.5989 8.38422 18.2345C9.74659 16.8721 8.52449 14.2362 7.14266 12.8544C5.46792 11.1797 2.96735 10.4081 1.76258 11.6128Z" fill="#4D69FF"/>
<path d="M6.91562 16.7108C6.3669 16.5648 5.53008 16.2079 4.65954 15.3374C3.78904 14.4669 3.43218 13.6301 3.28613 13.0814L4.41727 12.7803C4.50663 13.1159 4.76442 13.7869 5.48723 14.5097C6.21001 15.2325 6.88104 15.4903 7.21668 15.5797L6.91562 16.7108Z" fill="#4D69FF"/>
<path d="M10.7878 14.38C8.92855 12.5207 10.1034 9.27044 12.0294 7.34449C13.966 5.40782 17.2121 4.25022 19.0648 6.10293C20.9246 7.96266 19.7485 11.2132 17.8233 13.1384C15.8864 15.0753 12.6404 16.2326 10.7878 14.38ZM12.857 8.17219C11.4796 9.54957 10.2509 12.1877 11.6155 13.5523C12.9778 14.9145 15.6135 13.6928 16.9955 12.3107C18.3731 10.9331 19.6015 8.29502 18.2371 6.93062C17.0158 5.70935 14.5071 6.5221 12.857 8.17219Z" fill="#4D69FF"/>
<path d="M13.0841 12.0287L12.783 10.8976C13.1186 10.8082 13.7896 10.5504 14.5124 9.82759C15.2352 9.10482 15.493 8.43378 15.5824 8.09814L16.7135 8.39925C16.5675 8.94796 16.2106 9.78479 15.3401 10.6553C14.4696 11.5258 13.6328 11.8826 13.0841 12.0287Z" fill="#4D69FF"/>
<path d="M4.69337 7.03172C2.41942 7.03172 0.0111694 5.70572 0.0111694 3.52007C0.0111694 1.32377 2.43518 0.00842285 4.69337 0.00842285C6.96731 0.00842285 9.37556 1.33442 9.37556 3.52007C9.37556 5.71641 6.95151 7.03172 4.69337 7.03172ZM4.69337 1.17897C3.17657 1.17897 1.18172 2.00448 1.18172 3.52007C1.18172 5.03144 3.1688 5.86117 4.69337 5.86117C6.21016 5.86117 8.20501 5.03566 8.20501 3.52007C8.20501 2.00873 6.21793 1.17897 4.69337 1.17897Z" fill="#4D69FF"/>
<path d="M4.69336 4.10544C3.63019 4.10544 2.83106 3.70109 2.51068 3.30037L3.425 2.56944C3.4877 2.64014 3.91686 2.93493 4.69336 2.93493C5.46987 2.93493 5.89903 2.64014 5.96364 2.56714L6.87605 3.30037C6.55567 3.70109 5.7565 4.10544 4.69336 4.10544Z" fill="#4D69FF"/>
<path d="M16.4379 19.9859C15.1251 19.9859 14.0968 19.2147 14.0968 18.2301C14.0968 17.2455 15.1251 16.4742 16.4379 16.4742C17.7507 16.4742 18.779 17.2455 18.779 18.2301C18.779 19.2147 17.7507 19.9859 16.4379 19.9859ZM16.4379 17.6448C15.7234 17.6448 15.2674 17.9914 15.2674 18.2301C15.2674 18.4687 15.7234 18.8153 16.4379 18.8153C17.1524 18.8153 17.6084 18.4687 17.6084 18.2301C17.6084 17.9914 17.1524 17.6448 16.4379 17.6448Z" fill="#4D69FF"/>
<path d="M11.4211 3.32763C10.4928 2.39935 10.3111 1.12689 11.0073 0.430682C11.7035 -0.265522 12.976 -0.0837355 13.9042 0.844549C14.7198 1.66003 15.0938 2.96586 14.3181 3.7415C13.5592 4.50045 12.2593 4.16583 11.4211 3.32763ZM11.835 1.25838C11.6662 1.42713 11.7436 1.99469 12.2489 2.49994C12.6911 2.94221 13.2935 3.11061 13.4904 2.91377C13.7161 2.68809 13.4609 2.05654 13.0766 1.67224C12.599 1.19466 12.0172 1.07624 11.835 1.25838Z" fill="#4D69FF"/>
</g>
<defs>
<clipPath id="clip0_604_13681">
<rect width="20" height="20" fill="white"/>
</clipPath>
</defs>
</svg>
