<svg width="20" height="20" viewBox="0 0 20 20" fill="none" xmlns="http://www.w3.org/2000/svg">
<mask id="path-1-outside-1_604_13734" maskUnits="userSpaceOnUse" x="-1" y="-0.984375" width="22" height="22" fill="black">
<rect fill="white" x="-1" y="-0.984375" width="22" height="22"/>
<path d="M17.9293 4.82292C17.4314 4.74203 16.8688 4.70038 16.3026 4.69581C14.1676 4.69581 12.2735 5.4244 10.8806 6.80599C9.46832 8.20681 8.65834 10.1671 8.65834 12.1841H10.2184C10.2184 11.684 10.2844 11.1822 10.4094 10.6952C11.1177 11.071 11.7226 11.2481 12.2855 11.2481C13.1332 11.2481 13.8983 10.9338 14.6245 10.2874C15.2044 9.77124 15.6978 9.09804 16.1748 8.44702C16.7893 7.60849 17.4248 6.74137 18.2125 6.25751L20 5.15946L17.9293 4.82292ZM14.9165 7.52487C14.0659 8.68559 13.3312 9.68801 12.2855 9.68801C11.959 9.68801 11.5235 9.53536 10.9888 9.23384C11.2576 8.74652 11.5909 8.29882 11.9792 7.9136C12.9913 6.90978 14.3361 6.34456 15.8894 6.26524C15.5433 6.66956 15.2276 7.10038 14.9165 7.52487ZM13.7285 16.8647C13.7283 17.7241 13.0272 18.4233 12.168 18.4244C11.3087 18.4233 10.6098 17.7239 10.6098 16.8643C10.6098 16.0186 11.3415 15.3042 12.2075 15.3042V13.7442H4.87519V3.13575C4.87519 2.27553 5.57503 1.57569 6.43525 1.57569H14.1521C13.8858 2.03477 13.7324 2.56707 13.7322 3.13481L13.7322 3.45287C14.2331 3.3219 14.7528 3.23115 15.2886 3.18134V3.13536C15.2888 2.276 15.9914 1.57678 16.8505 1.57577C17.7099 1.57674 18.4087 2.27616 18.4087 3.13575C18.4087 3.19761 18.4047 3.25849 18.3977 3.31851L19.938 3.5689C19.9578 3.42721 19.9688 3.28279 19.9688 3.13575C19.9688 1.41656 18.5711 0.0177701 16.8524 0.015703V0.015625C16.8518 0.015625 16.8512 0.015664 16.8505 0.015664C16.8499 0.015664 16.8493 0.015625 16.8487 0.015625V0.015703C16.7964 0.015781 6.43525 0.015625 6.43525 0.015625C4.71481 0.015625 3.31513 1.41531 3.31513 3.13575V13.7442H3.1599C1.44211 13.7442 0.0168028 15.1158 0.000149166 16.8335C-0.0166605 18.568 1.38942 19.9844 3.12012 19.9844H12.1661H12.1699C13.8882 19.9824 15.2858 18.5838 15.2863 16.8652L15.2871 11.759C14.831 12.1099 14.3168 12.4026 13.7297 12.5889L13.7285 16.8647ZM9.46848 18.4244H3.12012C2.2599 18.4244 1.56006 17.7245 1.56006 16.8643C1.56006 16.0041 2.2599 15.3042 3.12012 15.3042H9.47737C9.19956 15.7741 9.04976 16.3084 9.04976 16.8643C9.04976 17.4322 9.20229 17.9652 9.46848 18.4244ZM16.3026 4.69581C16.277 4.69558 16.3282 4.69581 16.3026 4.69581V4.69581Z"/>
</mask>
<path d="M17.9293 4.82292C17.4314 4.74203 16.8688 4.70038 16.3026 4.69581C14.1676 4.69581 12.2735 5.4244 10.8806 6.80599C9.46832 8.20681 8.65834 10.1671 8.65834 12.1841H10.2184C10.2184 11.684 10.2844 11.1822 10.4094 10.6952C11.1177 11.071 11.7226 11.2481 12.2855 11.2481C13.1332 11.2481 13.8983 10.9338 14.6245 10.2874C15.2044 9.77124 15.6978 9.09804 16.1748 8.44702C16.7893 7.60849 17.4248 6.74137 18.2125 6.25751L20 5.15946L17.9293 4.82292ZM14.9165 7.52487C14.0659 8.68559 13.3312 9.68801 12.2855 9.68801C11.959 9.68801 11.5235 9.53536 10.9888 9.23384C11.2576 8.74652 11.5909 8.29882 11.9792 7.9136C12.9913 6.90978 14.3361 6.34456 15.8894 6.26524C15.5433 6.66956 15.2276 7.10038 14.9165 7.52487ZM13.7285 16.8647C13.7283 17.7241 13.0272 18.4233 12.168 18.4244C11.3087 18.4233 10.6098 17.7239 10.6098 16.8643C10.6098 16.0186 11.3415 15.3042 12.2075 15.3042V13.7442H4.87519V3.13575C4.87519 2.27553 5.57503 1.57569 6.43525 1.57569H14.1521C13.8858 2.03477 13.7324 2.56707 13.7322 3.13481L13.7322 3.45287C14.2331 3.3219 14.7528 3.23115 15.2886 3.18134V3.13536C15.2888 2.276 15.9914 1.57678 16.8505 1.57577C17.7099 1.57674 18.4087 2.27616 18.4087 3.13575C18.4087 3.19761 18.4047 3.25849 18.3977 3.31851L19.938 3.5689C19.9578 3.42721 19.9688 3.28279 19.9688 3.13575C19.9688 1.41656 18.5711 0.0177701 16.8524 0.015703V0.015625C16.8518 0.015625 16.8512 0.015664 16.8505 0.015664C16.8499 0.015664 16.8493 0.015625 16.8487 0.015625V0.015703C16.7964 0.015781 6.43525 0.015625 6.43525 0.015625C4.71481 0.015625 3.31513 1.41531 3.31513 3.13575V13.7442H3.1599C1.44211 13.7442 0.0168028 15.1158 0.000149166 16.8335C-0.0166605 18.568 1.38942 19.9844 3.12012 19.9844H12.1661H12.1699C13.8882 19.9824 15.2858 18.5838 15.2863 16.8652L15.2871 11.759C14.831 12.1099 14.3168 12.4026 13.7297 12.5889L13.7285 16.8647ZM9.46848 18.4244H3.12012C2.2599 18.4244 1.56006 17.7245 1.56006 16.8643C1.56006 16.0041 2.2599 15.3042 3.12012 15.3042H9.47737C9.19956 15.7741 9.04976 16.3084 9.04976 16.8643C9.04976 17.4322 9.20229 17.9652 9.46848 18.4244ZM16.3026 4.69581C16.277 4.69558 16.3282 4.69581 16.3026 4.69581V4.69581Z" fill="#4D69FF"/>
<path d="M17.9293 4.82292L17.9454 4.72421L17.9454 4.72421L17.9293 4.82292ZM16.3026 4.69581L16.3034 4.59581H16.3026V4.69581ZM10.8806 6.80599L10.8102 6.73499L10.8806 6.80599ZM8.65834 12.1841H8.55834V12.2841H8.65834V12.1841ZM10.2184 12.1841V12.2841H10.3184V12.1841H10.2184ZM10.4094 10.6952L10.4563 10.6069L10.3441 10.5474L10.3125 10.6704L10.4094 10.6952ZM14.6245 10.2874L14.691 10.3621L14.691 10.3621L14.6245 10.2874ZM16.1748 8.44702L16.0942 8.38791V8.38791L16.1748 8.44702ZM18.2125 6.25751L18.1601 6.17231L18.1601 6.17231L18.2125 6.25751ZM20 5.15946L20.0523 5.24467L20.2815 5.1039L20.016 5.06076L20 5.15946ZM10.9888 9.23384L10.9012 9.18555L10.8534 9.27229L10.9397 9.32094L10.9888 9.23384ZM11.9792 7.9136L12.0497 7.9846L11.9792 7.9136ZM15.8894 6.26524L15.9654 6.33027L16.1167 6.1535L15.8843 6.16537L15.8894 6.26524ZM13.7285 16.8647L13.6285 16.8647V16.8647L13.7285 16.8647ZM12.168 18.4244L12.1679 18.5244H12.1681L12.168 18.4244ZM12.2075 15.3042V15.4042H12.3075V15.3042H12.2075ZM12.2075 13.7442H12.3075V13.6442H12.2075V13.7442ZM4.87519 13.7442H4.77519V13.8442H4.87519V13.7442ZM14.1521 1.57569L14.2386 1.62586L14.3257 1.47569H14.1521V1.57569ZM13.7322 3.13481L13.6322 3.13479V3.13479L13.7322 3.13481ZM13.7322 3.45287L13.6322 3.45285L13.6321 3.58238L13.7575 3.54962L13.7322 3.45287ZM15.2886 3.18134L15.2978 3.28091L15.3886 3.27248V3.18134H15.2886ZM15.2886 3.13536L15.1886 3.13534V3.13536H15.2886ZM16.8505 1.57577L16.8506 1.47577L16.8504 1.47577L16.8505 1.57577ZM18.3977 3.31851L18.2983 3.30683L18.2872 3.40186L18.3816 3.41722L18.3977 3.31851ZM19.938 3.5689L19.922 3.66761L20.0229 3.68401L20.0371 3.58275L19.938 3.5689ZM16.8524 0.015703H16.7524V0.115583L16.8523 0.115703L16.8524 0.015703ZM16.8524 0.015625H16.9524V-0.084375H16.8524V0.015625ZM16.8487 0.015625V-0.084375H16.7487V0.015625H16.8487ZM16.8487 0.015703L16.8488 0.115703L16.9487 0.115554V0.015703H16.8487ZM6.43525 0.015625L6.43525 -0.084375H6.43525V0.015625ZM3.31513 13.7442V13.8442H3.41513V13.7442H3.31513ZM0.000149166 16.8335L-0.0998461 16.8326L0.000149166 16.8335ZM12.1699 19.9844V20.0844H12.17L12.1699 19.9844ZM15.2863 16.8652L15.3863 16.8653V16.8653L15.2863 16.8652ZM15.2871 11.759L15.3871 11.7591L15.3872 11.5559L15.2262 11.6798L15.2871 11.759ZM13.7297 12.5889L13.6994 12.4936L13.6297 12.5158L13.6297 12.5889L13.7297 12.5889ZM9.46848 18.4244V18.5244H9.64203L9.555 18.3742L9.46848 18.4244ZM9.47737 15.3042L9.56345 15.3551L9.65267 15.2042H9.47737V15.3042ZM17.9454 4.72421C17.4415 4.64235 16.8737 4.60041 16.3034 4.59582L16.3018 4.79581C16.864 4.80034 17.4214 4.84171 17.9133 4.92162L17.9454 4.72421ZM16.3026 4.59581C14.1443 4.59581 12.2239 5.33279 10.8102 6.73499L10.951 6.87699C12.3232 5.51601 14.191 4.79581 16.3026 4.79581V4.59581ZM10.8102 6.73499C9.37867 8.15488 8.55834 10.1408 8.55834 12.1841H8.75834C8.75834 10.1933 9.55797 8.25874 10.951 6.87699L10.8102 6.73499ZM8.65834 12.2841H10.2184V12.0841H8.65834V12.2841ZM10.3184 12.1841C10.3184 11.6927 10.3832 11.1993 10.5062 10.7201L10.3125 10.6704C10.1855 11.1651 10.1184 11.6752 10.1184 12.1841H10.3184ZM10.3625 10.7836C11.0797 11.164 11.7009 11.3481 12.2855 11.3481V11.1481C11.7442 11.1481 11.1557 10.9779 10.4563 10.6069L10.3625 10.7836ZM12.2855 11.3481C13.1613 11.3481 13.9494 11.0223 14.691 10.3621L14.558 10.2127C13.8473 10.8454 13.1051 11.1481 12.2855 11.1481V11.3481ZM14.691 10.3621C15.2802 9.83762 15.7798 9.15529 16.2555 8.50613L16.0942 8.38791C15.6157 9.04078 15.1286 9.70487 14.558 10.2127L14.691 10.3621ZM16.2555 8.50613C16.8733 7.66305 17.4972 6.81425 18.2648 6.34272L18.1601 6.17231C17.3524 6.66848 16.7054 7.55393 16.0942 8.38791L16.2555 8.50613ZM18.2648 6.34272L20.0523 5.24467L19.9476 5.07426L18.1601 6.17231L18.2648 6.34272ZM20.016 5.06076L17.9454 4.72421L17.9133 4.92162L19.9839 5.25817L20.016 5.06076ZM14.8358 7.46576C14.4089 8.04833 14.0183 8.58078 13.6056 8.96887C13.1946 9.35547 12.7729 9.58801 12.2855 9.58801V9.78801C12.8438 9.78801 13.3123 9.51934 13.7427 9.11456C14.1715 8.71126 14.5735 8.16213 14.9971 7.58398L14.8358 7.46576ZM12.2855 9.58801C11.9855 9.58801 11.5687 9.44606 11.0379 9.14673L10.9397 9.32094C11.4783 9.62466 11.9324 9.78801 12.2855 9.78801V9.58801ZM11.0764 9.28213C11.3408 8.80267 11.6684 8.36273 12.0497 7.9846L11.9088 7.8426C11.5133 8.23491 11.1743 8.69036 10.9012 9.18555L11.0764 9.28213ZM12.0497 7.9846C13.0425 6.99983 14.3633 6.44331 15.8945 6.36511L15.8843 6.16537C14.309 6.24582 12.9401 6.81972 11.9088 7.8426L12.0497 7.9846ZM15.8135 6.2002C15.4644 6.60788 15.1465 7.04177 14.8358 7.46576L14.9972 7.58398C15.3086 7.15898 15.6221 6.73125 15.9654 6.33027L15.8135 6.2002ZM13.6285 16.8647C13.6284 17.6687 12.9721 18.3234 12.1679 18.3244L12.1681 18.5244C13.0823 18.5233 13.8283 17.7795 13.8285 16.8648L13.6285 16.8647ZM12.1681 18.3244C11.3639 18.3234 10.7098 17.6687 10.7098 16.8643H10.5098C10.5098 17.7791 11.2534 18.5233 12.1679 18.5244L12.1681 18.3244ZM10.7098 16.8643C10.7098 16.0761 11.3944 15.4042 12.2075 15.4042V15.2042C11.2885 15.2042 10.5098 15.9612 10.5098 16.8643H10.7098ZM12.3075 15.3042V13.7442H12.1075V15.3042H12.3075ZM12.2075 13.6442H4.87519V13.8442H12.2075V13.6442ZM4.97519 13.7442V3.13575H4.77519V13.7442H4.97519ZM4.97519 3.13575C4.97519 2.33076 5.63026 1.67569 6.43525 1.67569V1.47569C5.5198 1.47569 4.77519 2.2203 4.77519 3.13575H4.97519ZM6.43525 1.67569H14.1521V1.47569H6.43525V1.67569ZM14.0656 1.52551C13.7907 1.99929 13.6324 2.54881 13.6322 3.13479L13.8322 3.13484C13.8324 2.58533 13.9808 2.07026 14.2386 1.62586L14.0656 1.52551ZM13.6322 3.13479L13.6322 3.45285L13.8322 3.4529L13.8322 3.13484L13.6322 3.13479ZM13.7575 3.54962C14.253 3.42008 14.7672 3.33023 15.2978 3.28091L15.2793 3.08177C14.7383 3.13206 14.2133 3.22373 13.7069 3.35612L13.7575 3.54962ZM15.3886 3.18134V3.13536H15.1886V3.18134H15.3886ZM15.3886 3.13538C15.3887 2.33152 16.0463 1.67671 16.8506 1.67577L16.8504 1.47577C15.9364 1.47684 15.1888 2.22047 15.1886 3.13534L15.3886 3.13538ZM16.8504 1.67577C17.6546 1.67668 18.3087 2.33135 18.3087 3.13575H18.5087C18.5087 2.22096 17.7652 1.4768 16.8506 1.47577L16.8504 1.67577ZM18.3087 3.13575C18.3087 3.19327 18.305 3.25023 18.2983 3.30683L18.497 3.33019C18.5044 3.26675 18.5087 3.20194 18.5087 3.13575H18.3087ZM18.3816 3.41722L19.922 3.66761L19.9541 3.4702L18.4137 3.21981L18.3816 3.41722ZM20.0371 3.58275C20.0575 3.43683 20.0688 3.28777 20.0688 3.13575H19.8688C19.8688 3.2778 19.8582 3.41759 19.839 3.55505L20.0371 3.58275ZM20.0688 3.13575C20.0688 1.36137 18.6264 -0.0821635 16.8525 -0.0842969L16.8523 0.115703C18.5158 0.117704 19.8688 1.47176 19.8688 3.13575H20.0688ZM16.9524 0.015703V0.015625H16.7524V0.015703H16.9524ZM16.8524 -0.084375C16.8503 -0.084375 16.8484 -0.0843083 16.8484 -0.0843067C16.8478 -0.0842888 16.849 -0.084336 16.8505 -0.084336V0.115664C16.8527 0.115664 16.8545 0.115597 16.8546 0.115596C16.8552 0.115578 16.8539 0.115625 16.8524 0.115625V-0.084375ZM16.8505 -0.084336C16.852 -0.084336 16.8533 -0.0842888 16.8527 -0.0843067C16.8527 -0.0843083 16.8508 -0.084375 16.8487 -0.084375V0.115625C16.8472 0.115625 16.8459 0.115578 16.8465 0.115596C16.8465 0.115597 16.8484 0.115664 16.8505 0.115664V-0.084336ZM16.7487 0.015625V0.015703H16.9487V0.015625H16.7487ZM16.8485 -0.0842969C16.8225 -0.084258 14.2193 -0.0842775 11.6223 -0.0843067C10.3239 -0.0843214 9.02716 -0.0843384 8.05499 -0.0843518C7.56891 -0.0843586 7.16397 -0.0843643 6.88056 -0.0843685C6.73885 -0.0843705 6.62752 -0.0843721 6.55162 -0.0843733C6.51368 -0.0843738 6.48458 -0.0843743 6.46498 -0.0843746C6.45517 -0.0843747 6.44774 -0.0843748 6.44276 -0.0843749C6.44027 -0.0843749 6.43839 -0.084375 6.43714 -0.084375C6.43651 -0.084375 6.43604 -0.084375 6.43573 -0.084375C6.43557 -0.084375 6.43545 -0.084375 6.43537 -0.084375C6.43529 -0.084375 6.43525 -0.084375 6.43525 0.015625C6.43525 0.115625 6.43529 0.115625 6.43537 0.115625C6.43545 0.115625 6.43556 0.115625 6.43572 0.115625C6.43604 0.115625 6.43651 0.115625 6.43714 0.115625C6.43839 0.115625 6.44027 0.115625 6.44276 0.115625C6.44774 0.115625 6.45517 0.115625 6.46497 0.115625C6.48458 0.115626 6.51367 0.115626 6.55162 0.115627C6.62752 0.115628 6.73885 0.115629 6.88056 0.115632C7.16397 0.115636 7.5689 0.115641 8.05499 0.115648C9.02716 0.115662 10.3239 0.115679 11.6223 0.115693C14.2191 0.115723 16.8226 0.115742 16.8488 0.115703L16.8485 -0.0842969ZM6.43525 -0.084375C4.65959 -0.084375 3.21513 1.36008 3.21513 3.13575H3.41513C3.41513 1.47054 4.77004 0.115625 6.43525 0.115625V-0.084375ZM3.21513 3.13575V13.7442H3.41513V3.13575H3.21513ZM3.31513 13.6442H3.1599V13.8442H3.31513V13.6442ZM3.1599 13.6442C1.38894 13.6442 -0.0826446 15.0583 -0.0998461 16.8326L0.100144 16.8345C0.11625 15.1733 1.49529 13.8442 3.1599 13.8442V13.6442ZM-0.0998461 16.8326C-0.117195 18.6227 1.33387 20.0844 3.12012 20.0844V19.8844C1.44497 19.8844 0.0838743 18.5133 0.100144 16.8345L-0.0998461 16.8326ZM3.12012 20.0844H12.1661V19.8844H3.12012V20.0844ZM12.1661 20.0844H12.1699V19.8844H12.1661V20.0844ZM12.17 20.0844C13.9435 20.0823 15.3858 18.639 15.3863 16.8653L15.1863 16.8652C15.1858 18.5286 13.8329 19.8824 12.1698 19.8844L12.17 20.0844ZM15.3863 16.8653L15.3871 11.7591L15.1871 11.759L15.1863 16.8652L15.3863 16.8653ZM15.2262 11.6798C14.7776 12.0248 14.2735 12.3114 13.6994 12.4936L13.7599 12.6843C14.36 12.4938 14.8844 12.1949 15.3481 11.8383L15.2262 11.6798ZM13.6297 12.5889L13.6285 16.8647L13.8285 16.8648L13.8297 12.589L13.6297 12.5889ZM9.46848 18.3244H3.12012V18.5244H9.46848V18.3244ZM3.12012 18.3244C2.31513 18.3244 1.66006 17.6693 1.66006 16.8643H1.46006C1.46006 17.7797 2.20467 18.5244 3.12012 18.5244V18.3244ZM1.66006 16.8643C1.66006 16.0593 2.31513 15.4042 3.12012 15.4042V15.2042C2.20467 15.2042 1.46006 15.9489 1.46006 16.8643H1.66006ZM3.12012 15.4042H9.47737V15.2042H3.12012V15.4042ZM9.39129 15.2533C9.10452 15.7384 8.94976 16.2902 8.94976 16.8643H9.14976C9.14976 16.3266 9.29461 15.8098 9.56345 15.3551L9.39129 15.2533ZM8.94976 16.8643C8.94976 17.4503 9.10721 18.0005 9.38196 18.4745L9.555 18.3742C9.29738 17.9298 9.14976 17.414 9.14976 16.8643H8.94976ZM16.3036 4.59582C16.3004 4.59579 16.2986 4.59577 16.2978 4.59576C16.2969 4.59574 16.2978 4.59575 16.299 4.5958C16.2993 4.59581 16.2998 4.59583 16.3005 4.59586C16.3009 4.59588 16.3026 4.59597 16.3048 4.59618C16.3056 4.59625 16.3085 4.59654 16.3123 4.59718C16.3144 4.59758 16.3202 4.5989 16.3238 4.5999C16.3311 4.60238 16.3564 4.6166 16.3718 4.6314C16.3943 4.68178 16.3694 4.76277 16.3449 4.7825C16.3358 4.78713 16.3218 4.79213 16.3173 4.79325C16.3148 4.79378 16.3107 4.79452 16.3091 4.79476C16.3079 4.79491 16.306 4.79514 16.3052 4.79522C16.3023 4.79551 16.3 4.7956 16.2997 4.79562C16.2989 4.79565 16.2983 4.79567 16.298 4.79568C16.2974 4.7957 16.2969 4.7957 16.2968 4.7957C16.2962 4.79571 16.2963 4.79571 16.2979 4.79571C16.2991 4.79571 16.3006 4.79572 16.3022 4.79572C16.3037 4.79573 16.3052 4.79574 16.3064 4.79575C16.308 4.79576 16.3081 4.79577 16.3076 4.79575C16.3074 4.79575 16.307 4.79574 16.3064 4.79572C16.3061 4.79571 16.3055 4.79569 16.3048 4.79565C16.3044 4.79563 16.3024 4.79553 16.2998 4.79527C16.2991 4.79519 16.2975 4.795 16.2965 4.79487C16.2952 4.79469 16.2919 4.79414 16.29 4.79375C16.2867 4.79303 16.2773 4.79028 16.2712 4.78794C16.2563 4.78015 16.2155 4.72829 16.2115 4.67848C16.226 4.64159 16.2645 4.60676 16.276 4.60174C16.2811 4.60007 16.289 4.59802 16.2918 4.59746C16.2936 4.59715 16.2965 4.5967 16.2977 4.59654C16.2986 4.59644 16.3001 4.59628 16.3008 4.59621C16.3032 4.59599 16.3051 4.59591 16.3055 4.59589C16.3062 4.59586 16.3068 4.59584 16.3071 4.59583C16.3076 4.59582 16.3081 4.59581 16.3082 4.59581C16.3084 4.59581 16.3085 4.5958 16.3085 4.5958C16.3086 4.5958 16.3086 4.5958 16.3084 4.5958C16.3076 4.59581 16.3058 4.59581 16.3026 4.59581V4.79581C16.3058 4.79581 16.3081 4.79581 16.3095 4.7958C16.3098 4.7958 16.3102 4.7958 16.3106 4.79579C16.3108 4.79579 16.3118 4.79578 16.3128 4.79575C16.3132 4.79574 16.3137 4.79572 16.3145 4.79569C16.3149 4.79567 16.3168 4.79559 16.3192 4.79536C16.3199 4.7953 16.3214 4.79514 16.3223 4.79503C16.3235 4.79488 16.3265 4.79443 16.3282 4.79412C16.331 4.79356 16.339 4.79151 16.344 4.78984C16.3556 4.78481 16.3941 4.74999 16.4085 4.7131C16.4046 4.66329 16.3637 4.61142 16.3488 4.60363C16.3428 4.6013 16.3333 4.59854 16.3301 4.59782C16.3281 4.59744 16.3248 4.59689 16.3235 4.5967C16.3226 4.59658 16.3209 4.59638 16.3202 4.5963C16.3176 4.59604 16.3156 4.59594 16.3152 4.59592C16.3145 4.59588 16.3139 4.59586 16.3135 4.59585C16.3129 4.59582 16.3123 4.59581 16.3121 4.59581C16.3108 4.59577 16.3089 4.59576 16.3079 4.59575C16.3064 4.59574 16.3047 4.59573 16.3031 4.59573C16.3014 4.59572 16.2997 4.59571 16.2983 4.59571C16.2973 4.59571 16.2954 4.5957 16.294 4.59572C16.2938 4.59573 16.2932 4.59573 16.2926 4.59575C16.2922 4.59576 16.2916 4.59578 16.2908 4.59582C16.2905 4.59583 16.2882 4.59593 16.2853 4.59621C16.2845 4.5963 16.2825 4.59653 16.2814 4.59668C16.2798 4.59692 16.2756 4.59766 16.2731 4.59819C16.2687 4.59931 16.2547 4.60431 16.2455 4.60894C16.221 4.62867 16.1962 4.70966 16.2187 4.76004C16.2341 4.77484 16.2593 4.78906 16.2666 4.79154C16.2702 4.79255 16.276 4.79386 16.2782 4.79426C16.2819 4.79491 16.2849 4.79519 16.2857 4.79527C16.2879 4.79548 16.2896 4.79557 16.29 4.79559C16.2907 4.79562 16.2913 4.79564 16.2916 4.79566C16.2931 4.79571 16.2947 4.79573 16.2949 4.79573C16.2963 4.79575 16.2985 4.79578 16.3017 4.79581L16.3036 4.59582Z" fill="#4D69FF" mask="url(#path-1-outside-1_604_13734)"/>
</svg>
