<svg width="20" height="20" viewBox="0 0 20 20" fill="none" xmlns="http://www.w3.org/2000/svg">
<path d="M10 19.425H10.0001C12.4988 19.4222 14.8945 18.4283 16.6614 16.6614C18.4283 14.8945 19.4222 12.4988 19.425 10.0001V10C19.425 8.13591 18.8722 6.31369 17.8366 4.76375C16.801 3.21382 15.329 2.0058 13.6068 1.29244C11.8846 0.579084 9.98955 0.392437 8.16128 0.756103C6.33301 1.11977 4.65363 2.01741 3.33552 3.33552C2.01741 4.65363 1.11977 6.33301 0.756103 8.16128C0.392437 9.98955 0.579084 11.8846 1.29244 13.6068C2.0058 15.329 3.21382 16.801 4.76375 17.8366C6.31369 18.8722 8.13591 19.425 10 19.425ZM5.51377 3.28589C6.84169 2.3986 8.40288 1.92501 9.99995 1.925C12.1409 1.92739 14.1934 2.77892 15.7072 4.29277C17.2211 5.80662 18.0726 7.85915 18.075 10.0001C18.075 11.5971 17.6014 13.1583 16.7141 14.4862C15.8268 15.8142 14.5657 16.8492 13.0902 17.4603C11.6147 18.0715 9.99105 18.2314 8.42465 17.9198C6.85825 17.6083 5.41943 16.8392 4.29012 15.7099C3.16081 14.5806 2.39174 13.1418 2.08016 11.5754C1.76859 10.009 1.9285 8.38535 2.53968 6.90983C3.15085 5.43432 4.18585 4.17318 5.51377 3.28589Z" fill="#4D69FF" stroke="#4D69FF" stroke-width="0.1"/>
<path d="M6.25 10.05H6.25005C6.76042 10.0495 7.24975 9.84652 7.61063 9.48563C7.97152 9.12475 8.17449 8.63542 8.175 8.12505V8.125C8.175 7.74427 8.0621 7.37209 7.85058 7.05553C7.63906 6.73896 7.33841 6.49223 6.98667 6.34653C6.63492 6.20083 6.24787 6.16271 5.87445 6.23699C5.50104 6.31127 5.15804 6.4946 4.88882 6.76382C4.6196 7.03304 4.43627 7.37604 4.36199 7.74945C4.28771 8.12287 4.32583 8.50992 4.47153 8.86167C4.61723 9.21341 4.86396 9.51406 5.18053 9.72558C5.49709 9.9371 5.86927 10.05 6.25 10.05ZM5.93055 7.64691C6.02511 7.58372 6.13628 7.55 6.25 7.55C6.4025 7.55 6.54875 7.61058 6.65659 7.71841C6.76442 7.82625 6.825 7.9725 6.825 8.125C6.825 8.23873 6.79128 8.3499 6.7281 8.44445C6.66491 8.53901 6.57511 8.61271 6.47004 8.65623C6.36498 8.69975 6.24936 8.71114 6.13782 8.68895C6.02628 8.66677 5.92383 8.612 5.84341 8.53159C5.763 8.45117 5.70824 8.34872 5.68605 8.23718C5.66386 8.12564 5.67525 8.01003 5.71877 7.90496C5.76229 7.79989 5.83599 7.71009 5.93055 7.64691Z" fill="#4D69FF" stroke="#4D69FF" stroke-width="0.1"/>
<path d="M11.875 6.925H11.8751C12.3025 6.92449 12.7124 6.75444 13.0147 6.45216C13.3169 6.14988 13.487 5.74005 13.4875 5.31256V5.3125C13.4875 4.99358 13.3929 4.68182 13.2157 4.41664C13.0386 4.15147 12.7867 3.94479 12.4921 3.82274C12.1974 3.7007 11.8732 3.66877 11.5604 3.73098C11.2476 3.7932 10.9603 3.94678 10.7348 4.17229C10.5093 4.3978 10.3557 4.68512 10.2935 4.99792C10.2313 5.31071 10.2632 5.63493 10.3852 5.92958C10.5073 6.22422 10.714 6.47606 10.9791 6.65325C11.2443 6.83043 11.5561 6.925 11.875 6.925ZM11.7292 5.09424C11.7723 5.0654 11.8231 5.05 11.875 5.05C11.9446 5.05 12.0114 5.07766 12.0606 5.12689C12.1098 5.17611 12.1375 5.24288 12.1375 5.3125C12.1375 5.36442 12.1221 5.41517 12.0933 5.45834C12.0644 5.50151 12.0234 5.53515 11.9755 5.55502C11.9275 5.57489 11.8747 5.58009 11.8238 5.56996C11.7729 5.55983 11.7261 5.53483 11.6894 5.49812C11.6527 5.46141 11.6277 5.41463 11.6175 5.36371C11.6074 5.31279 11.6126 5.26001 11.6325 5.21205C11.6524 5.16408 11.686 5.12308 11.7292 5.09424Z" fill="#4D69FF" stroke="#4D69FF" stroke-width="0.1"/>
<path d="M12.1875 15.675H12.1876C12.8636 15.6742 13.5118 15.4053 13.9898 14.9273C14.4678 14.4493 14.7367 13.8011 14.7375 13.1251V13.125C14.7375 12.6207 14.5879 12.1276 14.3077 11.7083C14.0276 11.289 13.6293 10.9621 13.1633 10.7691C12.6974 10.5761 12.1847 10.5256 11.69 10.624C11.1954 10.7224 10.741 10.9653 10.3844 11.3219C10.0278 11.6785 9.78489 12.1329 9.6865 12.6275C9.58811 13.1222 9.6386 13.6349 9.83161 14.1008C10.0246 14.5668 10.3515 14.9651 10.7708 15.2452C11.1901 15.5254 11.6832 15.675 12.1875 15.675ZM11.5208 12.1272C11.7182 11.9954 11.9502 11.925 12.1875 11.925C12.5058 11.925 12.811 12.0514 13.036 12.2765C13.2611 12.5015 13.3875 12.8067 13.3875 13.125C13.3875 13.3623 13.3171 13.5943 13.1853 13.7917C13.0534 13.989 12.866 14.1428 12.6467 14.2337C12.4275 14.3245 12.1862 14.3482 11.9534 14.3019C11.7206 14.2556 11.5068 14.1414 11.339 13.9735C11.1712 13.8057 11.0569 13.5919 11.0106 13.3591C10.9643 13.1263 10.988 12.8851 11.0788 12.6658C11.1697 12.4465 11.3235 12.2591 11.5208 12.1272Z" fill="#4D69FF" stroke="#4D69FF" stroke-width="0.1"/>
<path d="M4.6875 12.8625C5.06029 12.8625 5.3625 12.5603 5.3625 12.1875C5.3625 11.8147 5.06029 11.5125 4.6875 11.5125C4.31471 11.5125 4.0125 11.8147 4.0125 12.1875C4.0125 12.5603 4.31471 12.8625 4.6875 12.8625Z" fill="#4D69FF" stroke="#4D69FF" stroke-width="0.1"/>
<path d="M8.4375 11.925C8.81029 11.925 9.1125 11.6228 9.1125 11.25C9.1125 10.8772 8.81029 10.575 8.4375 10.575C8.06471 10.575 7.7625 10.8772 7.7625 11.25C7.7625 11.6228 8.06471 11.925 8.4375 11.925Z" fill="#4D69FF" stroke="#4D69FF" stroke-width="0.1"/>
<path d="M9.0625 16.6125C9.43529 16.6125 9.7375 16.3103 9.7375 15.9375C9.7375 15.5647 9.43529 15.2625 9.0625 15.2625C8.68971 15.2625 8.3875 15.5647 8.3875 15.9375C8.3875 16.3103 8.68971 16.6125 9.0625 16.6125Z" fill="#4D69FF" stroke="#4D69FF" stroke-width="0.1"/>
<path d="M12.8125 9.1125C13.1853 9.1125 13.4875 8.81029 13.4875 8.4375C13.4875 8.06471 13.1853 7.7625 12.8125 7.7625C12.4397 7.7625 12.1375 8.06471 12.1375 8.4375C12.1375 8.81029 12.4397 9.1125 12.8125 9.1125Z" fill="#4D69FF" stroke="#4D69FF" stroke-width="0.1"/>
<path d="M16.25 11.3C16.6228 11.3 16.925 10.9978 16.925 10.625C16.925 10.2522 16.6228 9.95 16.25 9.95C15.8772 9.95 15.575 10.2522 15.575 10.625C15.575 10.9978 15.8772 11.3 16.25 11.3Z" fill="#4D69FF" stroke="#4D69FF" stroke-width="0.1"/>
<path d="M7.8125 5.3625C8.18529 5.3625 8.4875 5.06029 8.4875 4.6875C8.4875 4.31471 8.18529 4.0125 7.8125 4.0125C7.43971 4.0125 7.1375 4.31471 7.1375 4.6875C7.1375 5.06029 7.43971 5.3625 7.8125 5.3625Z" fill="#4D69FF" stroke="#4D69FF" stroke-width="0.1"/>
</svg>
