<svg width="20" height="22" viewBox="0 0 20 22" fill="none" xmlns="http://www.w3.org/2000/svg">
<mask id="path-1-outside-1_604_13666" maskUnits="userSpaceOnUse" x="0.671265" y="-0.00012207" width="18" height="22" fill="black">
<rect fill="white" x="0.671265" y="-0.00012207" width="18" height="22"/>
<path d="M17.4375 9.56249C18.0375 6.57499 14.5833 4.80832 13.0625 5.89166C13.1833 5.47499 13.15 5.58332 14.425 2.77082C14.5123 2.5803 14.5503 2.37087 14.5356 2.16181C14.5208 1.95275 14.4537 1.75076 14.3404 1.57442C14.2271 1.39808 14.0713 1.25305 13.8873 1.15267C13.7033 1.0523 13.4971 0.999793 13.2875 0.99999H11.9542C11.6552 0.995979 11.3646 1.09929 11.1353 1.29117C10.9059 1.48306 10.753 1.7508 10.7042 2.04582L10.5417 3.02916C10.5188 3.16069 10.4503 3.27995 10.3482 3.36591C10.246 3.45187 10.1168 3.499 9.98333 3.499C9.84982 3.499 9.72061 3.45187 9.61847 3.36591C9.51632 3.27995 9.4478 3.16069 9.42499 3.02916L9.26249 2.04582C9.21368 1.7508 9.06072 1.48306 8.83137 1.29117C8.60203 1.09929 8.31149 0.995979 8.01249 0.99999H6.67916C6.47012 1.00011 6.26445 1.05265 6.08097 1.15281C5.89749 1.25297 5.74206 1.39754 5.62889 1.57329C5.51573 1.74905 5.44845 1.95038 5.43321 2.15886C5.41797 2.36734 5.45526 2.57631 5.54166 2.76666C6.82499 5.59999 6.79166 5.49582 6.90832 5.89166C5.41666 4.80832 1.95832 6.55416 2.56249 9.56249C1.98965 10.1791 1.67126 10.9896 1.67126 11.8312C1.67126 12.6729 1.98965 13.4834 2.56249 14.1C2.02082 16.775 4.73333 18.825 7.23333 17.85C7.28044 17.9419 7.33926 18.0273 7.40833 18.1042C6.99166 18.5583 7.08332 18.9917 7.08332 19.7708C7.08332 20.1023 7.21502 20.4203 7.44944 20.6547C7.68386 20.8891 8.0018 21.0208 8.33332 21.0208H11.6667C11.9982 21.0208 12.3161 20.8891 12.5505 20.6547C12.785 20.4203 12.9167 20.1023 12.9167 19.7708C12.9167 18.975 12.9958 18.55 12.5917 18.1042C12.662 18.0284 12.721 17.9428 12.7667 17.85C15.2667 18.8458 17.975 16.7875 17.4375 14.125C18.0175 13.507 18.3404 12.6913 18.3404 11.8437C18.3404 10.9962 18.0175 10.1805 17.4375 9.56249ZM6.33332 2.42082C6.30483 2.35744 6.29264 2.28793 6.29787 2.21863C6.30311 2.14933 6.32559 2.08244 6.36327 2.02405C6.40096 1.96565 6.45265 1.91762 6.51364 1.88431C6.57464 1.85099 6.64299 1.83347 6.71249 1.83332H8.04582C8.14509 1.83188 8.24161 1.86593 8.31799 1.92933C8.39438 1.99273 8.44562 2.08133 8.46249 2.17916L8.62499 3.16249C8.68173 3.48821 8.85159 3.78345 9.10464 3.99623C9.35769 4.20901 9.67771 4.32567 10.0083 4.32567C10.3389 4.32567 10.659 4.20901 10.912 3.99623C11.1651 3.78345 11.3349 3.48821 11.3917 3.16249L11.5542 2.17916C11.571 2.08133 11.6223 1.99273 11.6987 1.92933C11.775 1.86593 11.8716 1.83188 11.9708 1.83332H13.3042C13.3742 1.83315 13.4432 1.85064 13.5047 1.88417C13.5662 1.9177 13.6182 1.9662 13.656 2.02517C13.6938 2.08415 13.7161 2.1517 13.7209 2.22158C13.7257 2.29146 13.7127 2.36142 13.6833 2.42499C12.5 5.02499 12.0833 5.63332 12.0833 6.90416C12.0833 7.27499 12.1042 7.18332 12.025 7.32082C11.7583 7.23749 11.9333 7.26249 8.33332 7.26249C7.89582 7.26249 8.03333 7.41249 7.91666 7.22499C7.91666 5.65832 7.79999 5.65832 6.33332 2.42082ZM11.5417 8.08332C11.2292 8.58332 11.0833 8.91666 10.5583 8.91666C8.91666 8.91666 9.04583 9.02499 8.47499 8.08332H11.5417ZM11.6667 17.6667C7.98333 17.6667 8.15833 17.7333 7.98749 17.4708C10.0042 16.4625 10.4417 16.6875 12.0125 17.4708C11.9757 17.5297 11.9248 17.5784 11.8644 17.6126C11.804 17.6468 11.7361 17.6654 11.6667 17.6667ZM12.0833 19.75C12.0833 19.8605 12.0394 19.9665 11.9613 20.0446C11.8831 20.1228 11.7772 20.1667 11.6667 20.1667H8.33332C8.22282 20.1667 8.11684 20.1228 8.0387 20.0446C7.96056 19.9665 7.91666 19.8605 7.91666 19.75V18.9167C7.91666 18.8062 7.96056 18.7002 8.0387 18.622C8.11684 18.5439 8.22282 18.5 8.33332 18.5H11.6667C11.7772 18.5 11.8831 18.5439 11.9613 18.622C12.0394 18.7002 12.0833 18.8062 12.0833 18.9167V19.75ZM16.6958 13.6625C16.3375 13.9875 16.8833 14.35 16.5625 15.4708C16.1458 16.9542 14.325 17.6958 12.8625 16.9667C11.6667 16.3667 11.0875 16 9.99999 16C8.91249 16 8.27916 16.4167 7.12916 16.9917C6.79258 17.1643 6.42272 17.2623 6.04481 17.279C5.66689 17.2956 5.28984 17.2305 4.93939 17.0881C4.58893 16.9457 4.27334 16.7294 4.01414 16.4539C3.75494 16.1783 3.55825 15.8501 3.43749 15.4917C3.11249 14.3667 3.67499 14.0208 3.30416 13.6833C3.05306 13.4494 2.85281 13.1663 2.71589 12.8516C2.57897 12.5369 2.50831 12.1973 2.50831 11.8542C2.50831 11.511 2.57897 11.1715 2.71589 10.8568C2.85281 10.5421 3.05306 10.2589 3.30416 10.025C3.65416 9.70832 3.18332 9.44999 3.38332 8.44166C3.50759 7.85293 3.83571 7.32696 4.30985 6.9565C4.78398 6.58603 5.37368 6.39485 5.97499 6.41666C6.11591 6.41708 6.25441 6.45323 6.37756 6.52173C6.50071 6.59022 6.60447 6.68883 6.67916 6.80832C8.59583 9.87082 8.18749 9.74999 10.5583 9.74999C10.8409 9.74985 11.1187 9.67789 11.3658 9.54086C11.6129 9.40384 11.8211 9.20625 11.9708 8.96666L13.3333 6.80832C13.8625 5.97499 16.25 6.53332 16.6292 8.42082C16.825 9.40832 16.3625 9.69166 16.7083 10.0042C16.9586 10.239 17.1579 10.5228 17.2938 10.8379C17.4296 11.1531 17.4991 11.4929 17.4979 11.836C17.4968 12.1792 17.4249 12.5185 17.2869 12.8327C17.1489 13.147 16.9477 13.4294 16.6958 13.6625Z"/>
</mask>
<path d="M17.4375 9.56249C18.0375 6.57499 14.5833 4.80832 13.0625 5.89166C13.1833 5.47499 13.15 5.58332 14.425 2.77082C14.5123 2.5803 14.5503 2.37087 14.5356 2.16181C14.5208 1.95275 14.4537 1.75076 14.3404 1.57442C14.2271 1.39808 14.0713 1.25305 13.8873 1.15267C13.7033 1.0523 13.4971 0.999793 13.2875 0.99999H11.9542C11.6552 0.995979 11.3646 1.09929 11.1353 1.29117C10.9059 1.48306 10.753 1.7508 10.7042 2.04582L10.5417 3.02916C10.5188 3.16069 10.4503 3.27995 10.3482 3.36591C10.246 3.45187 10.1168 3.499 9.98333 3.499C9.84982 3.499 9.72061 3.45187 9.61847 3.36591C9.51632 3.27995 9.4478 3.16069 9.42499 3.02916L9.26249 2.04582C9.21368 1.7508 9.06072 1.48306 8.83137 1.29117C8.60203 1.09929 8.31149 0.995979 8.01249 0.99999H6.67916C6.47012 1.00011 6.26445 1.05265 6.08097 1.15281C5.89749 1.25297 5.74206 1.39754 5.62889 1.57329C5.51573 1.74905 5.44845 1.95038 5.43321 2.15886C5.41797 2.36734 5.45526 2.57631 5.54166 2.76666C6.82499 5.59999 6.79166 5.49582 6.90832 5.89166C5.41666 4.80832 1.95832 6.55416 2.56249 9.56249C1.98965 10.1791 1.67126 10.9896 1.67126 11.8312C1.67126 12.6729 1.98965 13.4834 2.56249 14.1C2.02082 16.775 4.73333 18.825 7.23333 17.85C7.28044 17.9419 7.33926 18.0273 7.40833 18.1042C6.99166 18.5583 7.08332 18.9917 7.08332 19.7708C7.08332 20.1023 7.21502 20.4203 7.44944 20.6547C7.68386 20.8891 8.0018 21.0208 8.33332 21.0208H11.6667C11.9982 21.0208 12.3161 20.8891 12.5505 20.6547C12.785 20.4203 12.9167 20.1023 12.9167 19.7708C12.9167 18.975 12.9958 18.55 12.5917 18.1042C12.662 18.0284 12.721 17.9428 12.7667 17.85C15.2667 18.8458 17.975 16.7875 17.4375 14.125C18.0175 13.507 18.3404 12.6913 18.3404 11.8437C18.3404 10.9962 18.0175 10.1805 17.4375 9.56249ZM6.33332 2.42082C6.30483 2.35744 6.29264 2.28793 6.29787 2.21863C6.30311 2.14933 6.32559 2.08244 6.36327 2.02405C6.40096 1.96565 6.45265 1.91762 6.51364 1.88431C6.57464 1.85099 6.64299 1.83347 6.71249 1.83332H8.04582C8.14509 1.83188 8.24161 1.86593 8.31799 1.92933C8.39438 1.99273 8.44562 2.08133 8.46249 2.17916L8.62499 3.16249C8.68173 3.48821 8.85159 3.78345 9.10464 3.99623C9.35769 4.20901 9.67771 4.32567 10.0083 4.32567C10.3389 4.32567 10.659 4.20901 10.912 3.99623C11.1651 3.78345 11.3349 3.48821 11.3917 3.16249L11.5542 2.17916C11.571 2.08133 11.6223 1.99273 11.6987 1.92933C11.775 1.86593 11.8716 1.83188 11.9708 1.83332H13.3042C13.3742 1.83315 13.4432 1.85064 13.5047 1.88417C13.5662 1.9177 13.6182 1.9662 13.656 2.02517C13.6938 2.08415 13.7161 2.1517 13.7209 2.22158C13.7257 2.29146 13.7127 2.36142 13.6833 2.42499C12.5 5.02499 12.0833 5.63332 12.0833 6.90416C12.0833 7.27499 12.1042 7.18332 12.025 7.32082C11.7583 7.23749 11.9333 7.26249 8.33332 7.26249C7.89582 7.26249 8.03333 7.41249 7.91666 7.22499C7.91666 5.65832 7.79999 5.65832 6.33332 2.42082ZM11.5417 8.08332C11.2292 8.58332 11.0833 8.91666 10.5583 8.91666C8.91666 8.91666 9.04583 9.02499 8.47499 8.08332H11.5417ZM11.6667 17.6667C7.98333 17.6667 8.15833 17.7333 7.98749 17.4708C10.0042 16.4625 10.4417 16.6875 12.0125 17.4708C11.9757 17.5297 11.9248 17.5784 11.8644 17.6126C11.804 17.6468 11.7361 17.6654 11.6667 17.6667ZM12.0833 19.75C12.0833 19.8605 12.0394 19.9665 11.9613 20.0446C11.8831 20.1228 11.7772 20.1667 11.6667 20.1667H8.33332C8.22282 20.1667 8.11684 20.1228 8.0387 20.0446C7.96056 19.9665 7.91666 19.8605 7.91666 19.75V18.9167C7.91666 18.8062 7.96056 18.7002 8.0387 18.622C8.11684 18.5439 8.22282 18.5 8.33332 18.5H11.6667C11.7772 18.5 11.8831 18.5439 11.9613 18.622C12.0394 18.7002 12.0833 18.8062 12.0833 18.9167V19.75ZM16.6958 13.6625C16.3375 13.9875 16.8833 14.35 16.5625 15.4708C16.1458 16.9542 14.325 17.6958 12.8625 16.9667C11.6667 16.3667 11.0875 16 9.99999 16C8.91249 16 8.27916 16.4167 7.12916 16.9917C6.79258 17.1643 6.42272 17.2623 6.04481 17.279C5.66689 17.2956 5.28984 17.2305 4.93939 17.0881C4.58893 16.9457 4.27334 16.7294 4.01414 16.4539C3.75494 16.1783 3.55825 15.8501 3.43749 15.4917C3.11249 14.3667 3.67499 14.0208 3.30416 13.6833C3.05306 13.4494 2.85281 13.1663 2.71589 12.8516C2.57897 12.5369 2.50831 12.1973 2.50831 11.8542C2.50831 11.511 2.57897 11.1715 2.71589 10.8568C2.85281 10.5421 3.05306 10.2589 3.30416 10.025C3.65416 9.70832 3.18332 9.44999 3.38332 8.44166C3.50759 7.85293 3.83571 7.32696 4.30985 6.9565C4.78398 6.58603 5.37368 6.39485 5.97499 6.41666C6.11591 6.41708 6.25441 6.45323 6.37756 6.52173C6.50071 6.59022 6.60447 6.68883 6.67916 6.80832C8.59583 9.87082 8.18749 9.74999 10.5583 9.74999C10.8409 9.74985 11.1187 9.67789 11.3658 9.54086C11.6129 9.40384 11.8211 9.20625 11.9708 8.96666L13.3333 6.80832C13.8625 5.97499 16.25 6.53332 16.6292 8.42082C16.825 9.40832 16.3625 9.69166 16.7083 10.0042C16.9586 10.239 17.1579 10.5228 17.2938 10.8379C17.4296 11.1531 17.4991 11.4929 17.4979 11.836C17.4968 12.1792 17.4249 12.5185 17.2869 12.8327C17.1489 13.147 16.9477 13.4294 16.6958 13.6625Z" fill="#4D69FF"/>
<path d="M17.4375 9.56249C18.0375 6.57499 14.5833 4.80832 13.0625 5.89166C13.1833 5.47499 13.15 5.58332 14.425 2.77082C14.5123 2.5803 14.5503 2.37087 14.5356 2.16181C14.5208 1.95275 14.4537 1.75076 14.3404 1.57442C14.2271 1.39808 14.0713 1.25305 13.8873 1.15267C13.7033 1.0523 13.4971 0.999793 13.2875 0.99999H11.9542C11.6552 0.995979 11.3646 1.09929 11.1353 1.29117C10.9059 1.48306 10.753 1.7508 10.7042 2.04582L10.5417 3.02916C10.5188 3.16069 10.4503 3.27995 10.3482 3.36591C10.246 3.45187 10.1168 3.499 9.98333 3.499C9.84982 3.499 9.72061 3.45187 9.61847 3.36591C9.51632 3.27995 9.4478 3.16069 9.42499 3.02916L9.26249 2.04582C9.21368 1.7508 9.06072 1.48306 8.83137 1.29117C8.60203 1.09929 8.31149 0.995979 8.01249 0.99999H6.67916C6.47012 1.00011 6.26445 1.05265 6.08097 1.15281C5.89749 1.25297 5.74206 1.39754 5.62889 1.57329C5.51573 1.74905 5.44845 1.95038 5.43321 2.15886C5.41797 2.36734 5.45526 2.57631 5.54166 2.76666C6.82499 5.59999 6.79166 5.49582 6.90832 5.89166C5.41666 4.80832 1.95832 6.55416 2.56249 9.56249C1.98965 10.1791 1.67126 10.9896 1.67126 11.8312C1.67126 12.6729 1.98965 13.4834 2.56249 14.1C2.02082 16.775 4.73333 18.825 7.23333 17.85C7.28044 17.9419 7.33926 18.0273 7.40833 18.1042C6.99166 18.5583 7.08332 18.9917 7.08332 19.7708C7.08332 20.1023 7.21502 20.4203 7.44944 20.6547C7.68386 20.8891 8.0018 21.0208 8.33332 21.0208H11.6667C11.9982 21.0208 12.3161 20.8891 12.5505 20.6547C12.785 20.4203 12.9167 20.1023 12.9167 19.7708C12.9167 18.975 12.9958 18.55 12.5917 18.1042C12.662 18.0284 12.721 17.9428 12.7667 17.85C15.2667 18.8458 17.975 16.7875 17.4375 14.125C18.0175 13.507 18.3404 12.6913 18.3404 11.8437C18.3404 10.9962 18.0175 10.1805 17.4375 9.56249ZM6.33332 2.42082C6.30483 2.35744 6.29264 2.28793 6.29787 2.21863C6.30311 2.14933 6.32559 2.08244 6.36327 2.02405C6.40096 1.96565 6.45265 1.91762 6.51364 1.88431C6.57464 1.85099 6.64299 1.83347 6.71249 1.83332H8.04582C8.14509 1.83188 8.24161 1.86593 8.31799 1.92933C8.39438 1.99273 8.44562 2.08133 8.46249 2.17916L8.62499 3.16249C8.68173 3.48821 8.85159 3.78345 9.10464 3.99623C9.35769 4.20901 9.67771 4.32567 10.0083 4.32567C10.3389 4.32567 10.659 4.20901 10.912 3.99623C11.1651 3.78345 11.3349 3.48821 11.3917 3.16249L11.5542 2.17916C11.571 2.08133 11.6223 1.99273 11.6987 1.92933C11.775 1.86593 11.8716 1.83188 11.9708 1.83332H13.3042C13.3742 1.83315 13.4432 1.85064 13.5047 1.88417C13.5662 1.9177 13.6182 1.9662 13.656 2.02517C13.6938 2.08415 13.7161 2.1517 13.7209 2.22158C13.7257 2.29146 13.7127 2.36142 13.6833 2.42499C12.5 5.02499 12.0833 5.63332 12.0833 6.90416C12.0833 7.27499 12.1042 7.18332 12.025 7.32082C11.7583 7.23749 11.9333 7.26249 8.33332 7.26249C7.89582 7.26249 8.03333 7.41249 7.91666 7.22499C7.91666 5.65832 7.79999 5.65832 6.33332 2.42082ZM11.5417 8.08332C11.2292 8.58332 11.0833 8.91666 10.5583 8.91666C8.91666 8.91666 9.04583 9.02499 8.47499 8.08332H11.5417ZM11.6667 17.6667C7.98333 17.6667 8.15833 17.7333 7.98749 17.4708C10.0042 16.4625 10.4417 16.6875 12.0125 17.4708C11.9757 17.5297 11.9248 17.5784 11.8644 17.6126C11.804 17.6468 11.7361 17.6654 11.6667 17.6667ZM12.0833 19.75C12.0833 19.8605 12.0394 19.9665 11.9613 20.0446C11.8831 20.1228 11.7772 20.1667 11.6667 20.1667H8.33332C8.22282 20.1667 8.11684 20.1228 8.0387 20.0446C7.96056 19.9665 7.91666 19.8605 7.91666 19.75V18.9167C7.91666 18.8062 7.96056 18.7002 8.0387 18.622C8.11684 18.5439 8.22282 18.5 8.33332 18.5H11.6667C11.7772 18.5 11.8831 18.5439 11.9613 18.622C12.0394 18.7002 12.0833 18.8062 12.0833 18.9167V19.75ZM16.6958 13.6625C16.3375 13.9875 16.8833 14.35 16.5625 15.4708C16.1458 16.9542 14.325 17.6958 12.8625 16.9667C11.6667 16.3667 11.0875 16 9.99999 16C8.91249 16 8.27916 16.4167 7.12916 16.9917C6.79258 17.1643 6.42272 17.2623 6.04481 17.279C5.66689 17.2956 5.28984 17.2305 4.93939 17.0881C4.58893 16.9457 4.27334 16.7294 4.01414 16.4539C3.75494 16.1783 3.55825 15.8501 3.43749 15.4917C3.11249 14.3667 3.67499 14.0208 3.30416 13.6833C3.05306 13.4494 2.85281 13.1663 2.71589 12.8516C2.57897 12.5369 2.50831 12.1973 2.50831 11.8542C2.50831 11.511 2.57897 11.1715 2.71589 10.8568C2.85281 10.5421 3.05306 10.2589 3.30416 10.025C3.65416 9.70832 3.18332 9.44999 3.38332 8.44166C3.50759 7.85293 3.83571 7.32696 4.30985 6.9565C4.78398 6.58603 5.37368 6.39485 5.97499 6.41666C6.11591 6.41708 6.25441 6.45323 6.37756 6.52173C6.50071 6.59022 6.60447 6.68883 6.67916 6.80832C8.59583 9.87082 8.18749 9.74999 10.5583 9.74999C10.8409 9.74985 11.1187 9.67789 11.3658 9.54086C11.6129 9.40384 11.8211 9.20625 11.9708 8.96666L13.3333 6.80832C13.8625 5.97499 16.25 6.53332 16.6292 8.42082C16.825 9.40832 16.3625 9.69166 16.7083 10.0042C16.9586 10.239 17.1579 10.5228 17.2938 10.8379C17.4296 11.1531 17.4991 11.4929 17.4979 11.836C17.4968 12.1792 17.4249 12.5185 17.2869 12.8327C17.1489 13.147 16.9477 13.4294 16.6958 13.6625Z" stroke="#4D69FF" stroke-width="0.4" mask="url(#path-1-outside-1_604_13666)"/>
<path d="M8.52888 12.595L8.52855 12.5952L8.53538 12.6017C8.9309 12.9766 9.45508 13.1855 10 13.1855C10.5449 13.1855 11.0691 12.9766 11.4646 12.6017L11.4649 12.602L11.4711 12.595C11.5615 12.4916 11.6071 12.3565 11.5979 12.2195C11.5887 12.0824 11.5255 11.9547 11.4221 11.8643C11.3187 11.7739 11.1836 11.7283 11.0466 11.7375C10.9126 11.7465 10.7875 11.8071 10.6975 11.9065C10.4996 12.0648 10.2536 12.1511 10 12.1511C9.7464 12.1511 9.50043 12.0648 9.30251 11.9065C9.21252 11.8071 9.08741 11.7465 8.95344 11.7375C8.81641 11.7283 8.68134 11.7739 8.57794 11.8643C8.47454 11.9547 8.41128 12.0824 8.40208 12.2195C8.39288 12.3565 8.43849 12.4916 8.52888 12.595Z" fill="#4D69FF" stroke="#4D69FF" stroke-width="0.2"/>
<path d="M12.2766 10.9215L12.276 10.922L12.2852 10.9308C12.6803 11.3067 13.2047 11.5163 13.75 11.5163C14.2953 11.5163 14.8197 11.3067 15.2148 10.9308L15.2153 10.9314L15.2234 10.9215C15.3082 10.8174 15.3491 10.6844 15.3376 10.5506C15.326 10.4169 15.2628 10.2929 15.1614 10.2049C15.06 10.1169 14.9283 10.0718 14.7942 10.0793C14.6627 10.0866 14.5391 10.1438 14.4485 10.239C14.2504 10.3979 14.004 10.4845 13.75 10.4845C13.496 10.4845 13.2496 10.3979 13.0515 10.239C12.9609 10.1438 12.8373 10.0866 12.7058 10.0793C12.5717 10.0718 12.44 10.1169 12.3386 10.2049C12.2372 10.2929 12.174 10.4169 12.1624 10.5506C12.1509 10.6844 12.1918 10.8174 12.2766 10.9215Z" fill="#4D69FF" stroke="#4D69FF" stroke-width="0.2"/>
<path d="M12.2766 14.6715L12.276 14.672L12.2852 14.6808C12.6803 15.0567 13.2047 15.2663 13.75 15.2663C14.2953 15.2663 14.8197 15.0567 15.2148 14.6808L15.2153 14.6814L15.2234 14.6715C15.3082 14.5674 15.3491 14.4344 15.3376 14.3006C15.326 14.1669 15.2628 14.0429 15.1614 13.9549C15.06 13.8669 14.9283 13.8218 14.7942 13.8293C14.6627 13.8366 14.5391 13.8938 14.4485 13.989C14.2504 14.1479 14.004 14.2345 13.75 14.2345C13.496 14.2345 13.2496 14.1479 13.0515 13.989C12.9609 13.8938 12.8373 13.8366 12.7058 13.8293C12.5717 13.8218 12.44 13.8669 12.3386 13.9549C12.2372 14.0429 12.174 14.1669 12.1624 14.3006C12.1509 14.4344 12.1918 14.5674 12.2766 14.6715Z" fill="#4D69FF" stroke="#4D69FF" stroke-width="0.2"/>
<path d="M4.77888 10.9283L4.77854 10.9286L4.78548 10.9352C5.18077 11.3088 5.70404 11.5169 6.24792 11.5169C6.7918 11.5169 7.31507 11.3088 7.71036 10.9352L7.71099 10.9359L7.71955 10.9252C7.80306 10.8216 7.84332 10.6896 7.83195 10.557C7.82057 10.4244 7.75844 10.3012 7.6585 10.2133C7.55855 10.1253 7.42852 10.0794 7.29551 10.0849C7.16471 10.0904 7.04097 10.1454 6.94919 10.2385C6.75098 10.3976 6.50433 10.4845 6.25 10.4845C5.9964 10.4845 5.75043 10.3981 5.55251 10.2398C5.50895 10.1917 5.45672 10.1523 5.39852 10.1234C5.33758 10.0933 5.27129 10.0754 5.20344 10.0708C5.13559 10.0663 5.06751 10.0751 5.00308 10.0969C4.93865 10.1187 4.87914 10.1529 4.82794 10.1976C4.77674 10.2424 4.73486 10.2968 4.70468 10.3577C4.67451 10.4187 4.65663 10.485 4.65208 10.5528C4.64752 10.6207 4.65638 10.6888 4.67813 10.7532C4.69989 10.8176 4.73412 10.8771 4.77888 10.9283Z" fill="#4D69FF" stroke="#4D69FF" stroke-width="0.2"/>
<path d="M4.77888 14.6783L4.77854 14.6786L4.78548 14.6852C5.18077 15.0588 5.70404 15.2669 6.24792 15.2669C6.7918 15.2669 7.31507 15.0588 7.71036 14.6852L7.71099 14.6859L7.71955 14.6752C7.80306 14.5716 7.84332 14.4396 7.83195 14.307C7.82057 14.1744 7.75844 14.0512 7.6585 13.9633C7.55855 13.8753 7.42852 13.8294 7.29551 13.8349C7.16472 13.8404 7.04097 13.8954 6.9492 13.9885C6.75098 14.1476 6.50433 14.2345 6.25 14.2345C5.9964 14.2345 5.75043 14.1481 5.55251 13.9898C5.50895 13.9417 5.45672 13.9023 5.39852 13.8734C5.33758 13.8433 5.27129 13.8254 5.20344 13.8208C5.13559 13.8163 5.06751 13.8251 5.00308 13.8469C4.93865 13.8687 4.87914 13.9029 4.82794 13.9476C4.77674 13.9924 4.73486 14.0468 4.70468 14.1077C4.67451 14.1687 4.65663 14.235 4.65208 14.3028C4.64288 14.4399 4.68849 14.5749 4.77888 14.6783Z" fill="#4D69FF" stroke="#4D69FF" stroke-width="0.2"/>
</svg>
