<svg width="20" height="20" viewBox="0 0 20 20" fill="none" xmlns="http://www.w3.org/2000/svg">
<path d="M19.4746 16.6896C19.4746 14.725 17.503 13.3541 15.6623 14.0479L14.0407 11.5436C15.3246 10.1061 15.3749 7.95849 14.1692 6.46416L15.666 4.79674C17.1622 5.52458 18.9202 4.42819 18.9202 2.756C18.9202 1.50556 17.9031 0.488452 16.6527 0.488452C14.8458 0.488452 13.7725 2.50592 14.7574 3.99937L13.2756 5.65005C11.3611 4.38004 8.73411 5.01894 7.6349 7.09046L6.16812 6.74825C6.18938 5.16943 4.91126 3.8887 3.34738 3.8887C1.7913 3.8887 0.525439 5.15456 0.525439 6.71064C0.525439 8.26672 1.7913 9.53258 3.34738 9.53258C4.4689 9.53258 5.43873 8.8748 5.89341 7.92537L7.23886 8.23928C7.00685 9.54398 7.44419 10.8757 8.419 11.7918L6.89075 14.0269C5.42767 13.5233 3.88873 14.6153 3.88873 16.1722C3.88873 17.4226 4.90583 18.4397 6.15628 18.4397C8.08902 18.4397 9.12478 16.1703 7.88775 14.7105L9.41595 12.4751C10.561 13.0235 11.9479 12.9964 13.1007 12.3159L14.6482 14.7059C12.8938 16.4745 14.1473 19.5116 16.6527 19.5116C18.2088 19.5116 19.4746 18.2457 19.4746 16.6896ZM3.34738 8.3238C2.45794 8.3238 1.73422 7.60007 1.73422 6.71064C1.73422 5.8212 2.45794 5.09747 3.34738 5.09747C4.23682 5.09747 4.96054 5.8212 4.96054 6.71064C4.96054 7.60007 4.23682 8.3238 3.34738 8.3238ZM6.15628 17.231C5.57248 17.231 5.0975 16.756 5.0975 16.1722C5.0975 15.5884 5.57248 15.1134 6.15628 15.1134C6.74008 15.1134 7.21505 15.5884 7.21505 16.1722C7.21505 16.756 6.74008 17.231 6.15628 17.231ZM16.6527 1.69723C17.2365 1.69723 17.7115 2.1722 17.7115 2.756C17.7115 3.3398 17.2365 3.81478 16.6527 3.81478C16.0689 3.81478 15.5939 3.3398 15.5939 2.756C15.5939 2.1722 16.0689 1.69723 16.6527 1.69723ZM8.38687 8.92819C8.38687 7.42734 9.60796 6.20625 11.1088 6.20625C12.6097 6.20625 13.8308 7.42734 13.8308 8.92819C13.8308 10.429 12.6097 11.6501 11.1088 11.6501C9.60796 11.6501 8.38687 10.429 8.38687 8.92819ZM16.6527 18.3028C15.7633 18.3028 15.0395 17.5791 15.0395 16.6896C15.0395 15.8002 15.7633 15.0765 16.6527 15.0765C17.5421 15.0765 18.2659 15.8002 18.2659 16.6896C18.2659 17.5791 17.5421 18.3028 16.6527 18.3028Z" fill="#4D69FF" stroke="#4D69FF" stroke-width="0.1"/>
</svg>
