<svg width="20" height="20" viewBox="0 0 20 20" fill="none" xmlns="http://www.w3.org/2000/svg">
<path d="M5.79904 3.06109L5.80875 3.05337C6.14822 2.78342 6.60541 2.68655 7.22034 2.68655C7.61382 2.68655 8.01679 2.72636 8.32418 2.7665C8.47825 2.78662 8.6091 2.80694 8.70375 2.82262C8.7511 2.83046 8.7894 2.83714 8.81702 2.84207L8.85011 2.84803L8.85999 2.84983L8.86296 2.85037C8.86365 2.85049 8.86395 2.85054 8.864 2.85055L8.864 2.85055L8.86785 2.85121L8.86784 2.85126C8.95287 2.86808 9.03162 2.90685 9.09674 2.96284L9.09728 2.96331C10.2564 3.96973 10.1232 5.2183 10.1131 5.29502M5.79904 3.06109L9.96436 5.27564M5.79904 3.06109L5.79073 3.07031C5.68434 3.18826 4.40041 4.61704 3.0841 6.5581C1.77164 8.49348 0.40984 10.9625 0.173282 13.1571M5.79904 3.06109L0.321291 13.5667M10.1131 5.29502C10.1131 5.29525 10.113 5.29546 10.113 5.29566L9.96436 5.27564M10.1131 5.29502C10.1131 5.29479 10.1132 5.29456 10.1132 5.29432L9.96436 5.27564M10.1131 5.29502C10.0986 5.40894 10.0457 5.51486 9.96037 5.59435M9.96436 5.27564C9.9543 5.3558 9.91726 5.42955 9.858 5.48472M9.96037 5.59435L9.858 5.48472M9.96037 5.59435C9.96032 5.5944 9.96026 5.59445 9.96021 5.5945M9.96037 5.59435L9.96021 5.5945M9.858 5.48472L9.96021 5.5945M9.858 5.48472L9.96021 5.5945M0.321291 13.5667L0.3208 13.5662C0.211851 13.4601 0.156898 13.3082 0.173282 13.1571M0.321291 13.5667C0.459672 13.7002 3.66653 16.7556 8.32227 17.1574C9.50445 17.26 10.6009 17.3128 11.5822 17.3128H11.5836C14.3415 17.3128 16.3575 16.9257 17.7087 16.0612C19.0728 15.1885 19.7383 13.8435 19.8256 11.9916L0.321291 13.5667ZM0.173282 13.1571L0.322408 13.1733M0.173282 13.1571C0.173278 13.1571 0.173275 13.1572 0.173272 13.1572L0.322408 13.1733M0.322408 13.1733C0.31102 13.2783 0.349385 13.3847 0.425451 13.4587L0.322408 13.1733ZM5.42902 11.3489L5.54993 11.4377C6.20287 10.5484 7.33081 10.0094 8.57361 10.0094C10.0453 10.0094 11.373 10.7968 11.8946 11.9421C11.9899 12.1519 12.2093 12.2575 12.4295 12.225L12.4295 12.2251L12.4345 12.2242C12.6572 12.1834 12.8232 11.9968 12.8386 11.7703L12.8386 11.7701C12.9433 10.1976 14.258 8.96516 15.833 8.96516C16.6721 8.96516 17.4851 9.31235 18.0625 9.9174C18.5989 10.4797 18.8736 11.1993 18.8379 11.945L18.8379 11.9451C18.7835 13.1015 18.5181 14.1789 17.5202 14.9761C16.5132 15.7806 14.7323 16.3232 11.5834 16.323C10.6327 16.323 9.56462 16.272 8.40799 16.172L8.40794 16.1719C4.70661 15.8528 1.91268 13.6411 1.18873 13.0145C1.48576 11.0365 2.78262 8.75235 4.0293 6.93871C4.65883 6.0229 5.27138 5.23292 5.72693 4.67099C5.95466 4.39009 6.14304 4.1663 6.27457 4.01241C6.34032 3.93548 6.39189 3.87598 6.42712 3.83549L6.46768 3.7889L6.47047 3.78567C6.47614 3.78227 6.48476 3.77754 6.49696 3.77195C6.52162 3.76064 6.56044 3.74597 6.61817 3.73147C6.73396 3.70237 6.92278 3.67468 7.21967 3.67468C7.73163 3.67468 8.29245 3.75602 8.54426 3.79792C9.02061 4.26084 9.11555 4.76231 9.13119 5.01375L8.44636 5.65324H6.74503C6.56954 5.65324 6.40726 5.7459 6.31833 5.89673C4.77072 8.51959 4.5551 10.2174 4.65968 11.1974C4.68039 11.4024 4.82718 11.5688 5.02075 11.6233L5.02074 11.6233L5.02376 11.6241C5.21856 11.6746 5.42965 11.6046 5.55073 11.4366L5.42902 11.3489ZM5.42902 11.3489C5.34555 11.4648 5.19872 11.5145 5.0614 11.4789L12.0312 11.88C11.4812 10.6723 10.0937 9.85941 8.57361 9.85941C7.28911 9.85941 6.11362 10.4165 5.42902 11.3489ZM5.54062 10.0405C5.52834 10.1167 5.51813 10.1898 5.50973 10.2599C5.5651 10.2127 5.62177 10.1668 5.67968 10.1224C5.68996 10.054 5.70198 9.98294 5.71596 9.90906C5.65636 9.95151 5.5979 9.99534 5.54062 10.0405ZM12.0609 10.6694C12.0996 10.7137 12.1373 10.7588 12.1739 10.8047C12.1919 10.7486 12.211 10.693 12.2314 10.638C12.1951 10.5946 12.1579 10.552 12.1198 10.5101C12.099 10.5626 12.0794 10.6157 12.0609 10.6694ZM6.94371 6.64315H7.03056C7.04478 6.61825 7.05913 6.59324 7.07362 6.56813L6.94371 6.49315V6.64315ZM8.98013 6.50958L8.98029 6.50944C8.98042 6.50932 8.98054 6.5092 8.98067 6.50908L8.87776 6.39994L8.98013 6.50958Z" fill="#4D69FF" stroke="#4D69FF" stroke-width="0.3"/>
</svg>
