<svg width="20" height="20" viewBox="0 0 20 20" fill="none" xmlns="http://www.w3.org/2000/svg">
<path d="M18.4144 10.1152V7.05658C19.0792 6.81584 19.5556 6.17828 19.5556 5.43144C19.5556 4.60309 18.9695 3.90929 18.1903 3.74219L16.1494 0.168518L15.1304 0.750454L16.9532 3.94214C16.663 4.11319 16.4269 4.36645 16.2772 4.66986L11.8217 3.13452C11.6215 2.19751 10.7874 1.49256 9.79152 1.49256C8.79968 1.49256 7.96851 2.19188 7.76394 3.12322L3.78645 4.37697C3.43251 3.99991 2.93021 3.76371 2.37347 3.76371C1.30441 3.76371 0.434672 4.63344 0.434672 5.7025C0.434672 6.77156 1.30441 7.64129 2.37347 7.64129C2.61601 7.64129 2.84807 7.59612 3.06226 7.51445L4.80916 9.60015C4.57902 10.0214 4.44799 10.5042 4.44799 11.0171C4.44799 11.3906 4.51808 11.7479 4.64469 12.0773L3.10212 13.5802C2.80036 13.4097 2.45232 13.3119 2.08168 13.3119C0.933843 13.3119 0 14.2457 0 15.3935C0 16.3695 0.6753 17.1904 1.58313 17.4144L2.03509 19.8314L3.18852 19.6158L2.76652 17.3589C3.57884 17.075 4.16332 16.3014 4.16332 15.3935C4.16332 15.0421 4.07547 14.711 3.92112 14.4205L5.29136 13.0855C5.81728 13.6249 6.54625 13.9647 7.35356 13.9807L8.97737 16.3294C8.69892 16.6828 8.53214 17.1281 8.53214 17.6118C8.53214 18.7567 9.46352 19.6881 10.6083 19.6881C11.7532 19.6881 12.6846 18.7567 12.6846 17.6118C12.6846 17.5471 12.6812 17.4831 12.6753 17.4198L17.2135 14.2897C17.4084 14.3472 17.6144 14.3787 17.8277 14.3787C19.0255 14.3787 20 13.4042 20 12.2063C20 11.2118 19.328 10.3719 18.4144 10.1152ZM2.08168 16.3018C1.58086 16.3018 1.17342 15.8943 1.17342 15.3935C1.17342 14.8928 1.58086 14.4853 2.08168 14.4853C2.58249 14.4853 2.9899 14.8927 2.9899 15.3935C2.9899 15.8944 2.58245 16.3018 2.08168 16.3018ZM15.8413 11.3285L10.333 10.5049C10.1391 9.3968 9.32861 8.49851 8.2689 8.17841L9.44181 5.61492C9.55559 5.63432 9.67231 5.64496 9.79148 5.64496C10.6638 5.64496 11.4117 5.10394 11.7185 4.34009L16.1561 5.86924C16.3005 6.4202 16.7108 6.86457 17.241 7.05658V10.1152C16.6143 10.2913 16.1017 10.7417 15.8413 11.3285ZM17.8277 5.98592C17.522 5.98592 17.2733 5.73719 17.2733 5.43148C17.2733 5.12577 17.522 4.87704 17.8277 4.87704C18.1334 4.87704 18.3821 5.12577 18.3821 5.43148C18.3821 5.73719 18.1334 5.98592 17.8277 5.98592ZM9.79152 2.66594C10.2893 2.66594 10.6943 3.07092 10.6943 3.56876C10.6943 4.0666 10.2894 4.47159 9.79152 4.47159C9.29368 4.47159 8.8887 4.0666 8.8887 3.56876C8.8887 3.07092 9.29372 2.66594 9.79152 2.66594ZM7.85805 4.32385C7.97449 4.62092 8.15711 4.88498 8.38824 5.09733L7.02434 8.07831C6.48281 8.14962 5.98712 8.36736 5.57806 8.69068L3.98155 6.78451C4.1903 6.47527 4.3123 6.10287 4.3123 5.7025C4.3123 5.61586 4.306 5.53067 4.29493 5.44701L7.85805 4.32385ZM1.60809 5.7025C1.60809 5.28046 1.95143 4.93712 2.37347 4.93712C2.79551 4.93712 3.13885 5.28046 3.13885 5.7025C3.13885 6.12454 2.79551 6.46788 2.37347 6.46788C1.95143 6.46788 1.60809 6.12454 1.60809 5.7025ZM5.6214 11.0171C5.6214 10.0292 6.42515 9.2254 7.41313 9.2254C8.40111 9.2254 9.20482 10.0292 9.20482 11.0171C9.20482 12.0051 8.40107 12.8088 7.41313 12.8088C6.42519 12.8088 5.6214 12.0051 5.6214 11.0171ZM10.6083 18.5146C10.1105 18.5146 9.70555 18.1096 9.70555 17.6118C9.70555 17.114 10.1105 16.709 10.6083 16.709C11.1061 16.709 11.5112 17.114 11.5112 17.6118C11.5112 18.1096 11.1061 18.5146 10.6083 18.5146ZM10.6083 15.5356C10.3721 15.5356 10.1452 15.5758 9.93339 15.6488L8.607 13.7303C9.45073 13.3576 10.0887 12.603 10.3011 11.6865L15.6745 12.49C15.729 12.9059 15.9011 13.2852 16.1569 13.593L12.2218 16.3072C11.8409 15.8369 11.2593 15.5356 10.6083 15.5356ZM17.8277 13.2052C17.2769 13.2052 16.8288 12.7571 16.8288 12.2063C16.8288 11.6555 17.2769 11.2074 17.8277 11.2074C18.3785 11.2074 18.8266 11.6555 18.8266 12.2063C18.8266 12.7572 18.3785 13.2052 17.8277 13.2052Z" fill="#4D69FF"/>
</svg>
