<svg width="18" height="20" viewBox="0 0 18 20" fill="none" xmlns="http://www.w3.org/2000/svg">
<path d="M15.2956 13.7714L15.2956 13.7714C14.9696 14.0981 14.6043 14.3631 14.2145 14.5679L14.6019 16.1278H16.1152C17.0187 16.1278 17.7536 16.8642 17.7536 17.7696V18.7291C17.7536 19.1142 17.4423 19.4255 17.0572 19.4255C16.6721 19.4255 16.3608 19.1142 16.3608 18.7291V17.7696C16.3608 17.6327 16.2507 17.5207 16.1152 17.5207H1.88549C1.74981 17.5207 1.63923 17.6321 1.63923 17.7696V18.7291C1.63923 19.1142 1.32722 19.4255 0.942796 19.4255C0.558374 19.4255 0.246362 19.1142 0.246362 18.7291V17.7696C0.246362 16.8642 0.98132 16.1278 1.88549 16.1278H9.61018V15.0458H2.46829C2.08387 15.0458 1.77186 14.7345 1.77186 14.3493C1.77186 13.9642 2.08387 13.6529 2.46829 13.6529H9.61018V13.2052C9.61018 12.7161 10.0067 12.3188 10.4939 12.3188H12.9635C13.3705 12.3188 13.7229 12.5959 13.8216 12.991L13.8217 12.991L13.8627 13.1558C14.0192 13.0493 14.1684 12.9278 14.3074 12.7887C14.9097 12.1851 15.2395 11.3831 15.2361 10.529V10.529C15.2308 8.81836 13.8426 7.42701 12.1416 7.42701H8.43582L6.93988 10.6401L6.93986 10.6402C6.80368 10.9315 6.58039 11.0728 6.35528 11.1236C6.13133 11.1743 5.90561 11.1356 5.76114 11.0679L5.29101 10.8475L4.9511 11.5781L15.2956 13.7714ZM15.2956 13.7714C16.1597 12.9032 16.6337 11.7501 16.6303 10.5234C16.6222 8.0476 14.6103 6.03347 12.143 6.03347H9.08555L9.75384 4.59862C9.96045 4.15639 9.76838 3.62855 9.32753 3.42195L8.85325 3.19955L9.18825 2.48088C9.27535 2.51733 9.36676 2.53562 9.45658 2.53562C9.71838 2.53562 9.96913 2.38731 10.0875 2.13448L10.0649 2.12387L10.0875 2.13447C10.2505 1.78626 10.1008 1.37189 9.75257 1.20824L9.75255 1.20823M15.2956 13.7714L9.75255 1.20823M9.75255 1.20823L8.54128 0.640198L8.54123 0.640172M9.75255 1.20823L8.54123 0.640172M8.54123 0.640172C8.19308 0.477933 7.77871 0.626923 7.61504 0.975158L7.61503 0.975178M8.54123 0.640172L7.61503 0.975178M7.61503 0.975178C7.45558 1.31519 7.59545 1.71915 7.92696 1.88974L7.59267 2.60762M7.61503 0.975178L7.59267 2.60762M7.59267 2.60762L7.12186 2.38726L7.12185 2.38726C6.90778 2.28713 6.6679 2.27533 6.44535 2.35687M7.59267 2.60762L3.55883 10.0332C3.11795 9.82722 2.92664 9.30008 3.13114 8.85859L3.13116 8.85854L5.94447 2.81564L5.94449 2.8156C6.04532 2.60014 6.22293 2.4377 6.44535 2.35687M6.44535 2.35687C6.44536 2.35687 6.44538 2.35687 6.44539 2.35686L6.45392 2.38036L6.44532 2.35689C6.44533 2.35688 6.44534 2.35688 6.44535 2.35687ZM3.55887 10.0332L4.03306 10.2555L3.68848 10.9903L3.68845 10.9904C3.52619 11.3392 3.67729 11.7537 4.02626 11.9152L4.02601 11.9158L4.03132 11.917C4.06194 11.9238 4.09239 11.9318 4.12348 11.9401C4.13935 11.9443 4.15539 11.9485 4.17169 11.9526C4.21927 11.9647 4.26805 11.9757 4.31695 11.9806L4.31694 11.9807H4.31944C4.58122 11.9807 4.83335 11.8317 4.95109 11.5781L3.55887 10.0332ZM11.003 13.7116H12.5659L13.1658 16.1278H11.003V13.7116ZM4.60508 8.9873L6.98973 3.86528L8.27658 4.46849L5.89194 9.59051L4.60508 8.9873Z" fill="#4D69FF" stroke="#4D69FF" stroke-width="0.05"/>
</svg>
