<svg width="20" height="20" viewBox="0 0 20 20" fill="none" xmlns="http://www.w3.org/2000/svg">
<path d="M17.5312 15.0625H13.7656C13.3003 15.0625 12.8548 15.1909 12.4688 15.4302V9.41695C12.4688 8.42227 12.0814 7.48715 11.3782 6.78391C11.0754 6.48094 10.7696 6.17516 10.5859 5.9916V4.9375H11.2552C11.5788 4.9375 11.8411 4.67516 11.8411 4.35156V0.585938C11.8411 0.262344 11.5788 0 11.2552 0H1.21355C0.889961 0 0.627617 0.262344 0.627617 0.585938V4.35156C0.627617 4.67516 0.889961 4.9375 1.21355 4.9375H1.88281V5.99156C1.69918 6.17512 1.39336 6.4809 1.09074 6.78371C0.387383 7.48715 0 8.42227 0 9.41695V18.1588C0 19.174 0.825937 20 1.84113 20H10.6276C11.2058 20 11.7223 19.7318 12.0601 19.3136C12.5038 19.7383 13.1045 20 13.7656 20H17.5312C18.8925 20 20 18.8925 20 17.5312C20 16.1675 18.8971 15.0625 17.5312 15.0625ZM9.33074 1.17188H10.6693V3.76562H9.33074V1.17188ZM6.82031 1.17188H8.15887V3.76562H6.82031V1.17188ZM4.30988 1.17188H5.64844V3.76562H4.30988V1.17188ZM1.79949 3.76562V1.17188H3.13805V3.76562H1.79949ZM11.2969 18.1588C11.2969 18.5279 10.9966 18.8281 10.6276 18.8281H1.84113C1.47211 18.8281 1.17188 18.5279 1.17188 18.1588V9.41695C1.17188 8.73531 1.43734 8.09445 1.91953 7.61223C2.39727 7.13418 2.88289 6.64887 2.88293 6.64883C2.99289 6.53895 3.05469 6.3898 3.05469 6.23438V4.9375H9.41406V6.23438C9.41406 6.3898 9.47586 6.53895 9.58582 6.64883C9.58582 6.64883 10.0714 7.13414 10.5494 7.61238C11.0314 8.09445 11.2969 8.73531 11.2969 9.41695V18.1588ZM15.0625 18.8281H13.7656C13.0505 18.8281 12.4688 18.2463 12.4688 17.5312C12.4688 16.813 13.0498 16.2344 13.7656 16.2344H15.0625V18.8281ZM17.5312 18.8281H16.2344V16.2344H17.5312C18.2465 16.2344 18.8281 16.8125 18.8281 17.5312C18.8281 18.2463 18.2463 18.8281 17.5312 18.8281Z" fill="#4D69FF"/>
<path d="M9.37237 10.6693H8.07549V9.37244C8.07549 9.04884 7.81315 8.7865 7.48956 8.7865H4.97913C4.65553 8.7865 4.39319 9.04884 4.39319 9.37244V10.6693H3.09631C2.77272 10.6693 2.51038 10.9317 2.51038 11.2552V13.7656C2.51038 14.0892 2.77272 14.3516 3.09631 14.3516H4.39319V15.6485C4.39319 15.972 4.65553 16.2344 4.97913 16.2344H7.48956C7.81315 16.2344 8.07549 15.972 8.07549 15.6485V14.3516H9.37237C9.69596 14.3516 9.95831 14.0892 9.95831 13.7656V11.2552C9.95831 10.9317 9.69596 10.6693 9.37237 10.6693ZM8.78643 13.1797H7.48956C7.16596 13.1797 6.90362 13.442 6.90362 13.7656V15.0625H5.56506V13.7656C5.56506 13.442 5.30272 13.1797 4.97913 13.1797H3.68225V11.8411H4.97913C5.30272 11.8411 5.56506 11.5788 5.56506 11.2552V9.95833H6.90362V11.2552C6.90362 11.5788 7.16596 11.8411 7.48956 11.8411H8.78643V13.1797Z" fill="#4D69FF"/>
</svg>
