<svg width="20" height="20" viewBox="0 0 20 20" fill="none" xmlns="http://www.w3.org/2000/svg">
<path d="M8.0492 8.64411L8.0492 8.64411C7.81067 8.88317 7.42369 8.8835 7.18479 8.64517L8.0492 8.64411ZM8.0492 8.64411C8.28762 8.40513 8.28713 8.01811 8.04814 7.77973C7.31732 7.05075 6.1284 7.05067 5.3975 7.77973L5.3975 7.77974C5.15852 8.01814 5.15802 8.40513 5.39648 8.64411H8.0492Z" fill="#4D69FF" stroke="#4D69FF" stroke-width="0.11"/>
<path d="M10.6109 1.06344H10.611L10.6109 1.0614C10.5809 0.253381 9.41825 0.254328 9.38856 1.06141L9.38852 1.06141V1.06344V1.66788C-0.869324 2.68675 -0.861712 17.3167 9.38852 18.3319V18.9363H9.38848L9.38856 18.9384C9.41855 19.7464 10.5812 19.7454 10.6109 18.9383L10.6109 18.9384V18.9363V18.3319C20.8688 17.313 20.8612 2.68307 10.6109 1.66786V1.06344ZM9.38852 14.1533V17.1076C5.74004 16.7966 2.86603 13.7275 2.86603 9.9999C2.86603 6.27228 5.74004 3.20318 9.38852 2.89216V12.9219C8.43263 12.7915 7.55032 12.3559 6.85739 11.6628C6.61873 11.424 6.23175 11.424 5.99298 11.6626L5.99298 11.6626C5.75428 11.9013 5.75424 12.2883 5.99285 12.527L6.03175 12.4881L5.99286 12.527C6.91686 13.4513 8.10525 14.0168 9.38852 14.1533ZM13.1421 14.0066L13.181 13.9677L13.1421 14.0066C13.3807 14.2453 13.7677 14.2455 14.0065 14.0067L13.9676 13.9678L14.0065 14.0067C14.2452 13.7681 14.2452 13.3811 14.0066 13.1424L13.9677 13.1812L14.0066 13.1424C13.0826 12.2181 11.8942 11.6526 10.6109 11.516V2.89374C19.2491 3.84979 19.2429 16.1531 10.6109 17.1061V12.7474C11.5668 12.8778 12.4491 13.3135 13.1421 14.0066Z" fill="#4D69FF" stroke="#4D69FF" stroke-width="0.11"/>
<path d="M13.7383 7.77981L13.7383 7.7798C13.9773 7.5414 14.3643 7.54187 14.6026 7.78087C14.8411 8.01986 14.8406 8.40683 14.6016 8.64524L14.6016 8.64524C13.8705 9.3745 12.6816 9.37407 11.951 8.64524M13.7383 7.77981L11.9898 8.6063M13.7383 7.77981C13.4837 8.03386 13.0691 8.03393 12.8143 7.77981M13.7383 7.77981L12.7755 7.81874M11.951 8.64524L11.9898 8.6063M11.951 8.64524C11.951 8.64524 11.951 8.64524 11.951 8.64524L11.9898 8.6063M11.951 8.64524C11.712 8.40687 11.7115 8.01985 11.9499 7.78086L11.9499 7.78086C12.1884 7.54189 12.5753 7.54139 12.8143 7.77981M11.9898 8.6063C11.7723 8.38938 11.7719 8.03719 11.9888 7.81971C12.2058 7.60223 12.558 7.60178 12.7755 7.81874M12.8143 7.77981L12.7755 7.81874M12.8143 7.77981C12.8143 7.77981 12.8143 7.77981 12.8143 7.77981L12.7755 7.81874" fill="#4D69FF" stroke="#4D69FF" stroke-width="0.11"/>
</svg>
