<svg width="20" height="20" viewBox="0 0 20 20" fill="none" xmlns="http://www.w3.org/2000/svg">
<mask id="path-1-outside-1_604_13765" maskUnits="userSpaceOnUse" x="-0.54541" y="-0.545349" width="21" height="21" fill="black">
<rect fill="white" x="-0.54541" y="-0.545349" width="21" height="21"/>
<path d="M19.4013 2.57159C19.3104 2.50093 19.192 2.47621 19.0805 2.50459L17.3066 2.95564C17.0217 3.02801 16.7283 3.06474 16.4345 3.06474H13.8312C12.9867 3.06474 12.2813 3.67068 12.1539 4.5056C12.0825 4.97355 11.6871 5.31315 11.2138 5.31315H11.1185V4.53428C11.7616 4.15142 12.1936 3.4495 12.1936 2.64829C12.1936 1.43872 11.2095 0.454651 9.99993 0.454651C8.79032 0.454651 7.80629 1.43872 7.80629 2.64829C7.80629 3.4495 8.23825 4.15142 8.88133 4.53428V5.31315H8.78606C8.31275 5.31315 7.91733 4.97355 7.84596 4.5056C7.71859 3.67068 7.01317 3.06474 6.16867 3.06474H3.56536C3.27155 3.06474 2.97814 3.02805 2.69331 2.95564L0.919328 2.50462C0.807916 2.47629 0.689457 2.50097 0.598553 2.57163C0.507723 2.64225 0.45459 2.7509 0.45459 2.86597C0.45459 3.65305 0.758251 4.37033 1.25409 4.9077C1.26497 5.8126 1.69373 6.61829 2.35605 7.14127L2.7068 7.61004C3.50656 8.67896 4.78112 9.31716 6.1162 9.31716C7.14031 9.31716 8.11084 8.95716 8.88133 8.29745V9.6272H8.54691C7.21739 9.6272 6.1357 10.7089 6.1357 12.0384C6.1357 12.4447 6.2388 12.8465 6.43377 13.2004C6.50171 13.3237 6.62919 13.3934 6.7607 13.3934C6.82155 13.3934 6.88326 13.3785 6.94027 13.3471C7.12066 13.2477 7.18633 13.0209 7.08696 12.8406C6.95254 12.5965 6.88143 12.3192 6.88143 12.0384C6.88143 11.12 7.62854 10.3729 8.54691 10.3729H8.88133V13.7038H8.0051C7.02167 13.7038 6.22158 14.5039 6.22158 15.4874C6.22158 16.4708 7.02167 17.2709 8.0051 17.2709H9.04181C9.17108 17.9711 9.37784 18.6559 9.66192 19.3193C9.72065 19.4565 9.85548 19.5454 10.0047 19.5454H10.0053C10.1548 19.5451 10.2896 19.4557 10.348 19.3181L10.3553 19.3007C10.6334 18.643 10.8357 17.9644 10.9621 17.2709H11.3858C11.8072 17.2709 12.1501 17.6138 12.1501 18.0353C12.1501 18.4568 11.8072 18.7997 11.3858 18.7997H11.3604C11.1545 18.7997 10.9876 18.9666 10.9876 19.1725C10.9876 19.3784 11.1545 19.5454 11.3604 19.5454H11.3858C12.2184 19.5454 12.8959 18.868 12.8959 18.0353C12.8959 17.2026 12.2184 16.5252 11.3858 16.5252H11.0681C11.1015 16.198 11.1185 15.8681 11.1185 15.5359V14.4496H11.3671C12.6966 14.4496 13.7783 13.3679 13.7783 12.0384C13.7783 10.7089 12.6966 9.6272 11.3671 9.6272H11.1185V8.29745C11.889 8.9572 12.8595 9.31716 13.8836 9.31716C15.2187 9.31716 16.4932 8.679 17.293 7.61004L17.6438 7.14127C18.3062 6.61829 18.7349 5.81257 18.7458 4.90766C19.2416 4.37033 19.5453 3.65305 19.5453 2.86597C19.5453 2.7509 19.4921 2.64225 19.4013 2.57159ZM8.58613 7.55623C7.92426 8.21091 7.0471 8.57143 6.1162 8.57143C5.28684 8.57143 4.48589 8.27277 3.85914 7.7487C3.95273 7.75788 4.04755 7.76284 4.14353 7.76284H4.76793C4.97382 7.76284 5.14079 7.59587 5.14079 7.38997C5.14079 7.18408 4.97382 7.01711 4.76793 7.01711H4.14353C3.19984 7.01711 2.3971 6.40404 2.11115 5.55548C2.51925 5.76227 2.98004 5.87965 3.46797 5.87972L4.23917 5.87983H4.2392C4.44506 5.87983 4.61203 5.7129 4.61207 5.507C4.61211 5.30111 4.44517 5.13414 4.23924 5.1341L3.46804 5.13399C2.387 5.13384 1.48019 4.37331 1.25438 3.35923L2.50963 3.67836C2.85446 3.76606 3.20965 3.81047 3.56536 3.81047H6.16867C6.64202 3.81047 7.0374 4.15008 7.10877 4.61802C7.23614 5.45294 7.94156 6.05888 8.78606 6.05888H8.88133V7.26428L8.58613 7.55623ZM8.0051 16.5252C7.43286 16.5252 6.96731 16.0596 6.96731 15.4874C6.96731 14.9151 7.43286 14.4495 8.0051 14.4495H8.88133V15.5136C8.88133 15.8534 8.89919 16.1907 8.93409 16.5252H8.0051ZM10.3728 15.5358C10.3728 16.404 10.2487 17.256 10.0032 18.0793C9.75331 17.2492 9.62706 16.3899 9.62706 15.5136V14.4495H10.3728V15.5358ZM10.3728 13.7038H9.62706V4.8096C9.74832 4.83048 9.87278 4.84196 9.99993 4.84196C10.1271 4.84196 10.2515 4.83048 10.3728 4.8096V13.7038ZM11.3671 10.3729C12.2854 10.3729 13.0325 11.12 13.0325 12.0384C13.0325 12.9567 12.2854 13.7038 11.3671 13.7038H11.1185V10.3729H11.3671ZM9.99993 4.0962C9.20151 4.0962 8.55202 3.44667 8.55202 2.64829C8.55202 1.84991 9.20155 1.20038 9.99993 1.20038C10.7983 1.20038 11.4478 1.84991 11.4478 2.64829C11.4478 3.44667 10.7983 4.0962 9.99993 4.0962ZM16.5318 5.13399L15.7607 5.1341C15.5548 5.13414 15.3878 5.30111 15.3879 5.507C15.3879 5.71294 15.5549 5.87987 15.7608 5.87983L16.532 5.87972C17.0199 5.87965 17.4807 5.7623 17.8888 5.55548C17.6028 6.40404 16.8 7.01711 15.8564 7.01711H15.232C15.0261 7.01711 14.8591 7.18408 14.8591 7.38997C14.8591 7.59587 15.0261 7.76284 15.232 7.76284H15.8564C15.9523 7.76284 16.0471 7.75788 16.1407 7.7487C15.5139 8.27277 14.713 8.57143 13.8837 8.57143C12.9528 8.57143 12.0756 8.21091 11.4138 7.55627L11.1185 7.26428V6.05888H11.2138C12.0583 6.05888 12.7637 5.45294 12.8911 4.61802C12.9624 4.15008 13.3578 3.81047 13.8312 3.81047H16.4345C16.7902 3.81047 17.1454 3.76606 17.4903 3.67836L18.7455 3.35923C18.5197 4.37327 17.6129 5.13384 16.5318 5.13399Z"/>
</mask>
<path d="M19.4013 2.57159C19.3104 2.50093 19.192 2.47621 19.0805 2.50459L17.3066 2.95564C17.0217 3.02801 16.7283 3.06474 16.4345 3.06474H13.8312C12.9867 3.06474 12.2813 3.67068 12.1539 4.5056C12.0825 4.97355 11.6871 5.31315 11.2138 5.31315H11.1185V4.53428C11.7616 4.15142 12.1936 3.4495 12.1936 2.64829C12.1936 1.43872 11.2095 0.454651 9.99993 0.454651C8.79032 0.454651 7.80629 1.43872 7.80629 2.64829C7.80629 3.4495 8.23825 4.15142 8.88133 4.53428V5.31315H8.78606C8.31275 5.31315 7.91733 4.97355 7.84596 4.5056C7.71859 3.67068 7.01317 3.06474 6.16867 3.06474H3.56536C3.27155 3.06474 2.97814 3.02805 2.69331 2.95564L0.919328 2.50462C0.807916 2.47629 0.689457 2.50097 0.598553 2.57163C0.507723 2.64225 0.45459 2.7509 0.45459 2.86597C0.45459 3.65305 0.758251 4.37033 1.25409 4.9077C1.26497 5.8126 1.69373 6.61829 2.35605 7.14127L2.7068 7.61004C3.50656 8.67896 4.78112 9.31716 6.1162 9.31716C7.14031 9.31716 8.11084 8.95716 8.88133 8.29745V9.6272H8.54691C7.21739 9.6272 6.1357 10.7089 6.1357 12.0384C6.1357 12.4447 6.2388 12.8465 6.43377 13.2004C6.50171 13.3237 6.62919 13.3934 6.7607 13.3934C6.82155 13.3934 6.88326 13.3785 6.94027 13.3471C7.12066 13.2477 7.18633 13.0209 7.08696 12.8406C6.95254 12.5965 6.88143 12.3192 6.88143 12.0384C6.88143 11.12 7.62854 10.3729 8.54691 10.3729H8.88133V13.7038H8.0051C7.02167 13.7038 6.22158 14.5039 6.22158 15.4874C6.22158 16.4708 7.02167 17.2709 8.0051 17.2709H9.04181C9.17108 17.9711 9.37784 18.6559 9.66192 19.3193C9.72065 19.4565 9.85548 19.5454 10.0047 19.5454H10.0053C10.1548 19.5451 10.2896 19.4557 10.348 19.3181L10.3553 19.3007C10.6334 18.643 10.8357 17.9644 10.9621 17.2709H11.3858C11.8072 17.2709 12.1501 17.6138 12.1501 18.0353C12.1501 18.4568 11.8072 18.7997 11.3858 18.7997H11.3604C11.1545 18.7997 10.9876 18.9666 10.9876 19.1725C10.9876 19.3784 11.1545 19.5454 11.3604 19.5454H11.3858C12.2184 19.5454 12.8959 18.868 12.8959 18.0353C12.8959 17.2026 12.2184 16.5252 11.3858 16.5252H11.0681C11.1015 16.198 11.1185 15.8681 11.1185 15.5359V14.4496H11.3671C12.6966 14.4496 13.7783 13.3679 13.7783 12.0384C13.7783 10.7089 12.6966 9.6272 11.3671 9.6272H11.1185V8.29745C11.889 8.9572 12.8595 9.31716 13.8836 9.31716C15.2187 9.31716 16.4932 8.679 17.293 7.61004L17.6438 7.14127C18.3062 6.61829 18.7349 5.81257 18.7458 4.90766C19.2416 4.37033 19.5453 3.65305 19.5453 2.86597C19.5453 2.7509 19.4921 2.64225 19.4013 2.57159ZM8.58613 7.55623C7.92426 8.21091 7.0471 8.57143 6.1162 8.57143C5.28684 8.57143 4.48589 8.27277 3.85914 7.7487C3.95273 7.75788 4.04755 7.76284 4.14353 7.76284H4.76793C4.97382 7.76284 5.14079 7.59587 5.14079 7.38997C5.14079 7.18408 4.97382 7.01711 4.76793 7.01711H4.14353C3.19984 7.01711 2.3971 6.40404 2.11115 5.55548C2.51925 5.76227 2.98004 5.87965 3.46797 5.87972L4.23917 5.87983H4.2392C4.44506 5.87983 4.61203 5.7129 4.61207 5.507C4.61211 5.30111 4.44517 5.13414 4.23924 5.1341L3.46804 5.13399C2.387 5.13384 1.48019 4.37331 1.25438 3.35923L2.50963 3.67836C2.85446 3.76606 3.20965 3.81047 3.56536 3.81047H6.16867C6.64202 3.81047 7.0374 4.15008 7.10877 4.61802C7.23614 5.45294 7.94156 6.05888 8.78606 6.05888H8.88133V7.26428L8.58613 7.55623ZM8.0051 16.5252C7.43286 16.5252 6.96731 16.0596 6.96731 15.4874C6.96731 14.9151 7.43286 14.4495 8.0051 14.4495H8.88133V15.5136C8.88133 15.8534 8.89919 16.1907 8.93409 16.5252H8.0051ZM10.3728 15.5358C10.3728 16.404 10.2487 17.256 10.0032 18.0793C9.75331 17.2492 9.62706 16.3899 9.62706 15.5136V14.4495H10.3728V15.5358ZM10.3728 13.7038H9.62706V4.8096C9.74832 4.83048 9.87278 4.84196 9.99993 4.84196C10.1271 4.84196 10.2515 4.83048 10.3728 4.8096V13.7038ZM11.3671 10.3729C12.2854 10.3729 13.0325 11.12 13.0325 12.0384C13.0325 12.9567 12.2854 13.7038 11.3671 13.7038H11.1185V10.3729H11.3671ZM9.99993 4.0962C9.20151 4.0962 8.55202 3.44667 8.55202 2.64829C8.55202 1.84991 9.20155 1.20038 9.99993 1.20038C10.7983 1.20038 11.4478 1.84991 11.4478 2.64829C11.4478 3.44667 10.7983 4.0962 9.99993 4.0962ZM16.5318 5.13399L15.7607 5.1341C15.5548 5.13414 15.3878 5.30111 15.3879 5.507C15.3879 5.71294 15.5549 5.87987 15.7608 5.87983L16.532 5.87972C17.0199 5.87965 17.4807 5.7623 17.8888 5.55548C17.6028 6.40404 16.8 7.01711 15.8564 7.01711H15.232C15.0261 7.01711 14.8591 7.18408 14.8591 7.38997C14.8591 7.59587 15.0261 7.76284 15.232 7.76284H15.8564C15.9523 7.76284 16.0471 7.75788 16.1407 7.7487C15.5139 8.27277 14.713 8.57143 13.8837 8.57143C12.9528 8.57143 12.0756 8.21091 11.4138 7.55627L11.1185 7.26428V6.05888H11.2138C12.0583 6.05888 12.7637 5.45294 12.8911 4.61802C12.9624 4.15008 13.3578 3.81047 13.8312 3.81047H16.4345C16.7902 3.81047 17.1454 3.76606 17.4903 3.67836L18.7455 3.35923C18.5197 4.37327 17.6129 5.13384 16.5318 5.13399Z" fill="#4D69FF"/>
<path d="M19.4013 2.57159C19.3104 2.50093 19.192 2.47621 19.0805 2.50459L17.3066 2.95564C17.0217 3.02801 16.7283 3.06474 16.4345 3.06474H13.8312C12.9867 3.06474 12.2813 3.67068 12.1539 4.5056C12.0825 4.97355 11.6871 5.31315 11.2138 5.31315H11.1185V4.53428C11.7616 4.15142 12.1936 3.4495 12.1936 2.64829C12.1936 1.43872 11.2095 0.454651 9.99993 0.454651C8.79032 0.454651 7.80629 1.43872 7.80629 2.64829C7.80629 3.4495 8.23825 4.15142 8.88133 4.53428V5.31315H8.78606C8.31275 5.31315 7.91733 4.97355 7.84596 4.5056C7.71859 3.67068 7.01317 3.06474 6.16867 3.06474H3.56536C3.27155 3.06474 2.97814 3.02805 2.69331 2.95564L0.919328 2.50462C0.807916 2.47629 0.689457 2.50097 0.598553 2.57163C0.507723 2.64225 0.45459 2.7509 0.45459 2.86597C0.45459 3.65305 0.758251 4.37033 1.25409 4.9077C1.26497 5.8126 1.69373 6.61829 2.35605 7.14127L2.7068 7.61004C3.50656 8.67896 4.78112 9.31716 6.1162 9.31716C7.14031 9.31716 8.11084 8.95716 8.88133 8.29745V9.6272H8.54691C7.21739 9.6272 6.1357 10.7089 6.1357 12.0384C6.1357 12.4447 6.2388 12.8465 6.43377 13.2004C6.50171 13.3237 6.62919 13.3934 6.7607 13.3934C6.82155 13.3934 6.88326 13.3785 6.94027 13.3471C7.12066 13.2477 7.18633 13.0209 7.08696 12.8406C6.95254 12.5965 6.88143 12.3192 6.88143 12.0384C6.88143 11.12 7.62854 10.3729 8.54691 10.3729H8.88133V13.7038H8.0051C7.02167 13.7038 6.22158 14.5039 6.22158 15.4874C6.22158 16.4708 7.02167 17.2709 8.0051 17.2709H9.04181C9.17108 17.9711 9.37784 18.6559 9.66192 19.3193C9.72065 19.4565 9.85548 19.5454 10.0047 19.5454H10.0053C10.1548 19.5451 10.2896 19.4557 10.348 19.3181L10.3553 19.3007C10.6334 18.643 10.8357 17.9644 10.9621 17.2709H11.3858C11.8072 17.2709 12.1501 17.6138 12.1501 18.0353C12.1501 18.4568 11.8072 18.7997 11.3858 18.7997H11.3604C11.1545 18.7997 10.9876 18.9666 10.9876 19.1725C10.9876 19.3784 11.1545 19.5454 11.3604 19.5454H11.3858C12.2184 19.5454 12.8959 18.868 12.8959 18.0353C12.8959 17.2026 12.2184 16.5252 11.3858 16.5252H11.0681C11.1015 16.198 11.1185 15.8681 11.1185 15.5359V14.4496H11.3671C12.6966 14.4496 13.7783 13.3679 13.7783 12.0384C13.7783 10.7089 12.6966 9.6272 11.3671 9.6272H11.1185V8.29745C11.889 8.9572 12.8595 9.31716 13.8836 9.31716C15.2187 9.31716 16.4932 8.679 17.293 7.61004L17.6438 7.14127C18.3062 6.61829 18.7349 5.81257 18.7458 4.90766C19.2416 4.37033 19.5453 3.65305 19.5453 2.86597C19.5453 2.7509 19.4921 2.64225 19.4013 2.57159ZM8.58613 7.55623C7.92426 8.21091 7.0471 8.57143 6.1162 8.57143C5.28684 8.57143 4.48589 8.27277 3.85914 7.7487C3.95273 7.75788 4.04755 7.76284 4.14353 7.76284H4.76793C4.97382 7.76284 5.14079 7.59587 5.14079 7.38997C5.14079 7.18408 4.97382 7.01711 4.76793 7.01711H4.14353C3.19984 7.01711 2.3971 6.40404 2.11115 5.55548C2.51925 5.76227 2.98004 5.87965 3.46797 5.87972L4.23917 5.87983H4.2392C4.44506 5.87983 4.61203 5.7129 4.61207 5.507C4.61211 5.30111 4.44517 5.13414 4.23924 5.1341L3.46804 5.13399C2.387 5.13384 1.48019 4.37331 1.25438 3.35923L2.50963 3.67836C2.85446 3.76606 3.20965 3.81047 3.56536 3.81047H6.16867C6.64202 3.81047 7.0374 4.15008 7.10877 4.61802C7.23614 5.45294 7.94156 6.05888 8.78606 6.05888H8.88133V7.26428L8.58613 7.55623ZM8.0051 16.5252C7.43286 16.5252 6.96731 16.0596 6.96731 15.4874C6.96731 14.9151 7.43286 14.4495 8.0051 14.4495H8.88133V15.5136C8.88133 15.8534 8.89919 16.1907 8.93409 16.5252H8.0051ZM10.3728 15.5358C10.3728 16.404 10.2487 17.256 10.0032 18.0793C9.75331 17.2492 9.62706 16.3899 9.62706 15.5136V14.4495H10.3728V15.5358ZM10.3728 13.7038H9.62706V4.8096C9.74832 4.83048 9.87278 4.84196 9.99993 4.84196C10.1271 4.84196 10.2515 4.83048 10.3728 4.8096V13.7038ZM11.3671 10.3729C12.2854 10.3729 13.0325 11.12 13.0325 12.0384C13.0325 12.9567 12.2854 13.7038 11.3671 13.7038H11.1185V10.3729H11.3671ZM9.99993 4.0962C9.20151 4.0962 8.55202 3.44667 8.55202 2.64829C8.55202 1.84991 9.20155 1.20038 9.99993 1.20038C10.7983 1.20038 11.4478 1.84991 11.4478 2.64829C11.4478 3.44667 10.7983 4.0962 9.99993 4.0962ZM16.5318 5.13399L15.7607 5.1341C15.5548 5.13414 15.3878 5.30111 15.3879 5.507C15.3879 5.71294 15.5549 5.87987 15.7608 5.87983L16.532 5.87972C17.0199 5.87965 17.4807 5.7623 17.8888 5.55548C17.6028 6.40404 16.8 7.01711 15.8564 7.01711H15.232C15.0261 7.01711 14.8591 7.18408 14.8591 7.38997C14.8591 7.59587 15.0261 7.76284 15.232 7.76284H15.8564C15.9523 7.76284 16.0471 7.75788 16.1407 7.7487C15.5139 8.27277 14.713 8.57143 13.8837 8.57143C12.9528 8.57143 12.0756 8.21091 11.4138 7.55627L11.1185 7.26428V6.05888H11.2138C12.0583 6.05888 12.7637 5.45294 12.8911 4.61802C12.9624 4.15008 13.3578 3.81047 13.8312 3.81047H16.4345C16.7902 3.81047 17.1454 3.76606 17.4903 3.67836L18.7455 3.35923C18.5197 4.37327 17.6129 5.13384 16.5318 5.13399Z" stroke="#4D69FF" stroke-width="0.4" mask="url(#path-1-outside-1_604_13765)"/>
<path d="M8.84275 19.5068C8.93084 19.4188 8.98135 19.2971 8.98135 19.1725C8.98135 19.0479 8.93091 18.9263 8.84281 18.8382C8.8428 18.8382 8.84279 18.8382 8.84278 18.8382C8.75471 18.75 8.63306 18.6996 8.50848 18.6996L8.1742 19.5068M8.84275 19.5068L8.77206 19.4361L8.84281 19.5067C8.84279 19.5068 8.84277 19.5068 8.84275 19.5068ZM8.84275 19.5068C8.7547 19.5949 8.63308 19.6453 8.50848 19.6453C8.38386 19.6453 8.26226 19.5949 8.1742 19.5068M8.1742 19.5068L8.24487 19.4361L8.17416 19.5068C8.17417 19.5068 8.17418 19.5068 8.1742 19.5068Z" fill="#4D69FF" stroke="#4D69FF" stroke-width="0.2"/>
</svg>
