<svg width="20" height="20" viewBox="0 0 20 20" fill="none" xmlns="http://www.w3.org/2000/svg">
<path d="M0.213149 8.00087C0.213149 4.55119 1.93377 2.31771 4.28558 2.18859C5.41589 2.12654 6.39447 2.57889 7.02117 3.37816C7.64752 4.17699 7.91622 5.314 7.64642 6.61211L0.213149 8.00087ZM0.213149 8.00087C0.213149 11.4331 1.90554 13.7999 4.22563 14.1821C5.36117 14.3691 6.35732 14.022 6.99965 13.2884C7.64133 12.5555 7.91859 11.4501 7.64642 10.1406C7.64641 10.1405 7.64639 10.1404 7.64638 10.1404L7.53725 9.60994L7.45553 9.1812C7.34377 8.54436 7.34377 8.20831 7.45553 7.57147L7.53725 7.14275L7.64638 6.61231L0.213149 8.00087ZM6.55643 6.38573L6.55637 6.38604L6.44487 6.93129L6.44477 6.93182C6.32985 7.51028 6.26714 7.90722 6.2593 8.29365C6.25145 8.68089 6.29877 9.05335 6.39868 9.58333L6.39867 9.58334L6.39891 9.5845L6.55631 10.3664L6.55643 10.3669C6.75425 11.3185 6.58268 12.0581 6.18838 12.5264C5.79548 12.9931 5.16619 13.2087 4.40655 13.0836C2.69422 12.8016 1.3264 10.9595 1.3264 8.00087C1.3264 5.05403 2.6732 3.39204 4.34661 3.30017C5.11378 3.25805 5.76121 3.55611 6.16953 4.09481C6.57854 4.63441 6.75579 5.42674 6.55643 6.38573Z" fill="#4D69FF" stroke="#4D69FF" stroke-width="0.193208"/>
<path d="M9.60266 9.68745L9.60268 9.68745L9.60258 9.6852C9.57041 8.98173 9.34499 8.42366 8.93323 8.04203C8.5219 7.66079 7.9373 7.46742 7.2099 7.46742C6.90248 7.46742 6.65327 7.71663 6.65327 8.02405C6.65327 8.33146 6.90248 8.58067 7.2099 8.58067C7.68561 8.58067 7.99944 8.68074 8.19637 8.87766C8.39329 9.07458 8.49335 9.38841 8.49335 9.86413V17.2244H8.49297L8.49374 17.2331L8.50115 17.3158L8.50076 17.3158L8.50232 17.3244C8.54946 17.5841 8.77662 17.7811 9.04998 17.7811C9.35739 17.7811 9.6066 17.5319 9.6066 17.2244V9.86413H9.60663L9.60658 9.86196L9.60266 9.68745Z" fill="#4D69FF" stroke="#4D69FF" stroke-width="0.193208"/>
<path d="M6.99874 8.90647C6.72378 8.76899 6.38943 8.88044 6.25195 9.1554C6.14115 9.377 6.01669 9.52856 5.8751 9.62519C5.73457 9.72107 5.57003 9.76775 5.36975 9.76775C5.06233 9.76775 4.81312 10.017 4.81312 10.3244C4.81312 10.6318 5.06233 10.881 5.36975 10.881C6.20465 10.881 6.85126 10.4461 7.24767 9.65326C7.38515 9.3783 7.2737 9.04396 6.99874 8.90647Z" fill="#4D69FF" stroke="#4D69FF" stroke-width="0.193208"/>
<path d="M7.29503 7.09263C7.04727 7.27461 6.69889 7.22128 6.51691 6.97351C6.16043 6.48815 5.78681 6.2806 5.36975 6.2806C5.06233 6.2806 4.81312 6.03139 4.81312 5.72397C4.81312 5.41656 5.06233 5.16735 5.36975 5.16735C6.17693 5.16735 6.86781 5.57065 7.41416 6.31451C7.59613 6.56228 7.5428 6.91066 7.29503 7.09263Z" fill="#4D69FF" stroke="#4D69FF" stroke-width="0.193208"/>
<path d="M13.3806 6.38573L13.3806 6.38604L13.4921 6.93129L13.4922 6.93182C13.5087 7.01459 13.5241 7.0936 13.5383 7.16934L13.5383 7.16934L13.5386 7.17075L13.6107 7.58722L13.6107 7.58722L13.611 7.58906C13.7011 8.17595 13.7011 8.57673 13.611 9.16362L13.611 9.16362L13.6107 9.16546L13.5386 9.58193L13.5386 9.58193L13.5381 9.5845L13.3807 10.3664L13.3806 10.3669C13.1828 11.3185 13.3543 12.0581 13.7486 12.5264C14.1415 12.9931 14.7708 13.2087 15.5305 13.0836C17.2428 12.8016 18.6106 10.9595 18.6106 8.00087C18.6106 5.05403 17.2638 3.39204 15.5904 3.30017C14.8232 3.25805 14.1758 3.55611 13.7675 4.09481C13.3585 4.63441 13.1812 5.42674 13.3806 6.38573ZM15.6514 2.18859C18.0032 2.31771 19.7239 4.55119 19.7239 8.00087C19.7239 11.4331 18.0315 13.7999 15.7114 14.1821C14.5758 14.3691 13.5797 14.022 12.9374 13.2884C12.2957 12.5555 12.0184 11.4501 12.2906 10.1406C12.2906 10.1405 12.2906 10.1404 12.2906 10.1404L12.444 9.38489L12.5119 8.99682C12.5831 8.53193 12.5831 8.22075 12.5119 7.75585L12.444 7.36779L12.2906 6.61231C12.2906 6.61223 12.2906 6.61215 12.2906 6.61207C12.0208 5.31398 12.2895 4.17698 12.9158 3.37816C13.5425 2.57889 14.5211 2.12654 15.6514 2.18859Z" fill="#4D69FF" stroke="#4D69FF" stroke-width="0.193208"/>
<path d="M10.3377 9.68745L10.3376 9.68745L10.3377 9.6852C10.3699 8.98173 10.5953 8.42366 11.0071 8.04203C11.4184 7.66079 12.003 7.46742 12.7304 7.46742C13.0378 7.46742 13.287 7.71663 13.287 8.02405C13.287 8.33146 13.0378 8.58067 12.7304 8.58067C12.2547 8.58067 11.9409 8.68074 11.7439 8.87766C11.547 9.07458 11.447 9.38841 11.447 9.86413V17.2244H11.4473L11.4466 17.2331L11.4392 17.3158L11.4395 17.3158L11.438 17.3244C11.3908 17.5841 11.1637 17.7811 10.8903 17.7811C10.5829 17.7811 10.3337 17.5319 10.3337 17.2244V9.86413H10.3337L10.3337 9.86196L10.3377 9.68745Z" fill="#4D69FF" stroke="#4D69FF" stroke-width="0.193208"/>
<path d="M12.9416 8.90647C13.2165 8.76899 13.5509 8.88044 13.6884 9.1554C13.7992 9.377 13.9236 9.52856 14.0652 9.62519C14.2057 9.72107 14.3703 9.76775 14.5706 9.76775C14.878 9.76775 15.1272 10.017 15.1272 10.3244C15.1272 10.6318 14.878 10.881 14.5706 10.881C13.7357 10.881 13.089 10.4461 12.6926 9.65326C12.5552 9.3783 12.6666 9.04395 12.9416 8.90647Z" fill="#4D69FF" stroke="#4D69FF" stroke-width="0.193208"/>
<path d="M12.6453 7.09263C12.893 7.27461 13.2414 7.22128 13.4234 6.97351C13.7799 6.48815 14.1535 6.2806 14.5706 6.2806C14.878 6.2806 15.1272 6.03139 15.1272 5.72397C15.1272 5.41656 14.878 5.16735 14.5706 5.16735C13.7634 5.16735 13.0725 5.57065 12.5262 6.31451C12.3442 6.56228 12.3975 6.91066 12.6453 7.09263Z" fill="#4D69FF" stroke="#4D69FF" stroke-width="0.193208"/>
</svg>
