<svg width="18" height="20" viewBox="0 0 18 20" fill="none" xmlns="http://www.w3.org/2000/svg">
<path d="M2.91101 16.4098C4.32466 16.1271 5.35083 14.8762 5.3521 13.4348C5.35333 13.4217 5.35302 13.4031 5.35271 13.3844L5.3527 13.3838L5.35257 13.3761C5.35221 13.3547 5.35176 13.3287 5.35196 13.2984C5.35242 13.2304 5.35613 13.1407 5.37133 13.0359C5.40041 12.8354 5.47154 12.5794 5.64271 12.3149C6.05968 12.5085 6.52329 12.5487 6.97446 12.4721C8.14419 13.3812 9.58942 13.8786 11.078 13.8786C14.7666 13.8786 17.7674 10.8778 17.7674 7.18922C17.7674 3.50067 14.7666 0.499866 11.078 0.499866C7.38945 0.499866 4.38865 3.50067 4.38865 7.18922C4.38865 7.95438 4.51664 8.70188 4.76858 9.4153C4.48686 10.0753 4.43593 10.8287 4.76364 11.4695C4.4173 11.9243 4.26437 12.3985 4.19725 12.7669C4.16306 12.9546 4.15109 13.115 4.14719 13.2317C4.14525 13.29 4.14532 13.3374 4.14563 13.3716L4.14606 13.4123C4.14609 13.4183 4.14604 13.4218 4.14601 13.4236C4.14601 13.424 4.146 13.4243 4.146 13.4245L4.14554 13.4244V13.4321C4.14554 14.3014 3.52676 15.0562 2.67436 15.2267C1.25982 15.5096 0.233264 16.7618 0.233264 18.2043V19.4499V19.4999H0.283264H1.38982H1.43982V19.4499V18.2043C1.43982 17.3351 2.05861 16.5803 2.91101 16.4098ZM5.9579 11.0882C5.76174 10.892 5.70022 10.5815 5.76957 10.2348C5.83874 9.88893 6.03731 9.5146 6.34911 9.20277C6.61537 8.93651 6.97684 8.72396 7.32841 8.63671C7.68059 8.5493 8.01246 8.58945 8.23454 8.81153C8.43071 9.0077 8.49223 9.31821 8.42289 9.66492C8.35372 10.0108 8.15516 10.3851 7.84333 10.697C7.53153 11.0088 7.1572 11.2074 6.81132 11.2765C6.46461 11.3459 6.15409 11.2844 5.9579 11.0882ZM11.078 12.672C10.0886 12.672 9.1226 12.4039 8.28152 11.9054C8.42678 11.7993 8.56585 11.6808 8.69649 11.5502L8.66114 11.5148L8.69649 11.5502C9.88159 10.3651 9.91292 8.7836 9.08773 7.95841C8.3095 7.18014 6.85205 7.16075 5.68367 8.17538C5.62502 7.85226 5.59525 7.52291 5.59525 7.18926C5.59525 4.16609 8.05488 1.70646 11.078 1.70646C14.1012 1.70646 16.5608 4.16609 16.5608 7.18926C16.5608 10.2124 14.1012 12.672 11.078 12.672Z" fill="#4D69FF" stroke="#4D69FF" stroke-width="0.1"/>
</svg>
