<svg width="20" height="20" viewBox="0 0 20 20" fill="none" xmlns="http://www.w3.org/2000/svg">
<mask id="path-1-outside-1_604_13785" maskUnits="userSpaceOnUse" x="-0.433167" y="-0.431763" width="21" height="21" fill="black">
<rect fill="white" x="-0.433167" y="-0.431763" width="21" height="21"/>
<path d="M16.4144 5.93705C15.1096 4.19199 12.3583 3.95617 12.3583 5.67765C12.4036 6.33154 12.3167 6.98785 12.1029 7.60744C11.3993 6.85675 11.5723 6.617 11.5723 0.961269C11.5723 0.857031 11.5309 0.757061 11.4572 0.683354C11.3835 0.609646 11.2835 0.568237 11.1792 0.568237C11.075 0.568237 10.975 0.609646 10.9013 0.683354C10.8276 0.757061 10.7862 0.857031 10.7862 0.961269V6.27113C10.7862 7.72535 11.5251 8.14982 14.013 10.6377C14.0482 10.6757 14.0682 10.7252 14.0695 10.7769C14.0707 10.8286 14.053 10.879 14.0197 10.9186C13.9864 10.9582 13.9398 10.9842 13.8886 10.9918C13.8374 10.9995 13.7852 10.9882 13.7418 10.96L10.6762 8.82191C10.478 8.68324 10.242 8.60887 10.0001 8.60887C9.7583 8.60887 9.52229 8.68324 9.32414 8.82191C6.08948 11.0858 6.17988 11.1211 5.98729 10.9443C5.94793 10.9045 5.92585 10.8509 5.92585 10.7949C5.92585 10.739 5.94793 10.6853 5.98729 10.6456L8.42802 8.21664C8.68584 7.95881 8.88984 7.65231 9.02816 7.31494C9.16648 6.97758 9.23636 6.61609 9.23374 6.25148V0.961269C9.23374 0.857031 9.19233 0.757061 9.11862 0.683354C9.04491 0.609646 8.94494 0.568237 8.84071 0.568237C8.73647 0.568237 8.6365 0.609646 8.56279 0.683354C8.48908 0.757061 8.44767 0.857031 8.44767 0.961269V6.27113C8.44873 6.76813 8.25878 7.24653 7.91708 7.60744C7.69883 6.98866 7.60533 6.33277 7.64196 5.67765C7.64196 4.00334 4.94969 4.17627 3.63303 5.87417C1.6487 8.4372 0.570521 11.586 0.567384 14.8274C0.567384 16.9695 0.528081 16.655 1.1137 18.404C1.21376 18.7065 1.40746 18.9693 1.66676 19.1544C1.92607 19.3396 2.23754 19.4374 2.55613 19.4338C3.31509 19.4217 4.0488 19.1592 4.64313 18.687C6.36854 17.5276 8.42802 17.39 8.42802 15.5035V10.394C9.80363 9.43111 9.92547 9.24245 10.2242 9.45076L11.5723 10.394V15.5035C11.5723 16.769 12.5784 17.3664 13.785 17.8616C14.5193 18.1846 15.2197 18.5796 15.876 19.0407C16.9922 19.6814 18.4778 19.6657 18.8866 18.4315C19.4879 16.6118 19.4329 16.9184 19.4329 14.8274C19.4303 11.6129 18.3696 8.48864 16.4144 5.93705ZM7.64196 15.5035C7.64196 16.3721 6.78515 16.7729 5.92441 17.1149C5.15459 17.4469 4.41989 17.8551 3.73129 18.3333C3.08672 18.7067 2.09628 18.8717 1.86046 18.1564C1.29842 16.4782 1.35345 16.8515 1.35345 14.8274C1.35515 11.7828 2.36084 8.82379 4.21472 6.40869C4.47476 6.05785 4.81383 5.77324 5.20443 5.57794C5.59503 5.38263 6.02617 5.28215 6.46286 5.28462C7.24893 5.28462 6.46286 6.32616 7.30395 8.21271L6.17988 9.33285C5.9339 9.09465 5.75146 8.79868 5.64917 8.4719C5.54688 8.14513 5.52801 7.79795 5.59426 7.46202C5.602 7.4104 5.5995 7.35777 5.58691 7.30712C5.57431 7.25648 5.55186 7.20881 5.52083 7.16683C5.48981 7.12486 5.45083 7.08941 5.4061 7.06251C5.36138 7.0356 5.3118 7.01777 5.26018 7.01003C5.20857 7.00229 5.15594 7.00479 5.10529 7.01739C5.05464 7.02999 5.00697 7.05244 4.965 7.08346C4.92303 7.11448 4.88758 7.15347 4.86068 7.19819C4.83377 7.24291 4.81594 7.29249 4.8082 7.34411C4.74707 7.68991 4.74707 8.04377 4.8082 8.38957C4.45852 8.46336 4.13207 8.62119 3.85706 8.84942C3.796 8.90164 3.75241 8.97132 3.73216 9.04907C3.71191 9.12683 3.71597 9.20892 3.74381 9.28429C3.77165 9.35966 3.82191 9.42469 3.88784 9.47062C3.95377 9.51654 4.03219 9.54116 4.11253 9.54116C4.39945 9.54116 4.40338 9.2621 5.07153 9.14812C5.57854 10.1111 5.77506 9.72981 5.4174 10.0914C5.27404 10.2356 5.17834 10.4203 5.1432 10.6206C5.10806 10.8209 5.13518 11.0271 5.22088 11.2115C5.01958 11.4319 4.86098 11.6878 4.75317 11.9662C2.34782 12.2138 2.18275 13.9903 2.92558 13.9903C3.66841 13.9903 2.8116 13.0667 4.6274 12.7797C4.48591 14.0925 4.36014 15.0043 3.24393 15.5506C3.16786 15.5916 3.1074 15.6564 3.0719 15.7352C3.03639 15.8139 3.02782 15.9022 3.0475 15.9863C3.06719 16.0704 3.11403 16.1457 3.1808 16.2005C3.24757 16.2553 3.33053 16.2866 3.41687 16.2895C3.6802 16.2895 4.4977 15.7982 4.89074 15.0082C5.20143 15.3724 5.6246 15.6227 6.09341 15.7196C6.19765 15.7332 6.303 15.7048 6.38629 15.6406C6.46958 15.5765 6.52399 15.4819 6.53754 15.3777C6.55109 15.2734 6.52268 15.1681 6.45855 15.0848C6.39443 15.0015 6.29984 14.9471 6.1956 14.9336C5.77736 14.7882 5.42475 14.4983 5.20123 14.116C5.56675 12.5439 5.20123 12.3867 5.80257 11.7146C6.41963 11.9269 6.76157 11.5496 7.63017 10.9286L7.64196 15.5035ZM18.1398 18.1721C17.904 18.8914 16.8821 18.6988 16.2651 18.3451C15.5795 17.861 14.8459 17.4488 14.0759 17.1149C13.2191 16.7612 12.3583 16.3642 12.3583 15.5035V10.9521C13.2545 11.5771 13.5728 11.9387 14.182 11.7382C14.7833 12.4181 14.4021 12.485 14.7873 14.1396C14.5638 14.5219 14.2111 14.8117 13.7929 14.9571C13.6887 14.9707 13.5941 15.0251 13.53 15.1084C13.4658 15.1917 13.4374 15.297 13.451 15.4013C13.4645 15.5055 13.5189 15.6001 13.6022 15.6642C13.6855 15.7283 13.7909 15.7568 13.8951 15.7432C14.3724 15.6452 14.8013 15.3856 15.1096 15.0082C15.5026 15.7943 16.3358 16.2895 16.5952 16.2895C16.6843 16.2899 16.7709 16.26 16.8408 16.2047C16.9106 16.1494 16.9596 16.072 16.9797 15.9852C16.9998 15.8984 16.9899 15.8073 16.9514 15.7269C16.913 15.6465 16.8484 15.5816 16.7682 15.5428C15.6598 15.0004 15.5301 14.116 15.3847 12.7915C17.2005 13.0784 16.3791 14.0021 17.0865 14.0021C17.794 14.0021 17.6682 12.2256 15.2589 11.978C15.1464 11.6984 14.9824 11.4424 14.7755 11.2233C14.8612 11.0389 14.8883 10.8327 14.8532 10.6324C14.818 10.4321 14.7223 10.2474 14.579 10.1032C14.2213 9.74553 14.4218 10.1032 14.9288 9.15991C15.6126 9.28569 15.5812 9.55295 15.8838 9.55295C15.9642 9.55295 16.0426 9.52833 16.1085 9.48241C16.1745 9.43648 16.2247 9.37145 16.2526 9.29608C16.2804 9.22071 16.2845 9.13862 16.2642 9.06086C16.244 8.98311 16.2004 8.91343 16.1393 8.86121C15.8643 8.63298 15.5378 8.47515 15.1882 8.40136C15.2493 8.05556 15.2493 7.70171 15.1882 7.3559C15.1725 7.25166 15.1161 7.1579 15.0314 7.09525C14.9466 7.0326 14.8404 7.00619 14.7362 7.02182C14.6319 7.03746 14.5382 7.09386 14.4755 7.17863C14.4129 7.26339 14.3865 7.36957 14.4021 7.47381C14.4684 7.80974 14.4495 8.15692 14.3472 8.48369C14.2449 8.81047 14.0625 9.10644 13.8165 9.34464L12.6924 8.22057C13.0459 7.42178 13.201 6.54934 13.1444 5.67765C13.1444 4.89159 14.9602 5.30427 15.7895 6.41262C17.6412 8.82715 18.6454 11.7846 18.6469 14.8274C18.6469 16.8869 18.6979 16.4939 18.1398 18.1603V18.1721Z"/>
</mask>
<path d="M16.4144 5.93705C15.1096 4.19199 12.3583 3.95617 12.3583 5.67765C12.4036 6.33154 12.3167 6.98785 12.1029 7.60744C11.3993 6.85675 11.5723 6.617 11.5723 0.961269C11.5723 0.857031 11.5309 0.757061 11.4572 0.683354C11.3835 0.609646 11.2835 0.568237 11.1792 0.568237C11.075 0.568237 10.975 0.609646 10.9013 0.683354C10.8276 0.757061 10.7862 0.857031 10.7862 0.961269V6.27113C10.7862 7.72535 11.5251 8.14982 14.013 10.6377C14.0482 10.6757 14.0682 10.7252 14.0695 10.7769C14.0707 10.8286 14.053 10.879 14.0197 10.9186C13.9864 10.9582 13.9398 10.9842 13.8886 10.9918C13.8374 10.9995 13.7852 10.9882 13.7418 10.96L10.6762 8.82191C10.478 8.68324 10.242 8.60887 10.0001 8.60887C9.7583 8.60887 9.52229 8.68324 9.32414 8.82191C6.08948 11.0858 6.17988 11.1211 5.98729 10.9443C5.94793 10.9045 5.92585 10.8509 5.92585 10.7949C5.92585 10.739 5.94793 10.6853 5.98729 10.6456L8.42802 8.21664C8.68584 7.95881 8.88984 7.65231 9.02816 7.31494C9.16648 6.97758 9.23636 6.61609 9.23374 6.25148V0.961269C9.23374 0.857031 9.19233 0.757061 9.11862 0.683354C9.04491 0.609646 8.94494 0.568237 8.84071 0.568237C8.73647 0.568237 8.6365 0.609646 8.56279 0.683354C8.48908 0.757061 8.44767 0.857031 8.44767 0.961269V6.27113C8.44873 6.76813 8.25878 7.24653 7.91708 7.60744C7.69883 6.98866 7.60533 6.33277 7.64196 5.67765C7.64196 4.00334 4.94969 4.17627 3.63303 5.87417C1.6487 8.4372 0.570521 11.586 0.567384 14.8274C0.567384 16.9695 0.528081 16.655 1.1137 18.404C1.21376 18.7065 1.40746 18.9693 1.66676 19.1544C1.92607 19.3396 2.23754 19.4374 2.55613 19.4338C3.31509 19.4217 4.0488 19.1592 4.64313 18.687C6.36854 17.5276 8.42802 17.39 8.42802 15.5035V10.394C9.80363 9.43111 9.92547 9.24245 10.2242 9.45076L11.5723 10.394V15.5035C11.5723 16.769 12.5784 17.3664 13.785 17.8616C14.5193 18.1846 15.2197 18.5796 15.876 19.0407C16.9922 19.6814 18.4778 19.6657 18.8866 18.4315C19.4879 16.6118 19.4329 16.9184 19.4329 14.8274C19.4303 11.6129 18.3696 8.48864 16.4144 5.93705ZM7.64196 15.5035C7.64196 16.3721 6.78515 16.7729 5.92441 17.1149C5.15459 17.4469 4.41989 17.8551 3.73129 18.3333C3.08672 18.7067 2.09628 18.8717 1.86046 18.1564C1.29842 16.4782 1.35345 16.8515 1.35345 14.8274C1.35515 11.7828 2.36084 8.82379 4.21472 6.40869C4.47476 6.05785 4.81383 5.77324 5.20443 5.57794C5.59503 5.38263 6.02617 5.28215 6.46286 5.28462C7.24893 5.28462 6.46286 6.32616 7.30395 8.21271L6.17988 9.33285C5.9339 9.09465 5.75146 8.79868 5.64917 8.4719C5.54688 8.14513 5.52801 7.79795 5.59426 7.46202C5.602 7.4104 5.5995 7.35777 5.58691 7.30712C5.57431 7.25648 5.55186 7.20881 5.52083 7.16683C5.48981 7.12486 5.45083 7.08941 5.4061 7.06251C5.36138 7.0356 5.3118 7.01777 5.26018 7.01003C5.20857 7.00229 5.15594 7.00479 5.10529 7.01739C5.05464 7.02999 5.00697 7.05244 4.965 7.08346C4.92303 7.11448 4.88758 7.15347 4.86068 7.19819C4.83377 7.24291 4.81594 7.29249 4.8082 7.34411C4.74707 7.68991 4.74707 8.04377 4.8082 8.38957C4.45852 8.46336 4.13207 8.62119 3.85706 8.84942C3.796 8.90164 3.75241 8.97132 3.73216 9.04907C3.71191 9.12683 3.71597 9.20892 3.74381 9.28429C3.77165 9.35966 3.82191 9.42469 3.88784 9.47062C3.95377 9.51654 4.03219 9.54116 4.11253 9.54116C4.39945 9.54116 4.40338 9.2621 5.07153 9.14812C5.57854 10.1111 5.77506 9.72981 5.4174 10.0914C5.27404 10.2356 5.17834 10.4203 5.1432 10.6206C5.10806 10.8209 5.13518 11.0271 5.22088 11.2115C5.01958 11.4319 4.86098 11.6878 4.75317 11.9662C2.34782 12.2138 2.18275 13.9903 2.92558 13.9903C3.66841 13.9903 2.8116 13.0667 4.6274 12.7797C4.48591 14.0925 4.36014 15.0043 3.24393 15.5506C3.16786 15.5916 3.1074 15.6564 3.0719 15.7352C3.03639 15.8139 3.02782 15.9022 3.0475 15.9863C3.06719 16.0704 3.11403 16.1457 3.1808 16.2005C3.24757 16.2553 3.33053 16.2866 3.41687 16.2895C3.6802 16.2895 4.4977 15.7982 4.89074 15.0082C5.20143 15.3724 5.6246 15.6227 6.09341 15.7196C6.19765 15.7332 6.303 15.7048 6.38629 15.6406C6.46958 15.5765 6.52399 15.4819 6.53754 15.3777C6.55109 15.2734 6.52268 15.1681 6.45855 15.0848C6.39443 15.0015 6.29984 14.9471 6.1956 14.9336C5.77736 14.7882 5.42475 14.4983 5.20123 14.116C5.56675 12.5439 5.20123 12.3867 5.80257 11.7146C6.41963 11.9269 6.76157 11.5496 7.63017 10.9286L7.64196 15.5035ZM18.1398 18.1721C17.904 18.8914 16.8821 18.6988 16.2651 18.3451C15.5795 17.861 14.8459 17.4488 14.0759 17.1149C13.2191 16.7612 12.3583 16.3642 12.3583 15.5035V10.9521C13.2545 11.5771 13.5728 11.9387 14.182 11.7382C14.7833 12.4181 14.4021 12.485 14.7873 14.1396C14.5638 14.5219 14.2111 14.8117 13.7929 14.9571C13.6887 14.9707 13.5941 15.0251 13.53 15.1084C13.4658 15.1917 13.4374 15.297 13.451 15.4013C13.4645 15.5055 13.5189 15.6001 13.6022 15.6642C13.6855 15.7283 13.7909 15.7568 13.8951 15.7432C14.3724 15.6452 14.8013 15.3856 15.1096 15.0082C15.5026 15.7943 16.3358 16.2895 16.5952 16.2895C16.6843 16.2899 16.7709 16.26 16.8408 16.2047C16.9106 16.1494 16.9596 16.072 16.9797 15.9852C16.9998 15.8984 16.9899 15.8073 16.9514 15.7269C16.913 15.6465 16.8484 15.5816 16.7682 15.5428C15.6598 15.0004 15.5301 14.116 15.3847 12.7915C17.2005 13.0784 16.3791 14.0021 17.0865 14.0021C17.794 14.0021 17.6682 12.2256 15.2589 11.978C15.1464 11.6984 14.9824 11.4424 14.7755 11.2233C14.8612 11.0389 14.8883 10.8327 14.8532 10.6324C14.818 10.4321 14.7223 10.2474 14.579 10.1032C14.2213 9.74553 14.4218 10.1032 14.9288 9.15991C15.6126 9.28569 15.5812 9.55295 15.8838 9.55295C15.9642 9.55295 16.0426 9.52833 16.1085 9.48241C16.1745 9.43648 16.2247 9.37145 16.2526 9.29608C16.2804 9.22071 16.2845 9.13862 16.2642 9.06086C16.244 8.98311 16.2004 8.91343 16.1393 8.86121C15.8643 8.63298 15.5378 8.47515 15.1882 8.40136C15.2493 8.05556 15.2493 7.70171 15.1882 7.3559C15.1725 7.25166 15.1161 7.1579 15.0314 7.09525C14.9466 7.0326 14.8404 7.00619 14.7362 7.02182C14.6319 7.03746 14.5382 7.09386 14.4755 7.17863C14.4129 7.26339 14.3865 7.36957 14.4021 7.47381C14.4684 7.80974 14.4495 8.15692 14.3472 8.48369C14.2449 8.81047 14.0625 9.10644 13.8165 9.34464L12.6924 8.22057C13.0459 7.42178 13.201 6.54934 13.1444 5.67765C13.1444 4.89159 14.9602 5.30427 15.7895 6.41262C17.6412 8.82715 18.6454 11.7846 18.6469 14.8274C18.6469 16.8869 18.6979 16.4939 18.1398 18.1603V18.1721Z" fill="#4D69FF"/>
<path d="M16.4144 5.93705C15.1096 4.19199 12.3583 3.95617 12.3583 5.67765C12.4036 6.33154 12.3167 6.98785 12.1029 7.60744C11.3993 6.85675 11.5723 6.617 11.5723 0.961269C11.5723 0.857031 11.5309 0.757061 11.4572 0.683354C11.3835 0.609646 11.2835 0.568237 11.1792 0.568237C11.075 0.568237 10.975 0.609646 10.9013 0.683354C10.8276 0.757061 10.7862 0.857031 10.7862 0.961269V6.27113C10.7862 7.72535 11.5251 8.14982 14.013 10.6377C14.0482 10.6757 14.0682 10.7252 14.0695 10.7769C14.0707 10.8286 14.053 10.879 14.0197 10.9186C13.9864 10.9582 13.9398 10.9842 13.8886 10.9918C13.8374 10.9995 13.7852 10.9882 13.7418 10.96L10.6762 8.82191C10.478 8.68324 10.242 8.60887 10.0001 8.60887C9.7583 8.60887 9.52229 8.68324 9.32414 8.82191C6.08948 11.0858 6.17988 11.1211 5.98729 10.9443C5.94793 10.9045 5.92585 10.8509 5.92585 10.7949C5.92585 10.739 5.94793 10.6853 5.98729 10.6456L8.42802 8.21664C8.68584 7.95881 8.88984 7.65231 9.02816 7.31494C9.16648 6.97758 9.23636 6.61609 9.23374 6.25148V0.961269C9.23374 0.857031 9.19233 0.757061 9.11862 0.683354C9.04491 0.609646 8.94494 0.568237 8.84071 0.568237C8.73647 0.568237 8.6365 0.609646 8.56279 0.683354C8.48908 0.757061 8.44767 0.857031 8.44767 0.961269V6.27113C8.44873 6.76813 8.25878 7.24653 7.91708 7.60744C7.69883 6.98866 7.60533 6.33277 7.64196 5.67765C7.64196 4.00334 4.94969 4.17627 3.63303 5.87417C1.6487 8.4372 0.570521 11.586 0.567384 14.8274C0.567384 16.9695 0.528081 16.655 1.1137 18.404C1.21376 18.7065 1.40746 18.9693 1.66676 19.1544C1.92607 19.3396 2.23754 19.4374 2.55613 19.4338C3.31509 19.4217 4.0488 19.1592 4.64313 18.687C6.36854 17.5276 8.42802 17.39 8.42802 15.5035V10.394C9.80363 9.43111 9.92547 9.24245 10.2242 9.45076L11.5723 10.394V15.5035C11.5723 16.769 12.5784 17.3664 13.785 17.8616C14.5193 18.1846 15.2197 18.5796 15.876 19.0407C16.9922 19.6814 18.4778 19.6657 18.8866 18.4315C19.4879 16.6118 19.4329 16.9184 19.4329 14.8274C19.4303 11.6129 18.3696 8.48864 16.4144 5.93705ZM7.64196 15.5035C7.64196 16.3721 6.78515 16.7729 5.92441 17.1149C5.15459 17.4469 4.41989 17.8551 3.73129 18.3333C3.08672 18.7067 2.09628 18.8717 1.86046 18.1564C1.29842 16.4782 1.35345 16.8515 1.35345 14.8274C1.35515 11.7828 2.36084 8.82379 4.21472 6.40869C4.47476 6.05785 4.81383 5.77324 5.20443 5.57794C5.59503 5.38263 6.02617 5.28215 6.46286 5.28462C7.24893 5.28462 6.46286 6.32616 7.30395 8.21271L6.17988 9.33285C5.9339 9.09465 5.75146 8.79868 5.64917 8.4719C5.54688 8.14513 5.52801 7.79795 5.59426 7.46202C5.602 7.4104 5.5995 7.35777 5.58691 7.30712C5.57431 7.25648 5.55186 7.20881 5.52083 7.16683C5.48981 7.12486 5.45083 7.08941 5.4061 7.06251C5.36138 7.0356 5.3118 7.01777 5.26018 7.01003C5.20857 7.00229 5.15594 7.00479 5.10529 7.01739C5.05464 7.02999 5.00697 7.05244 4.965 7.08346C4.92303 7.11448 4.88758 7.15347 4.86068 7.19819C4.83377 7.24291 4.81594 7.29249 4.8082 7.34411C4.74707 7.68991 4.74707 8.04377 4.8082 8.38957C4.45852 8.46336 4.13207 8.62119 3.85706 8.84942C3.796 8.90164 3.75241 8.97132 3.73216 9.04907C3.71191 9.12683 3.71597 9.20892 3.74381 9.28429C3.77165 9.35966 3.82191 9.42469 3.88784 9.47062C3.95377 9.51654 4.03219 9.54116 4.11253 9.54116C4.39945 9.54116 4.40338 9.2621 5.07153 9.14812C5.57854 10.1111 5.77506 9.72981 5.4174 10.0914C5.27404 10.2356 5.17834 10.4203 5.1432 10.6206C5.10806 10.8209 5.13518 11.0271 5.22088 11.2115C5.01958 11.4319 4.86098 11.6878 4.75317 11.9662C2.34782 12.2138 2.18275 13.9903 2.92558 13.9903C3.66841 13.9903 2.8116 13.0667 4.6274 12.7797C4.48591 14.0925 4.36014 15.0043 3.24393 15.5506C3.16786 15.5916 3.1074 15.6564 3.0719 15.7352C3.03639 15.8139 3.02782 15.9022 3.0475 15.9863C3.06719 16.0704 3.11403 16.1457 3.1808 16.2005C3.24757 16.2553 3.33053 16.2866 3.41687 16.2895C3.6802 16.2895 4.4977 15.7982 4.89074 15.0082C5.20143 15.3724 5.6246 15.6227 6.09341 15.7196C6.19765 15.7332 6.303 15.7048 6.38629 15.6406C6.46958 15.5765 6.52399 15.4819 6.53754 15.3777C6.55109 15.2734 6.52268 15.1681 6.45855 15.0848C6.39443 15.0015 6.29984 14.9471 6.1956 14.9336C5.77736 14.7882 5.42475 14.4983 5.20123 14.116C5.56675 12.5439 5.20123 12.3867 5.80257 11.7146C6.41963 11.9269 6.76157 11.5496 7.63017 10.9286L7.64196 15.5035ZM18.1398 18.1721C17.904 18.8914 16.8821 18.6988 16.2651 18.3451C15.5795 17.861 14.8459 17.4488 14.0759 17.1149C13.2191 16.7612 12.3583 16.3642 12.3583 15.5035V10.9521C13.2545 11.5771 13.5728 11.9387 14.182 11.7382C14.7833 12.4181 14.4021 12.485 14.7873 14.1396C14.5638 14.5219 14.2111 14.8117 13.7929 14.9571C13.6887 14.9707 13.5941 15.0251 13.53 15.1084C13.4658 15.1917 13.4374 15.297 13.451 15.4013C13.4645 15.5055 13.5189 15.6001 13.6022 15.6642C13.6855 15.7283 13.7909 15.7568 13.8951 15.7432C14.3724 15.6452 14.8013 15.3856 15.1096 15.0082C15.5026 15.7943 16.3358 16.2895 16.5952 16.2895C16.6843 16.2899 16.7709 16.26 16.8408 16.2047C16.9106 16.1494 16.9596 16.072 16.9797 15.9852C16.9998 15.8984 16.9899 15.8073 16.9514 15.7269C16.913 15.6465 16.8484 15.5816 16.7682 15.5428C15.6598 15.0004 15.5301 14.116 15.3847 12.7915C17.2005 13.0784 16.3791 14.0021 17.0865 14.0021C17.794 14.0021 17.6682 12.2256 15.2589 11.978C15.1464 11.6984 14.9824 11.4424 14.7755 11.2233C14.8612 11.0389 14.8883 10.8327 14.8532 10.6324C14.818 10.4321 14.7223 10.2474 14.579 10.1032C14.2213 9.74553 14.4218 10.1032 14.9288 9.15991C15.6126 9.28569 15.5812 9.55295 15.8838 9.55295C15.9642 9.55295 16.0426 9.52833 16.1085 9.48241C16.1745 9.43648 16.2247 9.37145 16.2526 9.29608C16.2804 9.22071 16.2845 9.13862 16.2642 9.06086C16.244 8.98311 16.2004 8.91343 16.1393 8.86121C15.8643 8.63298 15.5378 8.47515 15.1882 8.40136C15.2493 8.05556 15.2493 7.70171 15.1882 7.3559C15.1725 7.25166 15.1161 7.1579 15.0314 7.09525C14.9466 7.0326 14.8404 7.00619 14.7362 7.02182C14.6319 7.03746 14.5382 7.09386 14.4755 7.17863C14.4129 7.26339 14.3865 7.36957 14.4021 7.47381C14.4684 7.80974 14.4495 8.15692 14.3472 8.48369C14.2449 8.81047 14.0625 9.10644 13.8165 9.34464L12.6924 8.22057C13.0459 7.42178 13.201 6.54934 13.1444 5.67765C13.1444 4.89159 14.9602 5.30427 15.7895 6.41262C17.6412 8.82715 18.6454 11.7846 18.6469 14.8274C18.6469 16.8869 18.6979 16.4939 18.1398 18.1603V18.1721Z" stroke="#4D69FF" stroke-width="0.4" mask="url(#path-1-outside-1_604_13785)"/>
</svg>
