<svg width="18" height="18" viewBox="0 0 18 18" fill="none" xmlns="http://www.w3.org/2000/svg">
<path d="M3.25476 14.7452C2.53569 14.0262 3.01262 12.5165 2.64662 11.632C2.26722 10.715 0.875 9.97695 0.875 8.99997C0.875 8.02301 2.26722 7.285 2.64663 6.36803C3.01263 5.48346 2.5357 3.97382 3.25476 3.25476C3.97382 2.53569 5.48346 3.01262 6.36804 2.64662C7.28502 2.26722 8.02305 0.875 9.00003 0.875C9.97699 0.875 10.715 2.26722 11.632 2.64663C12.5165 3.01263 14.0262 2.5357 14.7452 3.25476C15.4643 3.97382 14.9874 5.48346 15.3534 6.36804C15.7328 7.28502 17.125 8.02305 17.125 9.00003C17.125 9.97699 15.7328 10.715 15.3534 11.632C14.9874 12.5165 15.4643 14.0262 14.7452 14.7452C14.0262 15.4643 12.5165 14.9874 11.632 15.3534C10.715 15.7328 9.97695 17.125 8.99997 17.125C8.02301 17.125 7.285 15.7328 6.36803 15.3534C5.48346 14.9874 3.97382 15.4643 3.25476 14.7452Z" fill="#535567"/>
</svg>
