<svg width="144" height="144" viewBox="0 0 144 144" fill="none" xmlns="http://www.w3.org/2000/svg">
<path d="M143.996 72.375C143.996 78 143.246 83.625 142.121 88.875C141.371 92.25 140.246 95.25 139.121 98.25C131.996 117 116.996 132 98.2466 139.125C96.7467 139.5 95.6217 140.25 94.1217 140.625C86.9969 142.875 79.8721 144 71.9973 144C32.2482 144 -0.000976562 111.75 -0.000976562 72C-0.000976562 32.25 32.2482 0 71.9973 0C111.746 0.375 143.996 32.625 143.996 72.375Z" fill="#0CBC67"/>
<path d="M64.4969 100.5C62.247 100.5 59.9971 99.75 58.4971 97.875L41.9975 81.375C38.6226 78 38.6226 72.75 41.9975 69.375C45.3724 66 50.6223 66 53.9972 69.375L64.4969 79.875L94.4962 49.875C97.8711 46.5 103.121 46.5 106.496 49.875C109.871 53.25 109.871 58.5 106.496 61.875L70.4968 97.875C68.9968 99.75 66.7469 100.5 64.4969 100.5Z" fill="white"/>
</svg>
