<svg width="110" height="54" viewBox="0 0 110 54" fill="none" xmlns="http://www.w3.org/2000/svg">
<path d="M1.65394 50.0222C2.22072 51.8315 4.6405 52.224 6.3846 52.224C8.23759 52.224 11.1153 51.6574 11.1153 49.4554C11.1153 47.5589 8.82624 47.4065 6.42833 47.2102C3.4199 46.9703 0.193673 46.6871 0.193673 43.4388C0.193673 40.5613 3.50715 39.2749 6.16681 39.2749C8.45582 39.2749 11.3116 39.8201 12.2272 42.3052C12.5541 43.177 11.0717 43.5698 10.7448 42.8285C10.0908 41.1716 7.75827 40.8882 6.18867 40.8882C4.72819 40.8882 1.89404 41.4769 1.89404 43.4606C1.89404 45.3574 4.07416 45.5535 6.60283 45.7497C9.5894 46.0114 12.794 46.1638 12.794 49.4338C12.794 52.7693 9.06612 53.7938 6.38482 53.7938C4.16118 53.7938 0.760461 53.0309 0.0410435 50.4147C-0.220924 49.4554 1.47944 49.1287 1.65394 50.0222Z" fill="white"/>
<path d="M20.6624 47.8643L15.1469 40.5612C14.4929 39.6891 15.9317 38.8824 16.5204 39.7547L21.4472 46.4908L26.4393 39.7329C26.9843 38.9043 28.3359 39.6019 27.7472 40.5177L22.2755 47.8643V52.7473C22.2755 53.2925 21.8395 53.5538 21.4688 53.5538C21.0328 53.5538 20.6624 53.2922 20.6624 52.7473V47.8643Z" fill="white"/>
<path d="M41.196 40.1254C41.196 39.2096 42.8526 39.1661 42.8526 40.1254V52.6385C42.8526 53.7285 41.3484 53.8374 40.8908 53.0745L32.7375 42.1529L32.912 45.1611V52.8565C32.912 53.9247 31.2554 53.9465 31.2554 52.8565V40.3651C31.2554 39.275 32.4762 39.1007 33.0211 39.9074L41.414 51.1342L41.196 47.8426V40.1254Z" fill="white"/>
<path d="M49.3266 49.8045L47.5606 53.2487C47.1683 54.0554 45.7295 53.4886 46.1218 52.6168L52.7055 39.6456C52.8362 39.3624 53.1415 39.2314 53.4249 39.2314C53.7083 39.2314 53.9698 39.3624 54.1224 39.6456L60.6844 52.5512C61.2508 53.4886 59.6379 54.0337 59.2237 53.1833L57.5236 49.8045H49.3266ZM53.4249 41.5642L49.9804 48.4312H56.8472L53.4249 41.5642Z" fill="white"/>
<path d="M65.8057 49.3683V52.8782C65.8057 53.881 64.2363 53.8591 64.2363 52.9V40.343C64.2363 39.8853 64.607 39.5801 65.043 39.5801H69.7734C73.5448 39.5801 75.3105 42.0871 75.3105 44.5941C75.3105 47.2101 73.5227 49.3681 69.7078 49.3681H65.8057V49.3683ZM65.8057 47.9511H69.7078C72.6074 47.9511 73.8063 46.2508 73.7626 44.5941C73.7409 42.8063 72.3238 40.997 69.7953 40.997H65.8057V47.9511Z" fill="white"/>
<path d="M88.9782 39.5801C90.0464 39.5801 90.0464 41.0843 88.9782 41.0843H84.117C84.117 45.0085 84.1387 48.9977 84.1387 52.9217C84.1387 53.4668 83.681 53.7283 83.3104 53.7283C82.9397 53.7283 82.5256 53.4666 82.5256 52.9217V41.0843H77.686C76.6613 41.0843 76.6613 39.5801 77.686 39.5801H88.9782Z" fill="white"/>
<path d="M92.8135 39.8855C92.8135 38.7955 94.4485 38.8173 94.4485 39.8855V52.9219C94.4485 53.9247 92.8135 53.9682 92.8135 52.9219V39.8855Z" fill="white"/>
<path d="M100.639 52.0281H109.25C110.165 52.0281 110.296 53.4669 109.25 53.4669H100.072C99.4614 53.4669 99.0693 53.0309 99.0693 52.5076V40.5395C99.0693 40.0381 99.4614 39.6021 100.072 39.6021H109.271C110.209 39.6021 110.165 40.9971 109.25 40.9971H100.639V45.9021H108.835C109.707 45.9021 109.751 47.2972 108.835 47.2972H100.639V52.0281H100.639Z" fill="white"/>
<path d="M61.4814 8.96881H60.0678C60.0678 7.49596 58.7436 6.29767 57.1161 6.29767H53.7872C52.1597 6.29767 50.8355 7.49596 50.8355 8.96881H49.4219C49.4219 6.71646 51.3802 4.88379 53.7872 4.88379H57.1161C59.5229 4.88379 61.4814 6.71624 61.4814 8.96881Z" fill="#4D69FF"/>
<path d="M57.1156 16.7164H53.7867C51.3797 16.7164 49.4214 14.8839 49.4214 12.6313H50.835C50.835 14.1042 52.1592 15.3025 53.7867 15.3025H57.1156C58.7431 15.3025 60.0673 14.1042 60.0673 12.6313H61.481C61.4812 14.8837 59.5226 16.7164 57.1156 16.7164Z" fill="#4D69FF"/>
<path d="M37.9222 19.221C36.7215 19.221 35.7657 18.8724 35.0816 18.185C34.2065 17.3068 34.1621 16.2366 34.1621 16.031V5.16241C34.1621 5.00823 34.1601 4.85517 34.1581 4.70408C34.1431 3.47685 34.1263 2.1056 35.0834 1.13703C35.7027 0.510381 36.5704 0.205566 37.736 0.205566C40.8957 0.205566 43.1017 1.6296 45.8746 5.45972C46.6683 6.55552 48.2171 7.83732 49.9714 7.84328H51.332C51.3568 7.84328 51.3817 7.8446 51.4062 7.84725C52.2977 7.94157 52.8515 8.58213 52.8515 9.51912V12.1739C52.8515 13.0391 52.3808 13.6532 51.5924 13.8164C51.5447 13.8264 51.5008 13.8378 51.4467 13.8312C51.4467 13.8312 48.512 13.8215 48.0329 13.8215C47.2002 13.8215 46.644 14.3722 45.8055 15.2709C45.6131 15.477 45.4143 15.6902 45.2043 15.8974C43.8511 17.2324 41.9986 19.0602 38.1822 19.2159C38.0931 19.2192 38.0068 19.221 37.9222 19.221ZM37.7362 1.61944C36.9677 1.61944 36.4292 1.78665 36.0891 2.13079C35.5472 2.67902 35.5592 3.64583 35.5715 4.66962C35.5737 4.84302 35.576 5.00227 35.576 5.16241V16.031C35.576 16.0575 35.5817 16.6841 36.0833 17.1875C36.4928 17.5988 37.1113 17.8073 37.9222 17.8073C37.988 17.8073 38.0554 17.806 38.125 17.8031C41.3949 17.6697 42.8912 16.1936 44.2112 14.891C44.4007 14.7039 44.5895 14.5016 44.7722 14.3061C45.6027 13.4162 46.5439 12.4076 48.0333 12.4076C48.463 12.4076 50.8633 12.4156 51.3612 12.4171C51.41 12.3961 51.438 12.3473 51.438 12.1739V9.51912C51.438 9.29536 51.3978 9.26997 51.2929 9.25693H49.9692C47.6848 9.2492 45.7653 7.7187 44.7298 6.2887C42.202 2.79763 40.4374 1.61944 37.7362 1.61944Z" fill="#4D69FF"/>
<path d="M72.9791 19.221C72.8945 19.221 72.8086 19.2192 72.7189 19.2155C68.902 19.0597 67.0495 17.2317 65.6968 15.8969C65.4867 15.6897 65.2877 15.4766 65.0953 15.2703C64.2569 14.3717 63.7007 13.821 62.8679 13.821C62.3888 13.821 59.4542 13.8308 59.4542 13.8308C59.4067 13.8297 59.3566 13.8261 59.3084 13.816C58.5205 13.6527 58.0498 13.0387 58.0498 12.1735V9.51912C58.0498 8.58191 58.6036 7.94135 59.495 7.84725C59.5196 7.8446 59.5445 7.84328 59.5693 7.84328H60.9321C62.6842 7.83754 64.233 6.55552 65.0266 5.45972C67.7998 1.62982 70.0056 0.205566 73.1651 0.205566C74.3309 0.205566 75.1988 0.510166 75.8181 1.13681C76.7745 2.10495 76.758 3.47552 76.7434 4.68464C76.7414 4.8439 76.7394 5.00249 76.7394 5.16241V16.031C76.7394 16.2366 76.695 17.3064 75.8192 18.1853C75.1358 18.8724 74.1801 19.221 72.9791 19.221ZM62.8682 12.4076C64.3574 12.4076 65.2988 13.4162 66.1291 14.3059C66.3117 14.5016 66.5006 14.7039 66.6899 14.8908C68.0101 16.1933 69.5062 17.6697 72.7768 17.8031C73.701 17.8403 74.3755 17.6324 74.8177 17.188C75.32 16.6837 75.326 16.0575 75.326 16.031V5.16241C75.326 4.99675 75.328 4.83241 75.33 4.67028C75.3426 3.64472 75.354 2.67858 74.8127 2.13057C74.4727 1.78643 73.9338 1.61944 73.1653 1.61944C70.4644 1.61944 68.6997 2.79763 66.1719 6.28892C65.1364 7.71892 63.2169 9.24942 60.9348 9.25716H59.6088C59.5039 9.27019 59.4639 9.29558 59.4639 9.51934V12.1741C59.4639 12.3475 59.4917 12.3963 59.5405 12.4173C60.0384 12.4153 62.4388 12.4076 62.8682 12.4076Z" fill="#4D69FF"/>
<path d="M31.4849 6.86047C32.0033 6.86047 32.4235 6.44028 32.4235 5.92194C32.4235 5.4036 32.0033 4.9834 31.4849 4.9834C30.9666 4.9834 30.5464 5.4036 30.5464 5.92194C30.5464 6.44028 30.9666 6.86047 31.4849 6.86047Z" fill="#4D69FF"/>
<path d="M31.4851 10.6524C32.0036 10.6524 32.4239 10.2321 32.4239 9.71366C32.4239 9.1952 32.0036 8.7749 31.4851 8.7749C30.9667 8.7749 30.5464 9.1952 30.5464 9.71366C30.5464 10.2321 30.9667 10.6524 31.4851 10.6524Z" fill="#4D69FF"/>
<path d="M31.4849 14.4435C32.0033 14.4435 32.4235 14.0233 32.4235 13.5049C32.4235 12.9866 32.0033 12.5664 31.4849 12.5664C30.9666 12.5664 30.5464 12.9866 30.5464 13.5049C30.5464 14.0233 30.9666 14.4435 31.4849 14.4435Z" fill="#4D69FF"/>
<path d="M79.4171 6.86047C79.9354 6.86047 80.3556 6.44028 80.3556 5.92194C80.3556 5.4036 79.9354 4.9834 79.4171 4.9834C78.8987 4.9834 78.4785 5.4036 78.4785 5.92194C78.4785 6.44028 78.8987 6.86047 79.4171 6.86047Z" fill="#4D69FF"/>
<path d="M79.4173 10.6524C79.9357 10.6524 80.356 10.2321 80.356 9.71366C80.356 9.1952 79.9357 8.7749 79.4173 8.7749C78.8988 8.7749 78.4785 9.1952 78.4785 9.71366C78.4785 10.2321 78.8988 10.6524 79.4173 10.6524Z" fill="#4D69FF"/>
<path d="M79.4171 14.4435C79.9354 14.4435 80.3556 14.0233 80.3556 13.5049C80.3556 12.9866 79.9354 12.5664 79.4171 12.5664C78.8987 12.5664 78.4785 12.9866 78.4785 13.5049C78.4785 14.0233 78.8987 14.4435 79.4171 14.4435Z" fill="#4D69FF"/>
</svg>
