<svg width="55" height="45" viewBox="0 0 55 45" fill="none" xmlns="http://www.w3.org/2000/svg">
<path fill-rule="evenodd" clip-rule="evenodd" d="M42.9979 4.80947C42.6446 24.0987 29.5728 38.5913 10.1214 37.8401C9.47382 37.815 8.92848 38.3195 8.90021 38.9609C8.8765 39.6111 9.38137 40.1573 10.029 40.1824C30.8825 40.9958 44.9634 25.5252 45.3454 4.85558C45.3585 4.21081 44.8403 3.6713 44.1919 3.65781C43.5482 3.65317 43.0109 4.1647 42.9979 4.80947Z" fill="#4D69FF"/>
<path d="M19.4749 24.8338C21.1534 23.9703 21.8142 21.9097 20.9508 20.2312C20.0873 18.5528 18.0267 17.8921 16.3482 18.7555C14.6697 19.6189 14.009 21.6795 14.8724 23.358C15.7359 25.0365 17.7965 25.6972 19.4749 24.8338Z" fill="#4D69FF"/>
<path d="M30.3935 15.1288C32.0392 14.2823 32.687 12.2619 31.8405 10.6163C30.9939 8.97058 28.9736 8.3228 27.3279 9.16935C25.6822 10.0159 25.0344 12.0362 25.8809 13.6819C26.7275 15.3276 28.7478 15.9754 30.3935 15.1288Z" fill="#4D69FF"/>
</svg>
