<svg width="188" height="16" viewBox="0 0 188 16" fill="none" preserveAspectRatio="none" xmlns="http://www.w3.org/2000/svg">
<path fill-rule="evenodd" clip-rule="evenodd" d="M112.512 7.30784C87.4927 7.59202 62.4608 8.71935 37.5504 10.7344C25.7072 11.6926 11.9536 11.5729 0.467183 14.8397C-0.105158 15.0041 0.00384231 15.4973 0.0162306 15.5467C0.0410073 15.6476 0.145096 15.9835 0.600986 15.9999C0.650539 16.0023 0.999866 15.9553 1.13366 15.9389C4.52558 15.5161 7.90512 15.0229 11.2995 14.6237C23.0189 13.2404 34.7729 12.1953 46.5443 11.2793C62.1685 10.0628 77.9264 9.41452 93.5927 8.90723C102.168 8.6301 110.949 8.99882 119.551 8.42576C122.71 8.40932 125.869 8.40702 129.028 8.41642C142.234 8.46104 155.425 8.93545 168.609 9.586C172.848 9.79503 176.082 10.0205 180.232 10.1731C181.807 10.2319 184.307 10.2718 186.047 10.2976C186.302 10.3023 186.954 10.307 187.224 10.3093C187.251 10.314 187.278 10.314 187.308 10.314C187.412 10.314 187.461 10.307 187.471 10.307C188.061 10.2248 188.007 9.69636 187.992 9.61651C187.989 9.60007 187.9 9.15383 187.392 9.13739C187.271 9.13269 186.401 9.12804 186.067 9.12334C184.337 9.09751 181.847 9.05758 180.279 9.00121C176.136 8.84855 172.905 8.62309 168.673 8.41407C155.47 7.76351 142.259 7.28675 129.033 7.24213C127.418 7.23743 125.8 7.23508 124.184 7.23743C124.13 7.10356 124.009 6.95325 123.741 6.88749C123.491 6.82643 121.699 6.77242 121.008 6.7184C115.892 6.31915 116.043 6.33793 110.414 6.01148C101.888 5.51593 100.59 5.40315 91.722 5.19412C75.6147 4.81366 59.5 4.84423 43.3902 4.8818C35.4369 4.90294 26.9212 5.41257 18.8465 4.4614C21.5075 4.16548 24.1784 3.94941 26.8444 3.70281C35.9473 2.86202 45.0577 2.34062 54.1978 1.97424C76.1227 1.09587 98.0822 0.745962 120 1.94373C115.334 1.98601 110.671 2.08462 106.006 2.14803C87.0145 2.41107 67.8398 2.21381 48.8882 3.57833C48.5487 3.60417 48.2935 3.88598 48.3183 4.20773C48.3431 4.53184 48.6429 4.77375 48.9823 4.75027C67.9092 3.38575 87.0566 3.58536 106.023 3.32232C113.07 3.22603 120.114 3.05225 127.16 3.10392C129.578 3.1227 131.996 3.20727 134.415 3.23545C134.893 3.2425 136.124 3.33174 136.3 3.29416C136.689 3.21196 136.773 2.93951 136.798 2.80564C136.811 2.72579 136.85 2.26547 136.256 2.10107C132.197 0.978452 124.707 1.03012 120.763 0.809355C98.5753 -0.435389 76.3432 -0.0878092 54.1458 0.799952C44.9834 1.16868 35.8507 1.69244 26.723 2.53558C23.5342 2.82915 20.3381 3.0828 17.1617 3.47266C16.6488 3.53607 15.4967 3.62768 14.9392 3.72397C14.7063 3.7639 14.5378 3.82022 14.4635 3.86015C14.1736 4.01516 14.1216 4.24062 14.1216 4.39328C14.1191 4.51071 14.1711 4.92406 14.7782 5.03679C24.0273 6.7536 34.0916 6.07958 43.3927 6.05609C59.4926 6.01851 75.5949 5.98794 91.6923 6.36841C100.538 6.57743 101.831 6.68787 110.339 7.18342C111.179 7.23039 111.89 7.27261 112.512 7.30784Z" fill="#4D69FF"/>
</svg>
