<?xml version="1.0" standalone="no"?>
<!DOCTYPE svg PUBLIC "-//W3C//DTD SVG 20010904//EN"
 "http://www.w3.org/TR/2001/REC-SVG-20010904/DTD/svg10.dtd">
<svg version="1.0" xmlns="http://www.w3.org/2000/svg"
 width="2240.000000pt" height="2240.000000pt" viewBox="0 0 2240.000000 2240.000000"
 preserveAspectRatio="xMidYMid meet">
<metadata>
Created by potrace 1.14, written by Peter Selinger 2001-2017
</metadata>
<g transform="translate(0.000000,2240.000000) scale(0.100000,-0.100000)"
fill="#000000" stroke="none">
<path d="M3317 15054 c-1 -1 -38 -5 -82 -8 -213 -16 -468 -80 -585 -147 -8 -5
-28 -15 -45 -22 -107 -49 -256 -168 -366 -294 -59 -67 -186 -279 -195 -323 0
-3 -5 -16 -11 -30 -14 -34 -44 -121 -48 -140 -2 -8 -8 -35 -15 -60 -7 -25 -13
-54 -15 -65 -2 -11 -5 -33 -8 -50 -3 -16 -9 -50 -12 -75 -4 -25 -9 -56 -11
-70 -2 -14 -6 -65 -9 -115 -7 -99 -7 -5458 -1 -5515 6 -49 23 -145 26 -145 1
0 3 -11 5 -25 8 -62 41 -157 91 -265 15 -33 27 -63 26 -67 -1 -5 2 -8 8 -8 5
0 10 -5 10 -11 0 -14 100 -167 129 -196 12 -13 20 -23 17 -23 -9 0 130 -136
184 -180 30 -25 58 -49 62 -55 5 -7 8 -7 8 0 0 7 3 7 8 0 23 -32 219 -138 322
-174 36 -13 74 -27 85 -31 30 -13 175 -49 215 -54 19 -3 35 -5 35 -6 0 -1 14
-4 30 -5 17 -2 50 -6 75 -10 52 -9 540 -14 554 -7 5 3 28 6 50 8 23 1 68 5
101 9 33 3 78 8 100 10 22 2 55 6 73 9 17 3 47 8 65 11 17 3 57 10 87 15 30 5
73 12 94 16 22 3 50 10 63 15 13 5 23 7 23 4 0 -2 38 7 85 20 47 13 85 21 85
19 0 -3 8 0 18 5 11 6 30 12 43 14 13 3 53 15 89 27 36 12 72 23 80 25 31 7
165 58 175 67 5 4 19 8 32 8 13 0 23 5 23 11 0 6 7 9 15 5 8 -3 15 -1 15 4 0
6 5 10 11 10 19 0 246 108 254 121 4 5 12 9 20 9 14 0 255 136 265 149 3 4 28
20 55 36 28 15 52 31 55 35 3 3 34 26 70 51 36 24 70 49 76 54 6 6 22 17 34
25 12 8 30 22 40 30 9 8 32 26 50 40 18 14 38 30 44 35 6 6 27 23 46 39 59 48
171 148 223 199 26 26 50 47 53 47 7 0 427 424 549 554 108 116 256 264 305
306 14 12 37 32 52 46 15 13 32 24 37 24 5 0 11 4 13 8 5 14 104 80 166 112
83 42 167 67 252 77 97 11 759 8 770 -3 4 -5 15 -30 24 -56 29 -87 134 -293
169 -332 9 -11 17 -26 17 -33 0 -7 4 -13 8 -13 4 0 15 -12 24 -27 9 -16 25
-38 35 -49 10 -12 38 -46 63 -75 61 -72 197 -202 256 -244 15 -11 40 -30 55
-42 15 -13 30 -23 33 -23 6 0 64 -38 76 -50 17 -17 192 -105 275 -139 44 -17
89 -36 100 -41 34 -14 160 -50 176 -50 9 0 19 -3 23 -7 4 -4 17 -8 29 -9 12
-1 49 -8 82 -14 66 -14 85 -16 195 -26 84 -8 1692 -8 1755 0 22 2 67 7 100 11
33 3 80 11 105 16 25 6 56 13 70 15 14 3 43 10 65 16 22 6 48 13 58 15 10 2
60 19 111 38 52 19 99 35 105 35 6 0 11 5 11 10 0 6 6 10 13 10 16 0 206 98
240 124 14 10 28 18 32 17 4 -2 11 1 14 6 3 4 33 28 66 52 33 25 61 48 63 53
2 4 7 8 12 8 9 0 125 105 175 160 80 86 100 111 163 199 83 118 104 155 182
326 5 11 18 42 29 70 15 41 24 51 47 55 33 6 741 3 764 -3 8 -2 33 -7 55 -12
22 -4 59 -16 83 -26 23 -10 43 -18 45 -17 9 5 172 -93 214 -128 50 -44 61 -52
65 -49 2 2 105 -100 228 -227 454 -466 729 -737 857 -845 12 -10 32 -27 45
-38 328 -278 639 -477 998 -638 134 -60 444 -169 491 -173 9 -1 21 -4 28 -8 6
-4 21 -9 33 -11 13 -3 59 -14 103 -24 44 -11 91 -22 105 -24 14 -3 36 -8 50
-11 27 -6 50 -10 145 -26 56 -9 91 -14 171 -25 58 -8 149 -17 200 -20 28 -1
55 -4 60 -7 12 -7 490 -2 534 5 19 3 53 8 75 11 62 8 140 24 199 41 29 9 63
17 74 20 39 7 206 77 272 113 76 41 192 119 235 157 64 56 132 123 170 169 22
26 45 53 50 60 24 28 55 76 55 85 0 5 4 11 8 13 24 9 172 342 169 378 0 3 5
28 11 55 7 28 14 64 17 80 6 31 18 208 16 235 -1 18 0 68 3 95 1 11 -1 34 -5
51 -3 18 -3 38 1 44 4 7 4 25 0 41 -5 15 -5 44 0 63 4 20 4 38 0 41 -4 3 -5
20 -1 37 7 32 5 92 -3 114 -2 6 -1 17 4 24 4 7 4 25 0 41 -5 15 -5 44 0 63 4
20 4 38 0 41 -4 3 -5 20 -1 37 7 32 5 92 -3 114 -2 6 -1 17 4 24 4 7 4 25 0
41 -5 15 -5 44 0 63 4 20 4 38 0 41 -4 3 -5 20 -1 37 7 32 5 92 -3 114 -2 6
-1 17 4 24 4 7 4 25 0 41 -5 15 -5 44 0 63 4 20 4 38 0 41 -4 3 -5 20 -1 37 7
32 5 92 -3 114 -2 6 -1 17 4 24 4 7 4 25 0 41 -5 15 -5 44 0 63 4 20 4 38 0
41 -4 3 -5 20 -1 37 7 32 5 92 -3 114 -2 6 -1 17 4 24 4 7 4 25 0 41 -5 15 -5
44 0 63 4 20 4 38 0 41 -4 3 -5 20 -1 37 7 32 5 92 -3 114 -2 6 -1 17 4 24 4
7 4 25 0 41 -5 15 -5 44 0 63 4 20 4 38 0 41 -4 3 -5 20 -1 37 7 32 5 92 -3
114 -2 6 -1 17 4 24 4 7 4 25 0 41 -5 15 -5 44 0 63 4 20 4 38 0 41 -4 3 -5
20 -1 37 7 32 5 92 -3 114 -2 6 -1 17 4 24 4 7 4 25 0 41 -5 15 -5 44 0 63 4
20 4 38 0 41 -4 3 -5 20 -1 37 7 32 5 92 -3 114 -2 6 -1 17 4 24 4 7 4 25 0
41 -5 15 -5 44 0 63 4 20 4 38 0 41 -4 3 -5 20 -1 37 7 32 5 92 -3 114 -2 6
-1 17 4 24 4 7 4 25 0 41 -5 15 -5 44 0 63 4 20 4 38 -1 41 -4 3 -6 11 -4 18
9 23 11 82 4 113 -3 18 -3 38 1 44 4 7 4 25 0 41 -5 15 -5 44 0 63 4 20 4 38
0 41 -4 3 -5 20 -1 37 7 32 5 92 -3 114 -2 6 -1 17 4 24 4 7 4 25 0 41 -5 15
-5 44 0 63 4 20 4 38 0 41 -4 3 -5 20 -1 37 7 32 5 92 -3 114 -2 6 -1 17 4 24
4 7 4 25 0 41 -5 15 -5 44 0 63 4 20 4 38 0 41 -4 3 -5 20 -1 37 4 18 6 42 5
53 -5 52 -5 130 0 195 1 14 -3 31 -8 38 -4 6 -5 12 0 12 5 0 8 93 7 207 -2
236 -7 329 -24 458 -7 50 -13 99 -14 110 -1 11 -5 27 -8 35 -3 8 -8 29 -10 45
-17 111 -125 400 -158 421 -5 3 -7 9 -4 13 2 5 -4 16 -15 26 -11 10 -20 22
-20 27 0 24 -131 174 -221 252 -41 36 -223 160 -237 162 -4 0 -34 13 -66 28
-64 29 -198 76 -231 81 -11 2 -38 8 -60 14 -22 6 -62 13 -89 16 -28 4 -54 8
-58 11 -36 23 -682 21 -718 -1 -5 -3 -12 -1 -15 5 -4 7 -11 8 -18 1 -7 -5 -37
-12 -67 -15 -30 -4 -70 -8 -87 -11 -18 -3 -46 -7 -63 -9 -16 -3 -37 -7 -47
-10 -10 -3 -34 -8 -53 -11 -19 -3 -71 -15 -115 -26 -44 -12 -89 -23 -100 -25
-26 -7 -37 -10 -55 -17 -8 -3 -60 -20 -115 -38 -55 -17 -104 -35 -110 -39 -5
-3 -32 -15 -60 -25 -73 -26 -339 -159 -410 -205 -16 -11 -37 -23 -45 -27 -26
-12 -135 -86 -138 -95 -2 -4 -8 -8 -13 -8 -16 0 -108 -67 -102 -74 4 -3 -1 -6
-10 -6 -9 0 -17 -4 -17 -10 0 -5 -6 -10 -14 -10 -8 0 -21 -8 -28 -18 -7 -11
-24 -25 -38 -32 -14 -7 -29 -18 -35 -25 -5 -6 -35 -31 -65 -55 -30 -25 -65
-55 -77 -67 -12 -13 -24 -23 -27 -23 -17 0 -383 -368 -508 -510 -31 -36 -68
-78 -83 -95 -14 -16 -65 -77 -113 -135 -47 -58 -89 -107 -92 -110 -3 -3 -21
-25 -40 -50 -19 -25 -40 -49 -47 -53 -7 -4 -13 -13 -13 -20 0 -7 -16 -29 -35
-49 -19 -20 -35 -39 -35 -42 0 -3 -30 -44 -67 -92 -38 -47 -72 -93 -78 -102
-12 -21 -95 -133 -109 -148 -6 -6 -18 -22 -26 -34 -26 -38 -132 -160 -196
-224 -112 -113 -201 -190 -354 -309 -112 -87 -450 -277 -493 -277 -7 0 -17 -4
-23 -9 -21 -19 -289 -100 -359 -107 -16 -2 -51 -7 -77 -10 -41 -6 -48 -4 -48
10 0 9 -4 24 -9 34 -5 9 -19 42 -31 72 -53 133 -150 305 -221 391 -22 26 -39
49 -39 52 0 4 -10 17 -22 30 -13 13 -44 46 -69 73 -58 61 -159 154 -188 174
-13 8 -33 23 -44 34 -96 82 -357 221 -517 276 -120 41 -228 69 -235 62 -3 -3
-5 0 -5 7 0 7 -4 10 -9 7 -4 -3 -46 1 -91 9 -149 26 -380 39 -380 21 0 -6 -5
-5 -11 1 -7 7 -20 8 -34 3 -12 -4 -27 -5 -33 -1 -6 4 -51 5 -99 4 -48 -2 -92
-3 -98 -3 -5 0 -44 2 -85 3 -41 2 -83 -1 -92 -5 -9 -4 -19 -5 -21 -1 -3 5 -65
7 -139 5 -73 -1 -140 -2 -148 -2 -8 0 -44 0 -80 0 -84 0 -73 0 -160 3 -41 2
-83 -1 -92 -5 -9 -4 -19 -4 -22 1 -3 4 -18 6 -33 4 -16 -2 -32 -4 -38 -3 -73
5 -215 3 -215 -2 0 -4 -11 -3 -24 2 -13 5 -26 7 -27 5 -2 -2 -38 -6 -79 -10
-105 -9 -181 -19 -235 -32 -55 -13 -102 -24 -125 -29 -14 -3 -45 -12 -70 -21
-25 -8 -49 -16 -55 -18 -38 -11 -66 -23 -167 -66 -62 -27 -114 -54 -116 -59
-2 -6 -12 -10 -23 -10 -10 0 -19 -4 -19 -9 0 -5 -10 -13 -22 -16 -19 -7 -166
-100 -178 -114 -3 -3 -25 -22 -50 -41 -71 -55 -188 -165 -235 -222 -92 -111
-174 -228 -221 -318 -16 -30 -33 -58 -37 -61 -5 -3 -8 -9 -7 -13 0 -3 -9 -28
-21 -54 -11 -26 -22 -51 -23 -57 -2 -5 -8 -23 -14 -38 -7 -15 -15 -39 -18 -52
-7 -28 -13 -29 -99 -15 -94 14 -115 19 -190 41 -38 12 -74 22 -80 23 -5 1 -19
7 -30 13 -11 6 -24 11 -28 11 -46 2 -404 177 -415 204 -2 4 -8 8 -14 8 -6 0
-56 32 -112 72 -109 78 -109 78 -147 111 -14 12 -52 45 -84 72 -75 63 -226
215 -273 274 -20 26 -47 56 -59 68 -13 12 -23 24 -23 27 0 3 -7 14 -15 23 -8
10 -52 70 -99 133 -47 63 -88 120 -93 125 -4 6 -28 37 -53 70 -25 33 -50 66
-57 75 -127 160 -212 266 -228 284 -5 6 -35 41 -65 76 -218 258 -471 518 -666
685 -32 28 -66 58 -76 68 -10 9 -18 14 -18 10 0 -4 -6 0 -12 8 -7 9 -35 33
-63 55 -27 21 -51 42 -53 47 -2 4 -8 7 -14 7 -5 0 -28 15 -51 34 -52 42 -252
176 -263 176 -4 0 -15 6 -23 14 -36 31 -400 216 -426 216 -3 0 -27 9 -52 21
-25 11 -54 22 -64 24 -10 2 -26 8 -36 13 -10 6 -21 10 -26 11 -4 0 -40 11 -80
23 -39 12 -75 23 -79 24 -5 1 -9 2 -10 4 -2 1 -16 4 -33 6 -16 3 -37 7 -45 11
-18 7 -12 6 -120 28 -47 10 -95 18 -107 19 -13 0 -23 2 -23 6 0 3 -10 5 -22 6
-33 1 -155 15 -179 19 -62 12 -531 29 -542 19z m423 -618 c91 -9 226 -26 255
-33 11 -2 34 -7 50 -9 55 -10 149 -32 205 -49 30 -9 60 -17 65 -18 6 -2 16 -6
23 -10 6 -5 17 -5 22 -2 6 3 10 1 10 -6 0 -7 3 -9 7 -6 3 4 12 2 20 -4 7 -6
13 -9 13 -6 0 3 21 -3 48 -15 148 -63 258 -112 262 -117 3 -3 34 -21 70 -40
124 -65 408 -264 507 -356 11 -11 47 -42 79 -70 115 -100 383 -375 490 -505
16 -19 36 -42 44 -51 8 -8 31 -35 50 -58 19 -23 44 -53 55 -66 47 -55 55 -66
55 -73 0 -4 9 -13 20 -20 11 -7 20 -19 20 -27 0 -8 4 -15 8 -15 6 0 50 -53 94
-115 4 -5 20 -26 35 -45 16 -19 55 -71 88 -115 33 -44 63 -81 68 -83 4 -2 7
-8 7 -13 0 -8 109 -158 135 -185 5 -6 24 -28 40 -50 87 -111 339 -363 471
-469 184 -150 402 -291 594 -384 79 -39 168 -79 190 -86 3 -1 16 -6 30 -12 22
-9 129 -45 215 -73 29 -9 199 -49 240 -56 168 -29 256 -34 667 -35 303 -1 318
-2 335 -21 17 -19 18 -58 18 -657 1 -417 -3 -644 -10 -658 -6 -15 -19 -23 -35
-23 -14 -1 -167 -1 -340 0 -765 3 -1169 1 -1215 -4 -67 -8 -105 -14 -135 -21
-14 -3 -34 -8 -45 -10 -28 -5 -126 -34 -150 -45 -11 -5 -42 -18 -70 -30 -54
-23 -100 -46 -155 -79 -19 -11 -42 -24 -50 -28 -8 -3 -17 -9 -20 -12 -3 -4
-24 -19 -48 -34 -23 -15 -50 -34 -60 -41 -113 -92 -155 -127 -201 -170 -92
-87 -202 -199 -311 -317 -129 -138 -460 -469 -565 -564 -43 -38 -85 -77 -94
-85 -9 -8 -50 -43 -91 -78 -41 -34 -88 -73 -103 -87 -15 -14 -30 -25 -32 -25
-5 0 -123 -88 -135 -100 -3 -3 -17 -11 -32 -19 -16 -8 -28 -18 -28 -23 0 -4
-7 -8 -15 -8 -8 0 -15 -3 -15 -8 0 -7 -10 -13 -66 -42 -16 -8 -31 -17 -34 -20
-6 -8 -129 -76 -196 -110 -27 -14 -51 -27 -54 -30 -3 -3 -14 -7 -25 -8 -11 -2
-22 -7 -25 -12 -7 -10 -278 -118 -318 -126 -18 -4 -32 -11 -32 -17 0 -6 -3 -8
-6 -4 -3 3 -29 -2 -57 -10 -29 -8 -59 -17 -67 -18 -8 -2 -15 -4 -15 -5 0 -1
-7 -3 -15 -5 -8 -2 -55 -13 -105 -25 -105 -25 -106 -25 -165 -35 -25 -4 -54
-9 -65 -11 -11 -2 -37 -6 -59 -9 -21 -3 -50 -7 -65 -10 -44 -8 -184 -21 -316
-30 -129 -10 -335 -5 -420 9 -28 5 -95 18 -141 29 -175 42 -353 149 -454 273
-30 37 -80 113 -80 121 0 5 -6 15 -12 21 -7 7 -13 16 -14 20 0 4 -6 21 -13 37
-7 17 -14 35 -15 40 -2 6 -8 28 -14 50 -6 22 -14 63 -17 90 -9 62 -9 5338 -1
5455 3 47 8 94 10 105 7 41 19 111 22 130 1 11 3 21 4 23 2 1 4 7 5 12 1 6 3
11 5 13 1 1 3 10 5 19 18 97 110 250 189 317 15 14 34 29 40 35 22 20 141 85
166 91 3 1 30 9 60 18 30 9 67 18 82 21 15 3 31 7 36 9 4 3 39 8 77 12 38 3
70 7 72 9 4 4 391 -3 443 -8z m15185 0 c28 -4 94 -18 148 -31 252 -64 392
-188 488 -430 21 -51 43 -157 54 -255 4 -30 9 -66 11 -80 10 -59 4 -5437 -6
-5489 -27 -144 -93 -281 -183 -381 -63 -71 -235 -188 -302 -206 -5 -2 -37 -13
-70 -24 -33 -12 -69 -23 -80 -25 -78 -12 -102 -17 -115 -20 -21 -6 -175 -17
-235 -18 -112 0 -460 26 -520 40 -11 2 -35 6 -54 8 -119 14 -456 89 -516 115
-11 5 -45 16 -75 26 -94 29 -250 93 -362 149 -60 29 -108 51 -108 49 0 -3 -6
0 -12 6 -7 5 -64 41 -125 78 -165 99 -354 235 -488 353 -96 84 -157 139 -209
188 -104 98 -418 414 -504 506 -179 192 -335 346 -432 425 -102 83 -166 130
-177 130 -7 0 -16 6 -20 13 -18 27 -233 135 -343 171 -97 32 -89 30 -155 41
-56 10 -64 12 -67 14 -11 9 -196 12 -633 12 -465 -1 -614 -1 -670 0 -11 0 -86
-1 -167 -1 -166 -2 -187 2 -190 33 -7 90 -3 1268 4 1289 12 34 16 35 120 36
48 0 92 3 97 7 6 3 11 3 11 -2 0 -14 576 -3 650 12 14 3 48 7 75 11 40 4 183
33 240 48 79 21 140 40 205 64 8 3 17 6 20 7 3 1 18 7 33 13 16 7 33 12 38 12
5 0 17 4 27 9 49 27 122 59 122 54 0 -3 6 -1 13 5 6 6 56 33 109 60 53 28 122
67 153 86 30 20 58 36 60 36 6 0 145 100 163 117 7 7 17 13 21 13 4 0 23 13
42 30 45 38 50 43 75 60 64 45 298 268 394 376 91 103 100 114 100 124 0 5 4
10 8 10 5 0 30 30 58 68 27 37 54 74 61 82 6 8 67 89 134 180 67 91 125 167
129 170 3 3 29 36 59 74 66 85 67 86 138 171 32 39 65 78 73 88 8 11 31 36 50
57 19 22 60 67 90 102 65 74 367 378 375 378 3 0 18 12 33 28 63 62 322 267
322 255 0 -5 4 -3 8 2 4 6 34 28 67 50 33 22 62 42 65 45 3 3 14 10 25 16 11
6 43 24 70 39 53 30 147 78 155 80 3 0 14 6 25 12 90 50 387 149 535 178 41 8
84 16 95 19 11 2 43 7 70 10 28 4 64 9 80 11 17 3 66 7 110 10 43 3 80 7 82 9
5 5 377 -2 428 -8z m-7001 -2010 c44 -4 100 -11 125 -17 25 -6 53 -12 61 -14
8 -1 35 -9 60 -16 25 -7 48 -13 53 -15 4 -1 9 -3 12 -4 3 -1 10 -4 15 -5 6 -1
12 -4 15 -5 3 -1 8 -3 13 -4 28 -6 202 -94 225 -114 9 -8 17 -12 17 -8 0 6
117 -81 146 -108 6 -6 34 -33 63 -59 28 -27 63 -65 78 -85 16 -20 30 -39 34
-42 11 -10 86 -125 92 -142 5 -16 0 -18 -41 -19 -113 -2 -162 -11 -292 -55 -8
-3 -17 -6 -20 -6 -3 -1 -22 -12 -42 -24 -21 -13 -40 -24 -44 -24 -3 0 -11 -6
-19 -12 -7 -7 -28 -24 -46 -38 -17 -14 -35 -27 -38 -30 -3 -3 -25 -30 -47 -60
-76 -101 -113 -187 -137 -317 -11 -57 -13 -217 -12 -745 2 -652 4 -705 27
-776 5 -18 11 -39 12 -45 4 -15 23 -64 38 -97 21 -44 95 -144 129 -175 33 -30
129 -99 139 -100 3 -1 23 -9 45 -19 87 -39 143 -52 235 -55 52 -1 97 -5 99 -7
5 -5 -44 -81 -72 -111 -11 -13 -17 -23 -13 -23 15 0 -188 -197 -246 -238 -174
-127 -397 -214 -628 -247 -57 -8 -1675 -8 -1755 0 -32 4 -80 11 -105 16 -25 5
-56 12 -70 15 -14 2 -41 10 -60 16 -19 7 -38 13 -42 14 -5 1 -9 2 -10 4 -2 1
-10 3 -18 5 -47 13 -110 39 -110 46 0 5 -6 9 -14 9 -17 0 -125 58 -144 77 -7
7 -17 13 -21 13 -12 0 -110 76 -160 123 -83 80 -181 195 -181 214 0 6 -9 18
-20 28 -39 36 -26 45 63 45 45 0 99 5 121 11 21 6 48 12 59 15 27 5 151 66
155 76 2 4 10 8 17 8 34 0 215 211 215 251 0 7 8 21 18 32 9 11 12 17 5 14 -7
-5 -6 3 3 22 8 16 22 63 31 103 14 63 16 165 17 748 0 705 -2 745 -45 862 -53
147 -163 277 -295 350 -28 16 -137 59 -149 59 -2 0 -19 5 -37 10 -18 6 -73 12
-123 14 -49 3 -91 5 -93 5 -6 0 32 67 68 120 57 84 112 144 215 235 52 45 172
124 253 165 87 44 289 113 308 106 8 -3 16 -1 18 3 7 11 62 19 173 27 48 4 89
7 90 8 7 5 1526 -3 1587 -8z"/>
<path d="M652 12984 c-53 -14 -104 -37 -129 -58 -118 -98 -164 -187 -168 -319
-4 -137 51 -248 167 -342 19 -16 92 -50 101 -47 4 1 7 -3 7 -9 0 -5 5 -7 10
-4 6 4 16 2 23 -3 7 -5 53 -8 102 -6 111 5 115 5 115 16 0 5 4 7 9 3 5 -3 12
-1 16 5 4 6 11 8 16 5 5 -4 9 -3 9 2 0 4 14 14 31 22 51 22 128 107 159 174
18 38 31 86 35 126 3 35 8 68 11 73 3 4 1 8 -3 8 -5 0 -10 10 -11 23 -1 12 -4
29 -6 37 -2 8 -7 30 -11 47 -4 18 -14 38 -21 44 -8 6 -14 17 -14 24 0 7 -24
37 -53 67 -47 47 -118 91 -182 113 -39 13 -161 13 -213 -1z"/>
<path d="M21290 12983 c-115 -29 -205 -105 -260 -218 -30 -61 -35 -81 -37
-156 -2 -87 8 -133 48 -210 19 -38 99 -129 113 -129 4 0 16 -8 27 -18 17 -16
47 -29 119 -50 37 -11 176 -7 200 5 14 7 31 13 39 13 13 0 68 30 99 55 64 48
131 150 147 222 56 259 -121 491 -380 499 -33 1 -85 -5 -115 -13z"/>
<path d="M635 11347 c-32 -10 -64 -25 -72 -33 -8 -8 -20 -14 -27 -14 -37 0
-155 -159 -173 -233 -15 -62 -10 -167 11 -230 95 -284 452 -371 660 -162 52
52 76 81 76 88 0 3 8 22 17 43 20 48 23 57 28 117 2 26 7 52 10 57 3 5 1 11
-3 14 -5 3 -9 16 -8 28 1 13 -4 35 -11 51 -7 15 -11 27 -8 27 3 0 -6 21 -20
48 -50 93 -167 187 -261 207 -64 14 -163 11 -219 -8z"/>
<path d="M21348 11365 c-2 -2 -19 -6 -38 -9 -53 -10 -52 -10 -110 -40 -70 -36
-132 -103 -173 -185 -27 -56 -32 -75 -34 -159 -2 -64 2 -100 10 -110 6 -8 11
-17 10 -18 -12 -18 40 -106 92 -160 82 -84 188 -128 300 -124 212 7 383 177
390 388 4 119 -43 231 -130 310 -28 26 -62 52 -76 58 -13 6 -35 17 -49 23 -14
6 -36 14 -50 17 -30 7 -137 13 -142 9z"/>
<path d="M693 9728 c-154 -22 -287 -144 -329 -300 -12 -46 -12 -145 1 -202 26
-120 157 -250 293 -291 24 -7 146 -9 172 -2 58 15 79 22 110 37 19 10 46 27
58 38 13 12 27 22 31 24 17 8 80 99 99 144 17 42 35 128 34 169 0 24 -14 92
-22 110 -4 11 -14 35 -22 53 -7 17 -16 32 -20 32 -5 0 -8 6 -8 13 0 22 -101
112 -155 139 -73 37 -153 49 -242 36z"/>
<path d="M21330 9728 c-124 -17 -245 -108 -303 -228 -29 -59 -31 -73 -31 -160
0 -107 4 -126 36 -190 25 -49 50 -82 87 -114 13 -12 29 -26 35 -32 22 -21 91
-52 146 -66 62 -15 165 -15 184 1 7 6 16 8 19 5 12 -13 124 53 173 101 196
194 142 526 -105 647 -25 13 -48 23 -51 23 -3 1 -20 5 -39 9 -47 11 -88 12
-151 4z"/>
</g>
</svg>
